STARTFONT 2.1
COMMENT
COMMENT Converted from OpenType font "KH-Dot-Kodenmachou-16-Ki.ttf" by "otf2bdf 3.0".
COMMENT
FONT -FreeType-KH Dot Kodenmachou 16 Ki-Medium-R-Normal--17-120-100-100-P-154-ISO10646-1
SIZE 12 100 100
FONTBOUNDINGBOX 16 17 0 -2
STARTPROPERTIES 19
FOUNDRY "FreeType"
FAMILY_NAME "KH Dot Kodenmachou 16 Ki"
WEIGHT_NAME "Medium"
SLANT "R"
SETWIDTH_NAME "Normal"
ADD_STYLE_NAME ""
PIXEL_SIZE 17
POINT_SIZE 120
RESOLUTION_X 100
RESOLUTION_Y 100
SPACING "P"
AVERAGE_WIDTH 154
CHARSET_REGISTRY "ISO10646"
CHARSET_ENCODING "1"
FONT_ASCENT 14
FONT_DESCENT 2
COPYRIGHT "Copyright (c) Keitarou Hiraki, Font Silo. 1990-2015"
_OTF_FONTFILE "KH-Dot-Kodenmachou-16-Ki.ttf"
_OTF_PSNAME "KH-Dot-Kodenmachou-16-Ki"
ENDPROPERTIES
CHARS 7263
STARTCHAR 0020
ENCODING 32
SWIDTH 540 0
DWIDTH 9 0
BBX 0 0 0 0
BITMAP
ENDCHAR
STARTCHAR 0021
ENCODING 33
SWIDTH 540 0
DWIDTH 9 0
BBX 1 12 3 0
BITMAP
80
80
80
80
80
80
80
00
00
80
80
80
ENDCHAR
STARTCHAR 0022
ENCODING 34
SWIDTH 540 0
DWIDTH 9 0
BBX 5 6 1 8
BITMAP
D8
D8
D8
48
48
90
ENDCHAR
STARTCHAR 0023
ENCODING 35
SWIDTH 540 0
DWIDTH 9 0
BBX 7 11 0 1
BITMAP
44
44
44
FE
44
44
44
FE
44
44
44
ENDCHAR
STARTCHAR 0024
ENCODING 36
SWIDTH 540 0
DWIDTH 9 0
BBX 7 17 0 -2
BITMAP
10
10
10
38
54
92
90
50
38
14
12
92
92
54
38
10
10
ENDCHAR
STARTCHAR 0025
ENCODING 37
SWIDTH 540 0
DWIDTH 9 0
BBX 7 11 0 1
BITMAP
60
92
92
94
68
10
2C
52
92
92
0C
ENDCHAR
STARTCHAR 0026
ENCODING 38
SWIDTH 540 0
DWIDTH 9 0
BBX 7 12 0 0
BITMAP
70
88
88
90
50
64
54
94
88
88
88
76
ENDCHAR
STARTCHAR 0027
ENCODING 39
SWIDTH 540 0
DWIDTH 9 0
BBX 2 6 2 8
BITMAP
C0
C0
C0
40
40
80
ENDCHAR
STARTCHAR 0028
ENCODING 40
SWIDTH 540 0
DWIDTH 9 0
BBX 4 16 3 -1
BITMAP
10
20
20
40
40
80
80
80
80
80
80
80
40
40
20
10
ENDCHAR
STARTCHAR 0029
ENCODING 41
SWIDTH 540 0
DWIDTH 9 0
BBX 4 16 1 -1
BITMAP
80
40
40
20
20
10
10
10
10
10
10
10
20
20
40
80
ENDCHAR
STARTCHAR 002A
ENCODING 42
SWIDTH 540 0
DWIDTH 9 0
BBX 7 8 0 2
BITMAP
10
92
54
38
38
54
92
10
ENDCHAR
STARTCHAR 002B
ENCODING 43
SWIDTH 540 0
DWIDTH 9 0
BBX 7 9 0 2
BITMAP
10
10
10
10
FE
10
10
10
10
ENDCHAR
STARTCHAR 002C
ENCODING 44
SWIDTH 540 0
DWIDTH 9 0
BBX 2 5 3 -2
BITMAP
C0
C0
40
40
80
ENDCHAR
STARTCHAR 002D
ENCODING 45
SWIDTH 540 0
DWIDTH 9 0
BBX 7 1 0 6
BITMAP
FE
ENDCHAR
STARTCHAR 002E
ENCODING 46
SWIDTH 540 0
DWIDTH 9 0
BBX 2 2 3 1
BITMAP
C0
C0
ENDCHAR
STARTCHAR 002F
ENCODING 47
SWIDTH 540 0
DWIDTH 9 0
BBX 7 17 0 -2
BITMAP
02
02
02
04
04
08
08
08
10
10
20
20
20
40
40
80
80
ENDCHAR
STARTCHAR 0030
ENCODING 48
SWIDTH 540 0
DWIDTH 9 0
BBX 6 12 1 0
BITMAP
30
48
84
84
84
84
84
84
84
84
48
30
ENDCHAR
STARTCHAR 0031
ENCODING 49
SWIDTH 540 0
DWIDTH 9 0
BBX 3 12 2 0
BITMAP
20
20
E0
20
20
20
20
20
20
20
20
20
ENDCHAR
STARTCHAR 0032
ENCODING 50
SWIDTH 540 0
DWIDTH 9 0
BBX 6 12 1 0
BITMAP
78
84
84
04
08
10
10
20
40
40
80
FC
ENDCHAR
STARTCHAR 0033
ENCODING 51
SWIDTH 540 0
DWIDTH 9 0
BBX 6 12 1 0
BITMAP
70
88
84
04
08
70
08
04
04
84
88
70
ENDCHAR
STARTCHAR 0034
ENCODING 52
SWIDTH 540 0
DWIDTH 9 0
BBX 6 12 1 0
BITMAP
08
18
18
28
28
48
48
88
FC
08
08
08
ENDCHAR
STARTCHAR 0035
ENCODING 53
SWIDTH 540 0
DWIDTH 9 0
BBX 6 12 1 0
BITMAP
F8
80
80
80
B0
C8
84
04
04
84
88
70
ENDCHAR
STARTCHAR 0036
ENCODING 54
SWIDTH 540 0
DWIDTH 9 0
BBX 6 12 1 0
BITMAP
38
44
84
80
B0
C8
84
84
84
84
48
30
ENDCHAR
STARTCHAR 0037
ENCODING 55
SWIDTH 540 0
DWIDTH 9 0
BBX 6 12 1 0
BITMAP
FC
04
04
08
08
10
10
10
20
20
20
20
ENDCHAR
STARTCHAR 0038
ENCODING 56
SWIDTH 540 0
DWIDTH 9 0
BBX 6 12 1 0
BITMAP
30
48
84
84
48
30
48
84
84
84
48
30
ENDCHAR
STARTCHAR 0039
ENCODING 57
SWIDTH 540 0
DWIDTH 9 0
BBX 6 12 1 0
BITMAP
30
48
84
84
84
84
4C
34
04
84
88
70
ENDCHAR
STARTCHAR 003A
ENCODING 58
SWIDTH 540 0
DWIDTH 9 0
BBX 2 8 3 1
BITMAP
C0
C0
00
00
00
00
C0
C0
ENDCHAR
STARTCHAR 003B
ENCODING 59
SWIDTH 540 0
DWIDTH 9 0
BBX 2 11 3 -2
BITMAP
C0
C0
00
00
00
00
C0
C0
40
40
80
ENDCHAR
STARTCHAR 003C
ENCODING 60
SWIDTH 540 0
DWIDTH 9 0
BBX 7 14 0 0
BITMAP
02
02
04
08
10
20
40
80
40
20
10
08
04
02
ENDCHAR
STARTCHAR 003D
ENCODING 61
SWIDTH 540 0
DWIDTH 9 0
BBX 7 4 0 4
BITMAP
FE
00
00
FE
ENDCHAR
STARTCHAR 003E
ENCODING 62
SWIDTH 540 0
DWIDTH 9 0
BBX 7 14 0 0
BITMAP
80
80
40
20
10
08
04
02
04
08
10
20
40
80
ENDCHAR
STARTCHAR 003F
ENCODING 63
SWIDTH 540 0
DWIDTH 9 0
BBX 7 12 0 0
BITMAP
38
44
82
82
04
08
10
10
00
10
10
10
ENDCHAR
STARTCHAR 0040
ENCODING 64
SWIDTH 540 0
DWIDTH 9 0
BBX 7 12 0 0
BITMAP
38
44
82
9A
AA
AA
AA
AA
9C
40
42
3C
ENDCHAR
STARTCHAR 0041
ENCODING 65
SWIDTH 540 0
DWIDTH 9 0
BBX 7 12 0 0
BITMAP
10
10
10
28
28
28
44
44
7C
82
82
82
ENDCHAR
STARTCHAR 0042
ENCODING 66
SWIDTH 540 0
DWIDTH 9 0
BBX 7 12 0 0
BITMAP
F8
84
84
84
88
F8
84
82
82
82
84
F8
ENDCHAR
STARTCHAR 0043
ENCODING 67
SWIDTH 540 0
DWIDTH 9 0
BBX 7 12 0 0
BITMAP
3C
42
42
80
80
80
80
80
82
42
42
3C
ENDCHAR
STARTCHAR 0044
ENCODING 68
SWIDTH 540 0
DWIDTH 9 0
BBX 7 12 0 0
BITMAP
F0
88
84
84
82
82
82
82
84
84
88
F0
ENDCHAR
STARTCHAR 0045
ENCODING 69
SWIDTH 540 0
DWIDTH 9 0
BBX 7 12 0 0
BITMAP
FE
80
80
80
80
FC
80
80
80
80
80
FE
ENDCHAR
STARTCHAR 0046
ENCODING 70
SWIDTH 540 0
DWIDTH 9 0
BBX 7 12 0 0
BITMAP
FE
80
80
80
80
FC
80
80
80
80
80
80
ENDCHAR
STARTCHAR 0047
ENCODING 71
SWIDTH 540 0
DWIDTH 9 0
BBX 7 12 0 0
BITMAP
3C
42
42
80
80
80
9E
82
82
42
46
3A
ENDCHAR
STARTCHAR 0048
ENCODING 72
SWIDTH 540 0
DWIDTH 9 0
BBX 7 12 0 0
BITMAP
82
82
82
82
82
FE
82
82
82
82
82
82
ENDCHAR
STARTCHAR 0049
ENCODING 73
SWIDTH 540 0
DWIDTH 9 0
BBX 1 12 3 0
BITMAP
80
80
80
80
80
80
80
80
80
80
80
80
ENDCHAR
STARTCHAR 004A
ENCODING 74
SWIDTH 540 0
DWIDTH 9 0
BBX 5 14 1 -2
BITMAP
08
08
08
08
08
08
08
08
08
08
08
88
90
60
ENDCHAR
STARTCHAR 004B
ENCODING 75
SWIDTH 540 0
DWIDTH 9 0
BBX 7 12 0 0
BITMAP
84
84
88
88
D0
A0
90
88
88
84
82
82
ENDCHAR
STARTCHAR 004C
ENCODING 76
SWIDTH 540 0
DWIDTH 9 0
BBX 7 12 0 0
BITMAP
80
80
80
80
80
80
80
80
80
80
80
FE
ENDCHAR
STARTCHAR 004D
ENCODING 77
SWIDTH 540 0
DWIDTH 9 0
BBX 7 12 0 0
BITMAP
82
C6
C6
AA
AA
92
92
82
82
82
82
82
ENDCHAR
STARTCHAR 004E
ENCODING 78
SWIDTH 540 0
DWIDTH 9 0
BBX 7 12 0 0
BITMAP
82
C2
A2
A2
92
92
8A
8A
86
86
82
82
ENDCHAR
STARTCHAR 004F
ENCODING 79
SWIDTH 540 0
DWIDTH 9 0
BBX 7 12 0 0
BITMAP
38
44
44
82
82
82
82
82
82
44
44
38
ENDCHAR
STARTCHAR 0050
ENCODING 80
SWIDTH 540 0
DWIDTH 9 0
BBX 7 12 0 0
BITMAP
F8
84
82
82
82
84
F8
80
80
80
80
80
ENDCHAR
STARTCHAR 0051
ENCODING 81
SWIDTH 540 0
DWIDTH 9 0
BBX 7 13 0 -1
BITMAP
38
44
44
82
82
82
82
B2
8A
44
44
3A
02
ENDCHAR
STARTCHAR 0052
ENCODING 82
SWIDTH 540 0
DWIDTH 9 0
BBX 7 12 0 0
BITMAP
F8
84
82
82
84
F8
84
84
82
82
82
82
ENDCHAR
STARTCHAR 0053
ENCODING 83
SWIDTH 540 0
DWIDTH 9 0
BBX 7 12 0 0
BITMAP
78
84
84
80
60
18
04
02
82
82
84
78
ENDCHAR
STARTCHAR 0054
ENCODING 84
SWIDTH 540 0
DWIDTH 9 0
BBX 7 12 0 0
BITMAP
FE
10
10
10
10
10
10
10
10
10
10
10
ENDCHAR
STARTCHAR 0055
ENCODING 85
SWIDTH 540 0
DWIDTH 9 0
BBX 7 12 0 0
BITMAP
82
82
82
82
82
82
82
82
82
82
44
38
ENDCHAR
STARTCHAR 0056
ENCODING 86
SWIDTH 540 0
DWIDTH 9 0
BBX 7 12 0 0
BITMAP
82
82
82
44
44
44
28
28
28
10
10
10
ENDCHAR
STARTCHAR 0057
ENCODING 87
SWIDTH 540 0
DWIDTH 9 0
BBX 7 12 0 0
BITMAP
82
82
82
82
92
92
AA
AA
44
44
44
44
ENDCHAR
STARTCHAR 0058
ENCODING 88
SWIDTH 540 0
DWIDTH 9 0
BBX 7 12 0 0
BITMAP
82
82
44
44
28
10
28
28
44
44
82
82
ENDCHAR
STARTCHAR 0059
ENCODING 89
SWIDTH 540 0
DWIDTH 9 0
BBX 7 12 0 0
BITMAP
82
82
44
44
28
28
10
10
10
10
10
10
ENDCHAR
STARTCHAR 005A
ENCODING 90
SWIDTH 540 0
DWIDTH 9 0
BBX 7 12 0 0
BITMAP
FE
04
04
08
08
10
20
20
40
40
80
FE
ENDCHAR
STARTCHAR 005B
ENCODING 91
SWIDTH 540 0
DWIDTH 9 0
BBX 5 15 2 0
BITMAP
F8
80
80
80
80
80
80
80
80
80
80
80
80
80
F8
ENDCHAR
STARTCHAR 005C
ENCODING 92
SWIDTH 540 0
DWIDTH 9 0
BBX 7 12 0 0
BITMAP
82
82
44
44
28
FE
10
FE
10
10
10
10
ENDCHAR
STARTCHAR 005D
ENCODING 93
SWIDTH 540 0
DWIDTH 9 0
BBX 5 15 1 0
BITMAP
F8
08
08
08
08
08
08
08
08
08
08
08
08
08
F8
ENDCHAR
STARTCHAR 005E
ENCODING 94
SWIDTH 540 0
DWIDTH 9 0
BBX 7 5 0 9
BITMAP
10
10
28
44
82
ENDCHAR
STARTCHAR 005F
ENCODING 95
SWIDTH 540 0
DWIDTH 9 0
BBX 7 1 0 0
BITMAP
FE
ENDCHAR
STARTCHAR 0060
ENCODING 96
SWIDTH 540 0
DWIDTH 9 0
BBX 2 6 3 8
BITMAP
40
40
80
80
C0
C0
ENDCHAR
STARTCHAR 0061
ENCODING 97
SWIDTH 540 0
DWIDTH 9 0
BBX 7 9 0 0
BITMAP
7C
02
02
02
7E
82
82
86
7A
ENDCHAR
STARTCHAR 0062
ENCODING 98
SWIDTH 540 0
DWIDTH 9 0
BBX 7 15 0 0
BITMAP
80
80
80
80
80
80
B8
C4
82
82
82
82
82
C4
B8
ENDCHAR
STARTCHAR 0063
ENCODING 99
SWIDTH 540 0
DWIDTH 9 0
BBX 7 9 0 0
BITMAP
38
44
82
80
80
82
82
44
38
ENDCHAR
STARTCHAR 0064
ENCODING 100
SWIDTH 540 0
DWIDTH 9 0
BBX 7 15 0 0
BITMAP
02
02
02
02
02
02
3A
46
82
82
82
82
82
46
3A
ENDCHAR
STARTCHAR 0065
ENCODING 101
SWIDTH 540 0
DWIDTH 9 0
BBX 7 9 0 0
BITMAP
38
44
82
82
FE
80
80
42
3C
ENDCHAR
STARTCHAR 0066
ENCODING 102
SWIDTH 540 0
DWIDTH 9 0
BBX 6 15 1 0
BITMAP
1C
20
20
20
20
20
F8
20
20
20
20
20
20
20
20
ENDCHAR
STARTCHAR 0067
ENCODING 103
SWIDTH 540 0
DWIDTH 9 0
BBX 7 11 0 -2
BITMAP
3A
46
82
82
82
82
82
4E
32
04
78
ENDCHAR
STARTCHAR 0068
ENCODING 104
SWIDTH 540 0
DWIDTH 9 0
BBX 7 15 0 0
BITMAP
80
80
80
80
80
80
BC
C2
82
82
82
82
82
82
82
ENDCHAR
STARTCHAR 0069
ENCODING 105
SWIDTH 540 0
DWIDTH 9 0
BBX 1 15 3 0
BITMAP
80
80
80
80
00
00
80
80
80
80
80
80
80
80
80
ENDCHAR
STARTCHAR 006A
ENCODING 106
SWIDTH 540 0
DWIDTH 9 0
BBX 5 17 1 -2
BITMAP
08
08
08
08
00
00
08
08
08
08
08
08
08
08
88
88
70
ENDCHAR
STARTCHAR 006B
ENCODING 107
SWIDTH 540 0
DWIDTH 9 0
BBX 7 15 0 0
BITMAP
80
80
80
80
80
80
84
84
88
D0
A0
90
88
84
82
ENDCHAR
STARTCHAR 006C
ENCODING 108
SWIDTH 540 0
DWIDTH 9 0
BBX 1 15 3 0
BITMAP
80
80
80
80
80
80
80
80
80
80
80
80
80
80
80
ENDCHAR
STARTCHAR 006D
ENCODING 109
SWIDTH 540 0
DWIDTH 9 0
BBX 7 9 0 0
BITMAP
EC
92
92
92
92
92
92
92
92
ENDCHAR
STARTCHAR 006E
ENCODING 110
SWIDTH 540 0
DWIDTH 9 0
BBX 7 9 0 0
BITMAP
BC
C2
82
82
82
82
82
82
82
ENDCHAR
STARTCHAR 006F
ENCODING 111
SWIDTH 540 0
DWIDTH 9 0
BBX 7 9 0 0
BITMAP
38
44
82
82
82
82
82
44
38
ENDCHAR
STARTCHAR 0070
ENCODING 112
SWIDTH 540 0
DWIDTH 9 0
BBX 7 11 0 -2
BITMAP
B8
C4
82
82
82
82
82
C4
B8
80
80
ENDCHAR
STARTCHAR 0071
ENCODING 113
SWIDTH 540 0
DWIDTH 9 0
BBX 7 11 0 -2
BITMAP
3A
46
82
82
82
82
82
46
3A
02
02
ENDCHAR
STARTCHAR 0072
ENCODING 114
SWIDTH 540 0
DWIDTH 9 0
BBX 7 9 0 0
BITMAP
BC
C2
80
80
80
80
80
80
80
ENDCHAR
STARTCHAR 0073
ENCODING 115
SWIDTH 540 0
DWIDTH 9 0
BBX 7 9 0 0
BITMAP
78
84
84
40
38
04
82
82
7C
ENDCHAR
STARTCHAR 0074
ENCODING 116
SWIDTH 540 0
DWIDTH 9 0
BBX 5 12 1 0
BITMAP
20
20
20
F8
20
20
20
20
20
20
20
18
ENDCHAR
STARTCHAR 0075
ENCODING 117
SWIDTH 540 0
DWIDTH 9 0
BBX 7 9 0 0
BITMAP
82
82
82
82
82
82
82
86
7A
ENDCHAR
STARTCHAR 0076
ENCODING 118
SWIDTH 540 0
DWIDTH 9 0
BBX 7 9 0 0
BITMAP
82
82
82
44
44
28
28
10
10
ENDCHAR
STARTCHAR 0077
ENCODING 119
SWIDTH 540 0
DWIDTH 9 0
BBX 7 9 0 0
BITMAP
82
82
92
92
AA
44
44
44
44
ENDCHAR
STARTCHAR 0078
ENCODING 120
SWIDTH 540 0
DWIDTH 9 0
BBX 7 9 0 0
BITMAP
82
44
44
28
10
28
44
44
82
ENDCHAR
STARTCHAR 0079
ENCODING 121
SWIDTH 540 0
DWIDTH 9 0
BBX 7 11 0 -2
BITMAP
82
82
44
44
28
28
10
10
20
20
C0
ENDCHAR
STARTCHAR 007A
ENCODING 122
SWIDTH 540 0
DWIDTH 9 0
BBX 7 9 0 0
BITMAP
FE
04
08
10
20
20
40
80
FE
ENDCHAR
STARTCHAR 007B
ENCODING 123
SWIDTH 540 0
DWIDTH 9 0
BBX 6 16 1 -1
BITMAP
04
08
08
10
20
20
20
20
C0
20
20
20
20
10
08
04
ENDCHAR
STARTCHAR 007C
ENCODING 124
SWIDTH 540 0
DWIDTH 9 0
BBX 1 17 3 -2
BITMAP
80
80
80
80
80
80
80
80
80
80
80
80
80
80
80
80
80
ENDCHAR
STARTCHAR 007D
ENCODING 125
SWIDTH 540 0
DWIDTH 9 0
BBX 6 16 1 -1
BITMAP
80
40
40
20
10
10
10
10
0C
10
10
10
10
20
40
80
ENDCHAR
STARTCHAR 00A0
ENCODING 160
SWIDTH 540 0
DWIDTH 9 0
BBX 0 0 0 0
BITMAP
ENDCHAR
STARTCHAR 00A2
ENCODING 162
SWIDTH 1020 0
DWIDTH 17 0
BBX 8 14 4 -2
BITMAP
02
02
02
02
3E
4D
8D
8C
98
98
59
3E
20
20
ENDCHAR
STARTCHAR 00A3
ENCODING 163
SWIDTH 1020 0
DWIDTH 17 0
BBX 12 13 2 -1
BITMAP
0F80
1040
2000
2000
1000
FFC0
1000
0800
0810
6810
9810
9720
60C0
ENDCHAR
STARTCHAR 00A5
ENCODING 165
SWIDTH 540 0
DWIDTH 9 0
BBX 7 12 0 0
BITMAP
82
82
44
44
28
FE
10
FE
10
10
10
10
ENDCHAR
STARTCHAR 00A7
ENCODING 167
SWIDTH 1020 0
DWIDTH 17 0
BBX 8 16 4 -1
BITMAP
3C
42
42
81
81
40
38
4E
81
62
1C
02
81
81
42
3C
ENDCHAR
STARTCHAR 00A8
ENCODING 168
SWIDTH 1020 0
DWIDTH 17 0
BBX 7 3 4 12
BITMAP
CE
CE
CE
ENDCHAR
STARTCHAR 00AC
ENCODING 172
SWIDTH 1020 0
DWIDTH 17 0
BBX 12 5 2 3
BITMAP
FFF0
0010
0010
0010
0010
ENDCHAR
STARTCHAR 00B0
ENCODING 176
SWIDTH 1020 0
DWIDTH 17 0
BBX 5 6 0 9
BITMAP
70
88
88
88
88
70
ENDCHAR
STARTCHAR 00B1
ENCODING 177
SWIDTH 1020 0
DWIDTH 17 0
BBX 12 13 2 1
BITMAP
0600
0600
0600
0600
0600
FFF0
0600
0600
0600
0600
0000
0000
FFF0
ENDCHAR
STARTCHAR 00B4
ENCODING 180
SWIDTH 1020 0
DWIDTH 17 0
BBX 4 4 6 11
BITMAP
70
60
60
80
ENDCHAR
STARTCHAR 00B6
ENCODING 182
SWIDTH 1020 0
DWIDTH 17 0
BBX 10 15 2 -1
BITMAP
3FC0
3FC0
7840
F840
F840
7840
3840
0840
0840
0840
0840
0840
0840
0840
0840
ENDCHAR
STARTCHAR 00D7
ENCODING 215
SWIDTH 1020 0
DWIDTH 17 0
BBX 10 10 3 1
BITMAP
8040
4080
2100
1600
0C00
0C00
1600
2100
4080
8040
ENDCHAR
STARTCHAR 00F7
ENCODING 247
SWIDTH 1020 0
DWIDTH 17 0
BBX 12 11 2 1
BITMAP
0600
0F00
0600
0000
0000
FFF0
0000
0000
0600
0F00
0600
ENDCHAR
STARTCHAR 0391
ENCODING 913
SWIDTH 1020 0
DWIDTH 17 0
BBX 12 12 2 0
BITMAP
0600
0600
0B00
0B00
1080
1080
2040
3FC0
4020
4020
8010
8010
ENDCHAR
STARTCHAR 0392
ENCODING 914
SWIDTH 1020 0
DWIDTH 17 0
BBX 10 12 3 0
BITMAP
FF00
8080
8080
8080
8100
FF00
8080
8040
8040
8040
8080
FF00
ENDCHAR
STARTCHAR 0393
ENCODING 915
SWIDTH 1020 0
DWIDTH 17 0
BBX 9 12 4 0
BITMAP
FF80
8000
8000
8000
8000
8000
8000
8000
8000
8000
8000
8000
ENDCHAR
STARTCHAR 0394
ENCODING 916
SWIDTH 1020 0
DWIDTH 17 0
BBX 14 12 1 0
BITMAP
0300
0300
0580
0580
0840
0840
1020
1020
2010
2010
4008
FFFC
ENDCHAR
STARTCHAR 0395
ENCODING 917
SWIDTH 1020 0
DWIDTH 17 0
BBX 10 12 4 0
BITMAP
FFC0
8000
8000
8000
8000
FE00
8000
8000
8000
8000
8000
FFC0
ENDCHAR
STARTCHAR 0396
ENCODING 918
SWIDTH 1020 0
DWIDTH 17 0
BBX 11 12 3 0
BITMAP
FFC0
0080
0100
0100
0600
0C00
0C00
1000
2000
2000
4000
FFE0
ENDCHAR
STARTCHAR 0397
ENCODING 919
SWIDTH 1020 0
DWIDTH 17 0
BBX 9 12 4 0
BITMAP
8080
8080
8080
8080
8080
FF80
8080
8080
8080
8080
8080
8080
ENDCHAR
STARTCHAR 0398
ENCODING 920
SWIDTH 1020 0
DWIDTH 17 0
BBX 12 12 2 0
BITMAP
1F80
2040
4020
4020
8010
9F90
8010
8010
4020
4020
2040
1F80
ENDCHAR
STARTCHAR 0399
ENCODING 921
SWIDTH 1020 0
DWIDTH 17 0
BBX 2 12 7 0
BITMAP
C0
C0
C0
C0
C0
C0
C0
C0
C0
C0
C0
C0
ENDCHAR
STARTCHAR 039A
ENCODING 922
SWIDTH 1020 0
DWIDTH 17 0
BBX 11 12 3 0
BITMAP
8080
8100
8600
8C00
9000
B000
CC00
8600
8100
8080
8040
8020
ENDCHAR
STARTCHAR 039B
ENCODING 923
SWIDTH 1020 0
DWIDTH 17 0
BBX 10 12 3 0
BITMAP
0C00
0C00
1600
1600
2100
2100
2100
4080
4080
8040
8040
8040
ENDCHAR
STARTCHAR 039C
ENCODING 924
SWIDTH 1020 0
DWIDTH 17 0
BBX 12 12 2 0
BITMAP
8010
C030
A050
A050
9090
9090
9090
8B10
8B10
8610
8610
8610
ENDCHAR
STARTCHAR 039D
ENCODING 925
SWIDTH 1020 0
DWIDTH 17 0
BBX 10 12 3 0
BITMAP
8040
C040
A040
9040
9040
8C40
8640
8640
8140
8140
80C0
8040
ENDCHAR
STARTCHAR 039E
ENCODING 926
SWIDTH 1020 0
DWIDTH 17 0
BBX 12 12 2 0
BITMAP
FFF0
0000
0000
0000
0000
7FE0
0000
0000
0000
0000
0000
FFF0
ENDCHAR
STARTCHAR 039F
ENCODING 927
SWIDTH 1020 0
DWIDTH 17 0
BBX 12 12 2 0
BITMAP
1F80
2040
4020
4020
8010
8010
8010
8010
4020
4020
2040
1F80
ENDCHAR
STARTCHAR 03A0
ENCODING 928
SWIDTH 1020 0
DWIDTH 17 0
BBX 12 12 2 0
BITMAP
FFF0
2040
2040
2040
2040
2040
2040
2040
2040
2040
2040
2040
ENDCHAR
STARTCHAR 03A1
ENCODING 929
SWIDTH 1020 0
DWIDTH 17 0
BBX 10 12 4 0
BITMAP
FF00
8080
8040
8040
8080
FF00
8000
8000
8000
8000
8000
8000
ENDCHAR
STARTCHAR 03A3
ENCODING 931
SWIDTH 1020 0
DWIDTH 17 0
BBX 12 12 2 0
BITMAP
FFF0
4000
2000
1000
0800
0600
0800
1000
2000
4000
8000
FFF0
ENDCHAR
STARTCHAR 03A4
ENCODING 932
SWIDTH 1020 0
DWIDTH 17 0
BBX 12 12 2 0
BITMAP
FFF0
0600
0600
0600
0600
0600
0600
0600
0600
0600
0600
0600
ENDCHAR
STARTCHAR 03A5
ENCODING 933
SWIDTH 1020 0
DWIDTH 17 0
BBX 12 12 2 0
BITMAP
70E0
8B10
8610
0600
0600
0600
0600
0600
0600
0600
0600
0600
ENDCHAR
STARTCHAR 03A6
ENCODING 934
SWIDTH 1020 0
DWIDTH 17 0
BBX 12 12 2 0
BITMAP
0600
0600
1F80
6660
8610
8610
8610
8610
6660
1F80
0600
0600
ENDCHAR
STARTCHAR 03A7
ENCODING 935
SWIDTH 1020 0
DWIDTH 17 0
BBX 12 12 2 0
BITMAP
4020
2040
1080
1080
0B00
0600
0B00
1080
1080
2040
4020
8010
ENDCHAR
STARTCHAR 03A8
ENCODING 936
SWIDTH 1020 0
DWIDTH 17 0
BBX 14 12 1 0
BITMAP
0300
0300
C30C
2310
2310
2310
1320
0FC0
0300
0300
0300
0300
ENDCHAR
STARTCHAR 03A9
ENCODING 937
SWIDTH 1020 0
DWIDTH 17 0
BBX 12 12 2 0
BITMAP
1F80
2040
4020
4020
8010
8010
4020
4020
2040
1080
1080
F0F0
ENDCHAR
STARTCHAR 03B1
ENCODING 945
SWIDTH 1020 0
DWIDTH 17 0
BBX 12 8 2 0
BITMAP
1F10
2090
40A0
40C0
8080
8380
8E80
7060
ENDCHAR
STARTCHAR 03B2
ENCODING 946
SWIDTH 1020 0
DWIDTH 17 0
BBX 10 14 3 -2
BITMAP
0F80
1040
2040
2080
4F00
4100
4080
4080
8080
A100
9E00
8000
8000
8000
ENDCHAR
STARTCHAR 03B3
ENCODING 947
SWIDTH 1020 0
DWIDTH 17 0
BBX 10 10 4 -2
BITMAP
C1C0
2200
2C00
1800
1800
1800
2000
2000
2000
2000
ENDCHAR
STARTCHAR 03B4
ENCODING 948
SWIDTH 1020 0
DWIDTH 17 0
BBX 10 12 4 0
BITMAP
1F00
2080
2040
1840
1E00
2100
4100
4100
8200
8200
8C00
7800
ENDCHAR
STARTCHAR 03B5
ENCODING 949
SWIDTH 1020 0
DWIDTH 17 0
BBX 8 8 4 0
BITMAP
3F
40
40
3E
40
80
81
7E
ENDCHAR
STARTCHAR 03B6
ENCODING 950
SWIDTH 1020 0
DWIDTH 17 0
BBX 10 14 3 -2
BITMAP
1000
2000
20C0
1F00
0C00
1000
2000
4000
8000
8000
7E00
0100
0100
1E00
ENDCHAR
STARTCHAR 03B7
ENCODING 951
SWIDTH 1020 0
DWIDTH 17 0
BBX 9 10 4 -2
BITMAP
CF00
3880
2080
4080
4100
8100
8200
0200
0C00
0C00
ENDCHAR
STARTCHAR 03B8
ENCODING 952
SWIDTH 1020 0
DWIDTH 17 0
BBX 9 12 3 0
BITMAP
0F00
1080
2080
2080
4080
7F00
4100
8100
8600
8600
8C00
7000
ENDCHAR
STARTCHAR 03B9
ENCODING 953
SWIDTH 1020 0
DWIDTH 17 0
BBX 6 8 5 0
BITMAP
30
30
40
40
80
80
84
78
ENDCHAR
STARTCHAR 03BA
ENCODING 954
SWIDTH 1020 0
DWIDTH 17 0
BBX 9 8 3 0
BITMAP
2180
2600
2C00
5000
4C00
8C00
8C80
8700
ENDCHAR
STARTCHAR 03BB
ENCODING 955
SWIDTH 1020 0
DWIDTH 17 0
BBX 10 12 3 0
BITMAP
1C00
0600
0600
0100
0100
0700
0D00
0D00
1100
2100
4100
80C0
ENDCHAR
STARTCHAR 03BC
ENCODING 956
SWIDTH 1020 0
DWIDTH 17 0
BBX 11 10 2 -2
BITMAP
1040
1040
2040
2080
2080
2380
5E60
4000
8000
8000
ENDCHAR
STARTCHAR 03BD
ENCODING 957
SWIDTH 1020 0
DWIDTH 17 0
BBX 9 8 4 0
BITMAP
8080
4080
4100
4200
8C00
9800
E000
8000
ENDCHAR
STARTCHAR 03BE
ENCODING 958
SWIDTH 1020 0
DWIDTH 17 0
BBX 10 14 3 -2
BITMAP
0F00
1000
1FC0
2000
2000
1000
3F80
4000
8000
8000
7E00
0100
0100
1E00
ENDCHAR
STARTCHAR 03BF
ENCODING 959
SWIDTH 1020 0
DWIDTH 17 0
BBX 8 8 4 0
BITMAP
1E
21
41
41
82
82
8C
78
ENDCHAR
STARTCHAR 03C0
ENCODING 960
SWIDTH 1020 0
DWIDTH 17 0
BBX 10 8 3 0
BITMAP
FFC0
1100
2600
2600
4600
4C00
8C80
8700
ENDCHAR
STARTCHAR 03C1
ENCODING 961
SWIDTH 1020 0
DWIDTH 17 0
BBX 9 10 3 -2
BITMAP
0F00
1080
2080
2080
4080
6100
5E00
8000
8000
8000
ENDCHAR
STARTCHAR 03C3
ENCODING 963
SWIDTH 1020 0
DWIDTH 17 0
BBX 10 8 3 0
BITMAP
1FC0
2600
4100
4100
8600
8600
8C00
7000
ENDCHAR
STARTCHAR 03C4
ENCODING 964
SWIDTH 1020 0
DWIDTH 17 0
BBX 10 8 3 0
BITMAP
FFC0
0C00
1000
1000
2000
2000
2100
1E00
ENDCHAR
STARTCHAR 03C5
ENCODING 965
SWIDTH 1020 0
DWIDTH 17 0
BBX 9 8 3 0
BITMAP
4080
4080
4080
4080
8100
8100
8600
7C00
ENDCHAR
STARTCHAR 03C6
ENCODING 966
SWIDTH 1020 0
DWIDTH 17 0
BBX 10 14 3 -2
BITMAP
0100
0100
0600
0600
3F00
4680
8C40
8C40
8C40
5080
3F00
1000
2000
2000
ENDCHAR
STARTCHAR 03C7
ENCODING 967
SWIDTH 1020 0
DWIDTH 17 0
BBX 10 10 3 -2
BITMAP
6040
1080
0D00
0E00
0C00
1C00
2C00
4600
4600
8180
ENDCHAR
STARTCHAR 03C8
ENCODING 968
SWIDTH 1020 0
DWIDTH 17 0
BBX 10 14 3 -2
BITMAP
0100
0100
0600
0600
4680
4C40
4C40
8C40
9080
5100
3E00
1000
2000
2000
ENDCHAR
STARTCHAR 03C9
ENCODING 969
SWIDTH 1020 0
DWIDTH 17 0
BBX 12 8 2 0
BITMAP
1000
2020
4010
4610
8610
8820
9840
6780
ENDCHAR
STARTCHAR 0401
ENCODING 1025
SWIDTH 1020 0
DWIDTH 17 0
BBX 9 15 4 0
BITMAP
4200
4200
4200
0000
FF80
8000
8000
8000
FF00
8000
8000
8000
8000
8000
FF80
ENDCHAR
STARTCHAR 0410
ENCODING 1040
SWIDTH 1020 0
DWIDTH 17 0
BBX 12 12 2 0
BITMAP
0600
0600
0B00
0B00
1080
1080
2040
3FC0
4020
4020
8010
8010
ENDCHAR
STARTCHAR 0411
ENCODING 1041
SWIDTH 1020 0
DWIDTH 17 0
BBX 9 12 4 0
BITMAP
FF00
8000
8000
8000
8000
FE00
8100
8080
8080
8080
8100
FE00
ENDCHAR
STARTCHAR 0412
ENCODING 1042
SWIDTH 1020 0
DWIDTH 17 0
BBX 9 12 4 0
BITMAP
FE00
8100
8100
8100
8200
FE00
8100
8080
8080
8080
8100
FE00
ENDCHAR
STARTCHAR 0413
ENCODING 1043
SWIDTH 1020 0
DWIDTH 17 0
BBX 8 12 4 0
BITMAP
FF
80
80
80
80
80
80
80
80
80
80
80
ENDCHAR
STARTCHAR 0414
ENCODING 1044
SWIDTH 1020 0
DWIDTH 17 0
BBX 12 14 2 -2
BITMAP
1FC0
1040
1040
1040
1040
1040
1040
1040
1040
2040
2040
FFF0
8010
8010
ENDCHAR
STARTCHAR 0415
ENCODING 1045
SWIDTH 1020 0
DWIDTH 17 0
BBX 9 12 4 0
BITMAP
FF80
8000
8000
8000
FF00
8000
8000
8000
8000
8000
8000
FF80
ENDCHAR
STARTCHAR 0416
ENCODING 1046
SWIDTH 1020 0
DWIDTH 17 0
BBX 14 12 1 0
BITMAP
C30C
2310
2310
2310
1320
0FC0
1320
2310
4308
4308
8304
8304
ENDCHAR
STARTCHAR 0417
ENCODING 1047
SWIDTH 1020 0
DWIDTH 17 0
BBX 10 12 3 0
BITMAP
3F00
4080
8040
8040
0080
1F00
0080
0040
8040
8040
8080
7F00
ENDCHAR
STARTCHAR 0418
ENCODING 1048
SWIDTH 1020 0
DWIDTH 17 0
BBX 10 12 3 0
BITMAP
8040
80C0
8140
8140
8640
8C40
8C40
9040
A040
A040
C040
8040
ENDCHAR
STARTCHAR 0419
ENCODING 1049
SWIDTH 1020 0
DWIDTH 17 0
BBX 10 15 3 0
BITMAP
2100
1E00
1E00
8040
80C0
8140
8140
8640
8C40
8C40
9040
A040
A040
C040
8040
ENDCHAR
STARTCHAR 041A
ENCODING 1050
SWIDTH 1020 0
DWIDTH 17 0
BBX 11 12 3 0
BITMAP
81C0
8600
8C00
8C00
9000
F000
8C00
8600
8100
8080
8040
8020
ENDCHAR
STARTCHAR 041B
ENCODING 1051
SWIDTH 1020 0
DWIDTH 17 0
BBX 11 12 1 0
BITMAP
07E0
0420
0420
0420
0420
0420
0420
0420
0820
8820
9020
6020
ENDCHAR
STARTCHAR 041C
ENCODING 1052
SWIDTH 1020 0
DWIDTH 17 0
BBX 12 12 2 0
BITMAP
6060
50A0
50A0
50A0
4B20
4B20
8B10
8610
8610
8610
8010
8010
ENDCHAR
STARTCHAR 041D
ENCODING 1053
SWIDTH 1020 0
DWIDTH 17 0
BBX 10 12 3 0
BITMAP
8040
8040
8040
8040
FFC0
8040
8040
8040
8040
8040
8040
8040
ENDCHAR
STARTCHAR 041E
ENCODING 1054
SWIDTH 1020 0
DWIDTH 17 0
BBX 12 12 2 0
BITMAP
1F80
2040
4020
4020
8010
8010
8010
8010
4020
4020
2040
1F80
ENDCHAR
STARTCHAR 041F
ENCODING 1055
SWIDTH 1020 0
DWIDTH 17 0
BBX 10 12 3 0
BITMAP
FFC0
8040
8040
8040
8040
8040
8040
8040
8040
8040
8040
8040
ENDCHAR
STARTCHAR 0420
ENCODING 1056
SWIDTH 1020 0
DWIDTH 17 0
BBX 9 12 4 0
BITMAP
FE00
8100
8080
8080
8080
8100
FE00
8000
8000
8000
8000
8000
ENDCHAR
STARTCHAR 0421
ENCODING 1057
SWIDTH 1020 0
DWIDTH 17 0
BBX 11 12 2 0
BITMAP
1F80
2040
4020
4020
8000
8000
8000
8000
4020
4020
2040
1F80
ENDCHAR
STARTCHAR 0422
ENCODING 1058
SWIDTH 1020 0
DWIDTH 17 0
BBX 12 12 2 0
BITMAP
FFF0
0600
0600
0600
0600
0600
0600
0600
0600
0600
0600
0600
ENDCHAR
STARTCHAR 0423
ENCODING 1059
SWIDTH 1020 0
DWIDTH 17 0
BBX 10 12 3 0
BITMAP
8040
8040
4080
4080
2100
2100
1600
1600
0C00
8C00
9000
6000
ENDCHAR
STARTCHAR 0424
ENCODING 1060
SWIDTH 1020 0
DWIDTH 17 0
BBX 12 12 2 0
BITMAP
0600
0600
1F80
6660
8610
8610
8610
8610
6660
1F80
0600
0600
ENDCHAR
STARTCHAR 0425
ENCODING 1061
SWIDTH 1020 0
DWIDTH 17 0
BBX 12 12 2 0
BITMAP
4020
2040
1080
1080
0B00
0600
0B00
1080
1080
2040
4020
8010
ENDCHAR
STARTCHAR 0426
ENCODING 1062
SWIDTH 1020 0
DWIDTH 17 0
BBX 11 14 3 -2
BITMAP
8080
8080
8080
8080
8080
8080
8080
8080
8080
8080
8080
FFE0
0020
0020
ENDCHAR
STARTCHAR 0427
ENCODING 1063
SWIDTH 1020 0
DWIDTH 17 0
BBX 9 12 3 0
BITMAP
8080
8080
8080
8080
8080
8080
4180
3E80
0080
0080
0080
0080
ENDCHAR
STARTCHAR 0428
ENCODING 1064
SWIDTH 1020 0
DWIDTH 17 0
BBX 12 12 2 0
BITMAP
8610
8610
8610
8610
8610
8610
8610
8610
8610
8610
8610
FFF0
ENDCHAR
STARTCHAR 0429
ENCODING 1065
SWIDTH 1020 0
DWIDTH 17 0
BBX 14 14 2 -2
BITMAP
8610
8610
8610
8610
8610
8610
8610
8610
8610
8610
8610
FFFC
0004
0004
ENDCHAR
STARTCHAR 042A
ENCODING 1066
SWIDTH 1020 0
DWIDTH 17 0
BBX 12 12 2 0
BITMAP
F800
0800
0800
0800
0FC0
0820
0810
0810
0810
0810
0820
0FC0
ENDCHAR
STARTCHAR 042B
ENCODING 1067
SWIDTH 1020 0
DWIDTH 17 0
BBX 12 12 2 0
BITMAP
8010
8010
8010
8010
F810
8610
8310
8310
8310
8310
8610
F810
ENDCHAR
STARTCHAR 042C
ENCODING 1068
SWIDTH 1020 0
DWIDTH 17 0
BBX 9 12 4 0
BITMAP
8000
8000
8000
8000
FE00
8100
8080
8080
8080
8080
8100
FE00
ENDCHAR
STARTCHAR 042D
ENCODING 1069
SWIDTH 1020 0
DWIDTH 17 0
BBX 11 12 3 0
BITMAP
3F00
4080
8040
0040
30A0
4CA0
0720
0020
8040
8040
8080
7F00
ENDCHAR
STARTCHAR 042E
ENCODING 1070
SWIDTH 1020 0
DWIDTH 17 0
BBX 12 12 2 0
BITMAP
87C0
8820
9010
9010
F010
9010
9010
9010
9010
9010
8820
87C0
ENDCHAR
STARTCHAR 042F
ENCODING 1071
SWIDTH 1020 0
DWIDTH 17 0
BBX 10 12 2 0
BITMAP
1FC0
2040
4040
4040
2040
1FC0
1040
1040
1040
2040
2040
C040
ENDCHAR
STARTCHAR 0430
ENCODING 1072
SWIDTH 1020 0
DWIDTH 17 0
BBX 8 8 3 0
BITMAP
7E
01
01
3F
41
81
87
7D
ENDCHAR
STARTCHAR 0431
ENCODING 1073
SWIDTH 1020 0
DWIDTH 17 0
BBX 9 12 3 0
BITMAP
3E00
4000
8000
8000
BE00
C100
8080
8080
8080
8080
4100
3E00
ENDCHAR
STARTCHAR 0432
ENCODING 1074
SWIDTH 1020 0
DWIDTH 17 0
BBX 8 8 4 0
BITMAP
FC
82
82
FE
81
81
81
FE
ENDCHAR
STARTCHAR 0433
ENCODING 1075
SWIDTH 1020 0
DWIDTH 17 0
BBX 8 8 4 0
BITMAP
FF
80
80
80
80
80
80
80
ENDCHAR
STARTCHAR 0434
ENCODING 1076
SWIDTH 1020 0
DWIDTH 17 0
BBX 10 10 3 -2
BITMAP
1F80
1080
1080
1080
1080
2080
2080
FFC0
8040
8040
ENDCHAR
STARTCHAR 0435
ENCODING 1077
SWIDTH 1020 0
DWIDTH 17 0
BBX 9 8 3 0
BITMAP
3E00
4100
8080
FF80
8000
8000
4080
3F00
ENDCHAR
STARTCHAR 0436
ENCODING 1078
SWIDTH 1020 0
DWIDTH 17 0
BBX 10 8 3 0
BITMAP
CCC0
2D00
2D00
1E00
2D00
4C80
8C40
8C40
ENDCHAR
STARTCHAR 0437
ENCODING 1079
SWIDTH 1020 0
DWIDTH 17 0
BBX 9 8 3 0
BITMAP
3E00
4100
4100
1E00
0100
8080
4080
3F00
ENDCHAR
STARTCHAR 0438
ENCODING 1080
SWIDTH 1020 0
DWIDTH 17 0
BBX 8 8 4 0
BITMAP
81
83
8D
99
A1
C1
81
81
ENDCHAR
STARTCHAR 0439
ENCODING 1081
SWIDTH 1020 0
DWIDTH 17 0
BBX 8 12 4 0
BITMAP
42
3C
00
00
81
83
8D
99
A1
C1
81
81
ENDCHAR
STARTCHAR 043A
ENCODING 1082
SWIDTH 1020 0
DWIDTH 17 0
BBX 9 8 4 0
BITMAP
8300
8C00
9800
E000
9C00
8200
8100
8080
ENDCHAR
STARTCHAR 043B
ENCODING 1083
SWIDTH 1020 0
DWIDTH 17 0
BBX 10 8 2 0
BITMAP
0FC0
0840
0840
0840
0840
8840
9040
6040
ENDCHAR
STARTCHAR 043C
ENCODING 1084
SWIDTH 1020 0
DWIDTH 17 0
BBX 10 8 3 0
BITMAP
8040
C0C0
A140
A140
9640
9640
8C40
8040
ENDCHAR
STARTCHAR 043D
ENCODING 1085
SWIDTH 1020 0
DWIDTH 17 0
BBX 8 8 4 0
BITMAP
81
81
81
FF
81
81
81
81
ENDCHAR
STARTCHAR 043E
ENCODING 1086
SWIDTH 1020 0
DWIDTH 17 0
BBX 9 8 3 0
BITMAP
3E00
4100
8080
8080
8080
8080
4100
3E00
ENDCHAR
STARTCHAR 043F
ENCODING 1087
SWIDTH 1020 0
DWIDTH 17 0
BBX 8 8 4 0
BITMAP
FF
81
81
81
81
81
81
81
ENDCHAR
STARTCHAR 0440
ENCODING 1088
SWIDTH 1020 0
DWIDTH 17 0
BBX 8 10 4 -2
BITMAP
BC
C2
81
81
81
C2
BC
80
80
80
ENDCHAR
STARTCHAR 0441
ENCODING 1089
SWIDTH 1020 0
DWIDTH 17 0
BBX 9 8 3 0
BITMAP
3E00
4100
8080
8000
8000
8080
4100
3E00
ENDCHAR
STARTCHAR 0442
ENCODING 1090
SWIDTH 1020 0
DWIDTH 17 0
BBX 10 8 3 0
BITMAP
FFC0
0C00
0C00
0C00
0C00
0C00
0C00
0C00
ENDCHAR
STARTCHAR 0443
ENCODING 1091
SWIDTH 1020 0
DWIDTH 17 0
BBX 9 10 3 -2
BITMAP
4080
4080
2100
2100
1600
1600
0C00
8C00
9000
6000
ENDCHAR
STARTCHAR 0444
ENCODING 1092
SWIDTH 1020 0
DWIDTH 17 0
BBX 12 16 2 -2
BITMAP
0600
0600
0600
0600
0600
0600
36C0
4F20
8610
8610
8610
4F20
36C0
0600
0600
0600
ENDCHAR
STARTCHAR 0445
ENCODING 1093
SWIDTH 1020 0
DWIDTH 17 0
BBX 10 8 3 0
BITMAP
4080
2100
1600
0C00
1600
2100
4080
8040
ENDCHAR
STARTCHAR 0446
ENCODING 1094
SWIDTH 1020 0
DWIDTH 17 0
BBX 10 10 4 -2
BITMAP
8100
8100
8100
8100
8100
8100
8100
FFC0
0040
0040
ENDCHAR
STARTCHAR 0447
ENCODING 1095
SWIDTH 1020 0
DWIDTH 17 0
BBX 8 8 4 0
BITMAP
81
81
81
83
7D
01
01
01
ENDCHAR
STARTCHAR 0448
ENCODING 1096
SWIDTH 1020 0
DWIDTH 17 0
BBX 10 8 3 0
BITMAP
8C40
8C40
8C40
8C40
8C40
8C40
8C40
FFC0
ENDCHAR
STARTCHAR 0449
ENCODING 1097
SWIDTH 1020 0
DWIDTH 17 0
BBX 11 10 3 -2
BITMAP
8C40
8C40
8C40
8C40
8C40
8C40
8C40
FFE0
0020
0020
ENDCHAR
STARTCHAR 044A
ENCODING 1098
SWIDTH 1020 0
DWIDTH 17 0
BBX 11 8 2 0
BITMAP
F800
0800
0800
0FC0
0820
0820
0820
0FC0
ENDCHAR
STARTCHAR 044B
ENCODING 1099
SWIDTH 1020 0
DWIDTH 17 0
BBX 10 8 3 0
BITMAP
8040
8040
8040
FC40
8640
8640
8640
FC40
ENDCHAR
STARTCHAR 044C
ENCODING 1100
SWIDTH 1020 0
DWIDTH 17 0
BBX 7 8 5 0
BITMAP
80
80
80
FC
82
82
82
FC
ENDCHAR
STARTCHAR 044D
ENCODING 1101
SWIDTH 1020 0
DWIDTH 17 0
BBX 9 8 3 0
BITMAP
7E00
8100
0080
3180
4E80
0080
8100
7E00
ENDCHAR
STARTCHAR 044E
ENCODING 1102
SWIDTH 1020 0
DWIDTH 17 0
BBX 10 8 3 0
BITMAP
8F80
9040
9040
F040
9040
9040
9040
8F80
ENDCHAR
STARTCHAR 044F
ENCODING 1103
SWIDTH 1020 0
DWIDTH 17 0
BBX 9 8 3 0
BITMAP
3F80
4080
4080
3F80
1080
1080
2080
C080
ENDCHAR
STARTCHAR 0451
ENCODING 1105
SWIDTH 1020 0
DWIDTH 17 0
BBX 9 11 3 0
BITMAP
2600
2600
0000
3E00
4100
8080
FF80
8000
8000
4080
3F00
ENDCHAR
STARTCHAR 2000
ENCODING 8192
SWIDTH 1020 0
DWIDTH 17 0
BBX 0 0 0 0
BITMAP
ENDCHAR
STARTCHAR 2001
ENCODING 8193
SWIDTH 1020 0
DWIDTH 17 0
BBX 0 0 0 0
BITMAP
ENDCHAR
STARTCHAR 2002
ENCODING 8194
SWIDTH 1020 0
DWIDTH 17 0
BBX 0 0 0 0
BITMAP
ENDCHAR
STARTCHAR 2003
ENCODING 8195
SWIDTH 1020 0
DWIDTH 17 0
BBX 0 0 0 0
BITMAP
ENDCHAR
STARTCHAR 2004
ENCODING 8196
SWIDTH 1020 0
DWIDTH 17 0
BBX 0 0 0 0
BITMAP
ENDCHAR
STARTCHAR 2005
ENCODING 8197
SWIDTH 1020 0
DWIDTH 17 0
BBX 0 0 0 0
BITMAP
ENDCHAR
STARTCHAR 2006
ENCODING 8198
SWIDTH 1020 0
DWIDTH 17 0
BBX 0 0 0 0
BITMAP
ENDCHAR
STARTCHAR 2007
ENCODING 8199
SWIDTH 1020 0
DWIDTH 17 0
BBX 0 0 0 0
BITMAP
ENDCHAR
STARTCHAR 2008
ENCODING 8200
SWIDTH 1020 0
DWIDTH 17 0
BBX 0 0 0 0
BITMAP
ENDCHAR
STARTCHAR 2009
ENCODING 8201
SWIDTH 1020 0
DWIDTH 17 0
BBX 0 0 0 0
BITMAP
ENDCHAR
STARTCHAR 200A
ENCODING 8202
SWIDTH 1020 0
DWIDTH 17 0
BBX 0 0 0 0
BITMAP
ENDCHAR
STARTCHAR 200B
ENCODING 8203
SWIDTH 540 0
DWIDTH 9 0
BBX 0 0 0 0
BITMAP
ENDCHAR
STARTCHAR 200C
ENCODING 8204
SWIDTH 540 0
DWIDTH 9 0
BBX 0 0 0 0
BITMAP
ENDCHAR
STARTCHAR 200D
ENCODING 8205
SWIDTH 540 0
DWIDTH 9 0
BBX 0 0 0 0
BITMAP
ENDCHAR
STARTCHAR 200E
ENCODING 8206
SWIDTH 540 0
DWIDTH 9 0
BBX 0 0 0 0
BITMAP
ENDCHAR
STARTCHAR 200F
ENCODING 8207
SWIDTH 540 0
DWIDTH 9 0
BBX 0 0 0 0
BITMAP
ENDCHAR
STARTCHAR 2010
ENCODING 8208
SWIDTH 1020 0
DWIDTH 17 0
BBX 6 1 5 6
BITMAP
FC
ENDCHAR
STARTCHAR 2015
ENCODING 8213
SWIDTH 1020 0
DWIDTH 17 0
BBX 16 1 0 6
BITMAP
FFFF
ENDCHAR
STARTCHAR 2016
ENCODING 8214
SWIDTH 1020 0
DWIDTH 17 0
BBX 6 17 5 -2
BITMAP
84
84
84
84
84
84
84
84
84
84
84
84
84
84
84
84
84
ENDCHAR
STARTCHAR 2018
ENCODING 8216
SWIDTH 1020 0
DWIDTH 17 0
BBX 2 6 13 9
BITMAP
40
80
80
80
C0
40
ENDCHAR
STARTCHAR 2019
ENCODING 8217
SWIDTH 1020 0
DWIDTH 17 0
BBX 2 6 1 9
BITMAP
80
C0
C0
40
40
80
ENDCHAR
STARTCHAR 201C
ENCODING 8220
SWIDTH 1020 0
DWIDTH 17 0
BBX 5 6 10 9
BITMAP
48
90
90
90
D8
48
ENDCHAR
STARTCHAR 201D
ENCODING 8221
SWIDTH 1020 0
DWIDTH 17 0
BBX 5 6 1 9
BITMAP
90
D8
D8
48
48
90
ENDCHAR
STARTCHAR 2020
ENCODING 8224
SWIDTH 1020 0
DWIDTH 17 0
BBX 10 17 3 -2
BITMAP
0C00
1E00
1E00
1E00
0C00
4C80
FFC0
4C80
0C00
1E00
3F00
1E00
0C00
0C00
0C00
0C00
0C00
ENDCHAR
STARTCHAR 2021
ENCODING 8225
SWIDTH 1020 0
DWIDTH 17 0
BBX 10 17 3 -2
BITMAP
1E00
0C00
0C00
4C80
FFC0
4C80
0C00
1E00
0C00
0C00
1E00
0C00
4C80
FFC0
4C80
0C00
1E00
ENDCHAR
STARTCHAR 2025
ENCODING 8229
SWIDTH 1020 0
DWIDTH 17 0
BBX 14 3 1 5
BITMAP
4008
E01C
4008
ENDCHAR
STARTCHAR 2026
ENCODING 8230
SWIDTH 1020 0
DWIDTH 17 0
BBX 16 3 0 5
BITMAP
4182
E3C7
4182
ENDCHAR
STARTCHAR 2030
ENCODING 8240
SWIDTH 1020 0
DWIDTH 17 0
BBX 16 16 0 -1
BITMAP
6008
9010
9010
9020
90C0
9180
9200
6400
0800
1386
24C9
44C9
84C9
04C9
04C9
0386
ENDCHAR
STARTCHAR 2032
ENCODING 8242
SWIDTH 1020 0
DWIDTH 17 0
BBX 4 6 0 9
BITMAP
30
20
20
40
40
80
ENDCHAR
STARTCHAR 2033
ENCODING 8243
SWIDTH 1020 0
DWIDTH 17 0
BBX 7 6 0 9
BITMAP
36
24
24
48
48
90
ENDCHAR
STARTCHAR 203B
ENCODING 8251
SWIDTH 1020 0
DWIDTH 17 0
BBX 14 14 1 0
BITMAP
8304
8304
4788
2310
1020
0840
4588
E31C
4588
0840
1020
2310
4788
8304
ENDCHAR
STARTCHAR 203E
ENCODING 8254
SWIDTH 540 0
DWIDTH 9 0
BBX 7 2 0 12
BITMAP
FE
FE
ENDCHAR
STARTCHAR 2103
ENCODING 8451
SWIDTH 1020 0
DWIDTH 17 0
BBX 13 14 1 0
BITMAP
6000
6000
93E0
9410
6808
0808
1000
1000
1000
1008
0808
0808
0410
03E0
ENDCHAR
STARTCHAR 2116
ENCODING 8470
SWIDTH 1020 0
DWIDTH 17 0
BBX 15 13 1 -1
BITMAP
8400
8400
C400
A400
A438
A444
9444
9444
9444
8C44
8444
843A
0002
ENDCHAR
STARTCHAR 2121
ENCODING 8481
SWIDTH 1020 0
DWIDTH 17 0
BBX 16 12 0 0
BITMAP
FE00
1000
1000
1000
1000
13E8
1208
1208
13C8
1208
1208
13EF
ENDCHAR
STARTCHAR 212B
ENCODING 8491
SWIDTH 1020 0
DWIDTH 17 0
BBX 12 15 2 0
BITMAP
0F00
1080
1080
1080
0F00
0B00
0B00
1080
1080
2040
2040
7FE0
4020
8010
8010
ENDCHAR
STARTCHAR 2160
ENCODING 8544
SWIDTH 1020 0
DWIDTH 17 0
BBX 6 14 5 0
BITMAP
FC
FC
30
30
30
30
30
30
30
30
30
30
30
FC
ENDCHAR
STARTCHAR 2161
ENCODING 8545
SWIDTH 1020 0
DWIDTH 17 0
BBX 10 14 3 0
BITMAP
FFC0
FFC0
2100
2100
2100
2100
2100
2100
2100
2100
2100
2100
2100
FFC0
ENDCHAR
STARTCHAR 2162
ENCODING 8546
SWIDTH 1020 0
DWIDTH 17 0
BBX 14 14 1 0
BITMAP
FFFC
FFFC
2310
2310
2310
2310
2310
2310
2310
2310
2310
2310
2310
FFFC
ENDCHAR
STARTCHAR 2163
ENCODING 8547
SWIDTH 1020 0
DWIDTH 17 0
BBX 15 14 1 0
BITMAP
FFBE
FFBE
2408
2408
2408
2310
2310
2310
21A0
21A0
21A0
2040
2040
F840
ENDCHAR
STARTCHAR 2164
ENCODING 8548
SWIDTH 1020 0
DWIDTH 17 0
BBX 12 14 2 0
BITMAP
FBF0
FBF0
2040
2040
2040
1080
1080
1080
0B00
0B00
0B00
0600
0600
0600
ENDCHAR
STARTCHAR 2165
ENCODING 8549
SWIDTH 1020 0
DWIDTH 17 0
BBX 15 14 0 0
BITMAP
FBFE
FBFE
20C8
20C8
20C8
1188
1188
1188
0A08
0A08
0A08
0408
0408
043E
ENDCHAR
STARTCHAR 2166
ENCODING 8550
SWIDTH 1020 0
DWIDTH 17 0
BBX 16 14 0 0
BITMAP
F7FF
F7FF
2224
2224
2224
2224
1424
1424
1424
1424
0824
0824
0824
09FF
ENDCHAR
STARTCHAR 2167
ENCODING 8551
SWIDTH 1020 0
DWIDTH 17 0
BBX 16 14 0 0
BITMAP
EFFF
EFFF
4592
4592
4592
4592
2992
2992
2992
2992
1192
1192
1192
13FF
ENDCHAR
STARTCHAR 2168
ENCODING 8552
SWIDTH 1020 0
DWIDTH 17 0
BBX 15 14 1 0
BITMAP
FF9E
FF9E
2408
2408
2310
21A0
21A0
2040
21A0
21A0
2310
2408
2408
FFBE
ENDCHAR
STARTCHAR 2169
ENCODING 8553
SWIDTH 1020 0
DWIDTH 17 0
BBX 12 14 2 0
BITMAP
FBF0
FBF0
2040
2040
1080
0B00
0B00
0600
0B00
0B00
1080
2040
2040
FBF0
ENDCHAR
STARTCHAR 2190
ENCODING 8592
SWIDTH 1020 0
DWIDTH 17 0
BBX 16 7 0 3
BITMAP
1000
2000
4000
FFFF
4000
2000
1000
ENDCHAR
STARTCHAR 2191
ENCODING 8593
SWIDTH 1020 0
DWIDTH 17 0
BBX 8 17 4 -2
BITMAP
18
3C
3C
5A
99
18
18
18
18
18
18
18
18
18
18
18
18
ENDCHAR
STARTCHAR 2192
ENCODING 8594
SWIDTH 1020 0
DWIDTH 17 0
BBX 16 7 0 3
BITMAP
0008
0004
0002
FFFF
0002
0004
0008
ENDCHAR
STARTCHAR 2193
ENCODING 8595
SWIDTH 1020 0
DWIDTH 17 0
BBX 8 17 4 -2
BITMAP
18
18
18
18
18
18
18
18
18
18
18
18
18
99
5A
3C
18
ENDCHAR
STARTCHAR 21D2
ENCODING 8658
SWIDTH 1020 0
DWIDTH 17 0
BBX 14 9 1 2
BITMAP
0040
0020
FFF0
0008
0004
0008
FFF0
0020
0040
ENDCHAR
STARTCHAR 21D4
ENCODING 8660
SWIDTH 1020 0
DWIDTH 17 0
BBX 15 9 0 2
BITMAP
0820
1010
3FF8
4004
8002
4004
3FF8
1010
0820
ENDCHAR
STARTCHAR 2200
ENCODING 8704
SWIDTH 1020 0
DWIDTH 17 0
BBX 12 15 2 -1
BITMAP
8010
8010
8010
4020
4020
7FE0
2040
2040
1080
1080
1080
0B00
0B00
0600
0600
ENDCHAR
STARTCHAR 2202
ENCODING 8706
SWIDTH 1020 0
DWIDTH 17 0
BBX 10 13 2 -1
BITMAP
0F00
1080
0040
0040
0040
1E40
2340
4080
4080
8300
8300
4600
3800
ENDCHAR
STARTCHAR 2203
ENCODING 8707
SWIDTH 1020 0
DWIDTH 17 0
BBX 12 11 2 1
BITMAP
FFF0
0010
0010
0010
0010
FFF0
0010
0010
0010
0010
FFF0
ENDCHAR
STARTCHAR 2207
ENCODING 8711
SWIDTH 1020 0
DWIDTH 17 0
BBX 12 10 2 1
BITMAP
FFF0
7FE0
6020
2040
3040
1080
1880
0B00
0F00
0600
ENDCHAR
STARTCHAR 2208
ENCODING 8712
SWIDTH 1020 0
DWIDTH 17 0
BBX 12 9 2 2
BITMAP
3FF0
4000
8000
8000
FFF0
8000
8000
4000
3FF0
ENDCHAR
STARTCHAR 220B
ENCODING 8715
SWIDTH 1020 0
DWIDTH 17 0
BBX 12 9 2 2
BITMAP
FFC0
0020
0010
0010
FFF0
0010
0010
0020
FFC0
ENDCHAR
STARTCHAR 2211
ENCODING 8721
SWIDTH 1020 0
DWIDTH 17 0
BBX 11 12 3 0
BITMAP
FFE0
4000
2000
1000
0C00
0600
0C00
1000
2000
4000
8000
FFE0
ENDCHAR
STARTCHAR 2212
ENCODING 8722
SWIDTH 1020 0
DWIDTH 17 0
BBX 12 1 2 6
BITMAP
FFF0
ENDCHAR
STARTCHAR 221A
ENCODING 8730
SWIDTH 1020 0
DWIDTH 17 0
BBX 14 16 0 -1
BITMAP
00FC
00C0
00C0
00C0
0180
0180
0180
0180
4200
4200
A200
A400
1400
1400
0800
0800
ENDCHAR
STARTCHAR 221D
ENCODING 8733
SWIDTH 1020 0
DWIDTH 17 0
BBX 13 7 1 3
BITMAP
3030
4848
8580
8300
8580
4848
3030
ENDCHAR
STARTCHAR 221E
ENCODING 8734
SWIDTH 1020 0
DWIDTH 17 0
BBX 14 7 1 3
BITMAP
3030
4848
8584
8304
8584
4848
3030
ENDCHAR
STARTCHAR 221F
ENCODING 8735
SWIDTH 1020 0
DWIDTH 17 0
BBX 13 13 2 1
BITMAP
8000
8000
8000
8000
8000
8000
8000
8000
8000
8000
8000
8000
FFF8
ENDCHAR
STARTCHAR 2220
ENCODING 8736
SWIDTH 1020 0
DWIDTH 17 0
BBX 13 11 2 1
BITMAP
0010
0020
0040
0080
0300
0600
0800
1000
2000
4000
FFF8
ENDCHAR
STARTCHAR 2227
ENCODING 8743
SWIDTH 1020 0
DWIDTH 17 0
BBX 14 14 1 -2
BITMAP
0300
0300
0580
0580
0840
0840
1020
1020
2010
2010
4008
4008
8004
8004
ENDCHAR
STARTCHAR 2228
ENCODING 8744
SWIDTH 1020 0
DWIDTH 17 0
BBX 14 15 1 0
BITMAP
8004
8004
8004
4008
4008
2010
2010
1020
1020
0840
0840
0580
0580
0300
0300
ENDCHAR
STARTCHAR 2229
ENCODING 8745
SWIDTH 1020 0
DWIDTH 17 0
BBX 10 15 3 -1
BITMAP
1E00
1E00
2100
4080
8040
8040
8040
8040
8040
8040
8040
8040
8040
8040
8040
ENDCHAR
STARTCHAR 222A
ENCODING 8746
SWIDTH 1020 0
DWIDTH 17 0
BBX 10 15 3 -1
BITMAP
8040
8040
8040
8040
8040
8040
8040
8040
8040
8040
8040
8040
4080
2100
1E00
ENDCHAR
STARTCHAR 222B
ENCODING 8747
SWIDTH 1020 0
DWIDTH 17 0
BBX 5 17 6 -2
BITMAP
70
88
88
88
80
80
60
60
60
30
30
30
08
08
88
88
70
ENDCHAR
STARTCHAR 222C
ENCODING 8748
SWIDTH 1020 0
DWIDTH 17 0
BBX 10 17 3 -2
BITMAP
6180
9640
9640
9640
8600
8600
4100
4100
4100
2080
2080
2080
1040
1040
9640
9640
6180
ENDCHAR
STARTCHAR 222E
ENCODING 8750
SWIDTH 1020 0
DWIDTH 17 0
BBX 7 17 5 -2
BITMAP
38
44
44
44
40
40
7C
B2
B2
9A
7C
18
04
04
44
44
38
ENDCHAR
STARTCHAR 2234
ENCODING 8756
SWIDTH 1020 0
DWIDTH 17 0
BBX 12 10 2 1
BITMAP
0600
0F00
0600
0000
0000
0000
0000
4020
E070
4020
ENDCHAR
STARTCHAR 2235
ENCODING 8757
SWIDTH 1020 0
DWIDTH 17 0
BBX 12 10 2 1
BITMAP
4020
E070
4020
0000
0000
0000
0000
0600
0F00
0600
ENDCHAR
STARTCHAR 223D
ENCODING 8765
SWIDTH 1020 0
DWIDTH 17 0
BBX 14 7 1 3
BITMAP
3030
4848
8184
8304
8404
4848
3030
ENDCHAR
STARTCHAR 2252
ENCODING 8786
SWIDTH 1020 0
DWIDTH 17 0
BBX 12 15 2 -1
BITMAP
2000
2000
7000
2000
0000
0000
FFF0
0000
0000
FFF0
0000
0000
0040
00E0
0040
ENDCHAR
STARTCHAR 2260
ENCODING 8800
SWIDTH 1020 0
DWIDTH 17 0
BBX 12 12 2 0
BITMAP
0040
0080
0080
0300
FFF0
0600
0600
FFF0
0800
1000
1000
2000
ENDCHAR
STARTCHAR 2261
ENCODING 8801
SWIDTH 1020 0
DWIDTH 17 0
BBX 12 7 2 3
BITMAP
FFF0
0000
0000
FFF0
0000
0000
FFF0
ENDCHAR
STARTCHAR 2266
ENCODING 8806
SWIDTH 1020 0
DWIDTH 17 0
BBX 12 14 2 0
BITMAP
0030
0030
03C0
0E00
3000
C000
3000
0E00
03C0
0030
0000
FFF0
0000
FFF0
ENDCHAR
STARTCHAR 2267
ENCODING 8807
SWIDTH 1020 0
DWIDTH 17 0
BBX 12 14 2 0
BITMAP
C000
C000
3800
0700
00C0
0030
00C0
0700
3800
C000
0000
FFF0
0000
FFF0
ENDCHAR
STARTCHAR 226A
ENCODING 8810
SWIDTH 1020 0
DWIDTH 17 0
BBX 13 14 2 0
BITMAP
0060
0060
0080
0718
0820
30C0
4300
8600
4300
30C0
0820
0718
0080
0060
ENDCHAR
STARTCHAR 226B
ENCODING 8811
SWIDTH 1020 0
DWIDTH 17 0
BBX 13 14 1 0
BITMAP
3000
3000
0800
C700
2180
1860
0410
0308
0410
1860
2180
C700
0800
3000
ENDCHAR
STARTCHAR 2282
ENCODING 8834
SWIDTH 1020 0
DWIDTH 17 0
BBX 12 9 2 2
BITMAP
3FF0
4000
8000
8000
8000
8000
8000
4000
3FF0
ENDCHAR
STARTCHAR 2283
ENCODING 8835
SWIDTH 1020 0
DWIDTH 17 0
BBX 12 9 2 2
BITMAP
FFC0
0020
0010
0010
0010
0010
0010
0020
FFC0
ENDCHAR
STARTCHAR 2286
ENCODING 8838
SWIDTH 1020 0
DWIDTH 17 0
BBX 12 11 2 1
BITMAP
3FF0
4000
8000
8000
8000
8000
4000
3FF0
0000
0000
FFF0
ENDCHAR
STARTCHAR 2287
ENCODING 8839
SWIDTH 1020 0
DWIDTH 17 0
BBX 12 11 2 1
BITMAP
FFC0
0020
0010
0010
0010
0010
0020
FFC0
0000
0000
FFF0
ENDCHAR
STARTCHAR 22A5
ENCODING 8869
SWIDTH 1020 0
DWIDTH 17 0
BBX 14 13 1 1
BITMAP
0300
0300
0300
0300
0300
0300
0300
0300
0300
0300
0300
0300
FFFC
ENDCHAR
STARTCHAR 22BF
ENCODING 8895
SWIDTH 1020 0
DWIDTH 17 0
BBX 12 11 2 1
BITMAP
0010
0030
0050
0090
0310
0610
0810
1010
2010
4010
FFF0
ENDCHAR
STARTCHAR 2312
ENCODING 8978
SWIDTH 1020 0
DWIDTH 17 0
BBX 14 4 1 8
BITMAP
0FC0
3030
4008
8004
ENDCHAR
STARTCHAR 2460
ENCODING 9312
SWIDTH 1020 0
DWIDTH 17 0
BBX 16 17 0 -2
BITMAP
07E0
1818
1818
2184
4382
4582
8181
8181
8181
8181
8181
8181
4182
4182
2004
1818
07E0
ENDCHAR
STARTCHAR 2461
ENCODING 9313
SWIDTH 1020 0
DWIDTH 17 0
BBX 16 17 0 -2
BITMAP
07E0
1818
1818
2004
47C2
4822
8821
8021
80C1
8181
8201
8401
4802
4FE2
2004
1818
07E0
ENDCHAR
STARTCHAR 2462
ENCODING 9314
SWIDTH 1020 0
DWIDTH 17 0
BBX 16 17 0 -2
BITMAP
07E0
1818
1818
2004
47C2
4822
8821
8021
83C1
8021
8021
8821
4822
47C2
2004
1818
07E0
ENDCHAR
STARTCHAR 2463
ENCODING 9315
SWIDTH 1020 0
DWIDTH 17 0
BBX 16 17 0 -2
BITMAP
07E0
1818
1818
2004
40C2
41C2
82C1
82C1
84C1
88C1
9FF1
80C1
40C2
40C2
2004
1818
07E0
ENDCHAR
STARTCHAR 2464
ENCODING 9316
SWIDTH 1020 0
DWIDTH 17 0
BBX 16 17 0 -2
BITMAP
07E0
1818
1818
2004
4FE2
4802
8801
8801
8FC1
8821
8021
8821
4822
47C2
2004
1818
07E0
ENDCHAR
STARTCHAR 2465
ENCODING 9317
SWIDTH 1020 0
DWIDTH 17 0
BBX 16 17 0 -2
BITMAP
07E0
1818
1818
2004
47C2
4822
8821
8801
8FC1
8821
8821
8821
4822
47C2
2004
1818
07E0
ENDCHAR
STARTCHAR 2466
ENCODING 9318
SWIDTH 1020 0
DWIDTH 17 0
BBX 16 17 0 -2
BITMAP
07E0
1818
1818
2004
4FE2
4022
8021
80C1
80C1
8181
8181
8201
4202
4202
2004
1818
07E0
ENDCHAR
STARTCHAR 2467
ENCODING 9319
SWIDTH 1020 0
DWIDTH 17 0
BBX 16 17 0 -2
BITMAP
07E0
1818
1818
2004
47C2
4822
8821
8821
87C1
8821
8821
8821
4822
47C2
2004
1818
07E0
ENDCHAR
STARTCHAR 2468
ENCODING 9320
SWIDTH 1020 0
DWIDTH 17 0
BBX 16 17 0 -2
BITMAP
07E0
1818
1818
2004
47C2
4822
8821
8821
8821
87E1
8021
8821
4822
47C2
2004
1818
07E0
ENDCHAR
STARTCHAR 2469
ENCODING 9321
SWIDTH 1020 0
DWIDTH 17 0
BBX 16 17 0 -2
BITMAP
07E0
1818
1818
2004
48F2
598A
A989
8989
8989
8989
8989
8989
498A
48F2
2004
1818
07E0
ENDCHAR
STARTCHAR 246A
ENCODING 9322
SWIDTH 1020 0
DWIDTH 17 0
BBX 16 17 0 -2
BITMAP
07E0
1818
1818
2004
4422
4CE2
95A1
8421
8421
8421
8421
8421
4422
4422
2004
1818
07E0
ENDCHAR
STARTCHAR 246B
ENCODING 9323
SWIDTH 1020 0
DWIDTH 17 0
BBX 16 17 0 -2
BITMAP
07E0
1818
1818
2004
48F2
598A
A989
8809
8811
8821
88C1
8981
4982
49FA
2004
1818
07E0
ENDCHAR
STARTCHAR 246C
ENCODING 9324
SWIDTH 1020 0
DWIDTH 17 0
BBX 16 17 0 -2
BITMAP
07E0
1818
1818
2004
48F2
598A
A989
8809
8831
8809
8809
8989
498A
48F2
2004
1818
07E0
ENDCHAR
STARTCHAR 246D
ENCODING 9325
SWIDTH 1020 0
DWIDTH 17 0
BBX 16 17 0 -2
BITMAP
07E0
1818
1818
2004
4812
5832
A8D1
88D1
8991
8A11
8BF9
8811
4812
4812
2004
1818
07E0
ENDCHAR
STARTCHAR 246E
ENCODING 9326
SWIDTH 1020 0
DWIDTH 17 0
BBX 16 17 0 -2
BITMAP
07E0
1818
1818
2004
49F2
5982
A981
8981
89F1
8989
8809
8989
498A
48F2
2004
1818
07E0
ENDCHAR
STARTCHAR 246F
ENCODING 9327
SWIDTH 1020 0
DWIDTH 17 0
BBX 16 17 0 -2
BITMAP
07E0
1818
1818
2004
48F2
598A
A989
8981
89F1
8989
8989
8989
498A
48F2
2004
1818
07E0
ENDCHAR
STARTCHAR 2470
ENCODING 9328
SWIDTH 1020 0
DWIDTH 17 0
BBX 16 17 0 -2
BITMAP
07E0
1818
1818
2004
49FA
580A
A809
8811
8811
8821
8821
88C1
48C2
48C2
2004
1818
07E0
ENDCHAR
STARTCHAR 2471
ENCODING 9329
SWIDTH 1020 0
DWIDTH 17 0
BBX 16 17 0 -2
BITMAP
07E0
1818
1818
2004
48F2
598A
A989
8989
88F1
8989
8989
8989
498A
48F2
2004
1818
07E0
ENDCHAR
STARTCHAR 2472
ENCODING 9330
SWIDTH 1020 0
DWIDTH 17 0
BBX 16 17 0 -2
BITMAP
07E0
1818
1818
2004
48F2
598A
A989
8989
8989
88F9
8809
8989
498A
48F2
2004
1818
07E0
ENDCHAR
STARTCHAR 2473
ENCODING 9331
SWIDTH 1020 0
DWIDTH 17 0
BBX 16 17 0 -2
BITMAP
07E0
1818
1818
2004
4C32
52CA
92C9
82C9
82C9
84C9
88C9
90C9
50CA
5E32
2004
1818
07E0
ENDCHAR
STARTCHAR 2581
ENCODING 9601
SWIDTH 1020 0
DWIDTH 17 0
BBX 7 17 0 -2
BITMAP
80
80
80
40
40
20
20
20
10
10
08
08
08
04
04
02
02
ENDCHAR
STARTCHAR 2582
ENCODING 9602
SWIDTH 1020 0
DWIDTH 17 0
BBX 7 3 0 11
BITMAP
72
72
9C
ENDCHAR
STARTCHAR 2583
ENCODING 9603
SWIDTH 1020 0
DWIDTH 17 0
BBX 1 11 3 1
BITMAP
80
80
80
80
00
00
00
80
80
80
80
ENDCHAR
STARTCHAR 2587
ENCODING 9607
SWIDTH 1020 0
DWIDTH 17 0
BBX 7 16 0 -1
BITMAP
30
14
14
1C
70
20
20
58
6A
CE
88
18
20
20
24
1C
ENDCHAR
STARTCHAR 2588
ENCODING 9608
SWIDTH 1020 0
DWIDTH 17 0
BBX 7 10 0 -2
BITMAP
20
28
F8
24
3E
64
BA
92
AA
4C
ENDCHAR
STARTCHAR 2589
ENCODING 9609
SWIDTH 1020 0
DWIDTH 17 0
BBX 7 10 0 -2
BITMAP
30
10
16
18
10
10
70
98
96
62
ENDCHAR
STARTCHAR 258A
ENCODING 9610
SWIDTH 1020 0
DWIDTH 17 0
BBX 7 10 0 -2
BITMAP
10
C8
5C
AA
CA
AA
DC
10
10
20
ENDCHAR
STARTCHAR 258B
ENCODING 9611
SWIDTH 1020 0
DWIDTH 17 0
BBX 7 10 0 -2
BITMAP
0C
68
4C
32
EA
2C
20
10
10
10
ENDCHAR
STARTCHAR 258C
ENCODING 9612
SWIDTH 1020 0
DWIDTH 17 0
BBX 7 9 0 -1
BITMAP
24
22
FA
20
20
3C
62
A2
6C
ENDCHAR
STARTCHAR 258D
ENCODING 9613
SWIDTH 1020 0
DWIDTH 17 0
BBX 7 11 0 -2
BITMAP
20
18
04
5C
64
08
10
30
28
C8
8E
ENDCHAR
STARTCHAR 258E
ENCODING 9614
SWIDTH 1020 0
DWIDTH 17 0
BBX 6 11 0 -2
BITMAP
20
18
00
B8
C4
04
04
08
08
10
20
ENDCHAR
STARTCHAR 258F
ENCODING 9615
SWIDTH 1020 0
DWIDTH 17 0
BBX 7 8 0 -1
BITMAP
80
84
82
82
86
50
60
20
ENDCHAR
STARTCHAR 25A0
ENCODING 9632
SWIDTH 1020 0
DWIDTH 17 0
BBX 16 17 0 -2
BITMAP
FFFF
FFFF
FFFF
FFFF
FFFF
FFFF
FFFF
FFFF
FFFF
FFFF
FFFF
FFFF
FFFF
FFFF
FFFF
FFFF
FFFF
ENDCHAR
STARTCHAR 25A1
ENCODING 9633
SWIDTH 1020 0
DWIDTH 17 0
BBX 16 17 0 -2
BITMAP
FFFF
8001
8001
8001
8001
8001
8001
8001
8001
8001
8001
8001
8001
8001
8001
8001
FFFF
ENDCHAR
STARTCHAR 25B2
ENCODING 9650
SWIDTH 1020 0
DWIDTH 17 0
BBX 16 16 0 -1
BITMAP
0180
0180
0180
03C0
03C0
07E0
07E0
0FF0
0FF0
1FF8
1FF8
3FFC
3FFC
7FFE
7FFE
FFFF
ENDCHAR
STARTCHAR 25B3
ENCODING 9651
SWIDTH 1020 0
DWIDTH 17 0
BBX 16 16 0 -1
BITMAP
0180
0180
0180
02C0
02C0
0420
0420
0810
0810
1008
1008
2004
2004
4002
4002
FFFF
ENDCHAR
STARTCHAR 25BC
ENCODING 9660
SWIDTH 1020 0
DWIDTH 17 0
BBX 16 16 0 -2
BITMAP
FFFF
FFFF
7FFE
7FFE
3FFC
3FFC
1FF8
1FF8
0FF0
0FF0
07E0
07E0
03C0
03C0
0180
0180
ENDCHAR
STARTCHAR 25BD
ENCODING 9661
SWIDTH 1020 0
DWIDTH 17 0
BBX 16 16 0 -2
BITMAP
FFFF
FFFF
4002
4002
2004
2004
1008
1008
0810
0810
0420
0420
02C0
02C0
0180
0180
ENDCHAR
STARTCHAR 25C6
ENCODING 9670
SWIDTH 1020 0
DWIDTH 17 0
BBX 16 17 0 -2
BITMAP
0180
03C0
03C0
07E0
0FF0
1FF8
3FFC
7FFE
FFFF
FFFF
7FFE
3FFC
1FF8
0FF0
07E0
03C0
0180
ENDCHAR
STARTCHAR 25C7
ENCODING 9671
SWIDTH 1020 0
DWIDTH 17 0
BBX 16 16 0 -1
BITMAP
0180
02C0
02C0
0420
0810
1008
2004
4002
8001
4002
2004
1008
0810
0420
02C0
0180
ENDCHAR
STARTCHAR 25CB
ENCODING 9675
SWIDTH 1020 0
DWIDTH 17 0
BBX 16 17 0 -2
BITMAP
07E0
1818
1818
2004
4002
4002
8001
8001
8001
8001
8001
8001
4002
4002
2004
1818
07E0
ENDCHAR
STARTCHAR 25CE
ENCODING 9678
SWIDTH 1020 0
DWIDTH 17 0
BBX 16 17 0 -2
BITMAP
07E0
1818
1818
2004
4002
47E2
8811
9009
9009
9009
9009
8811
47E2
4002
2004
1818
07E0
ENDCHAR
STARTCHAR 25CF
ENCODING 9679
SWIDTH 1020 0
DWIDTH 17 0
BBX 16 17 0 -2
BITMAP
07E0
1FF8
1FF8
3FFC
7FFE
7FFE
FFFF
FFFF
FFFF
FFFF
FFFF
FFFF
7FFE
7FFE
3FFC
1FF8
07E0
ENDCHAR
STARTCHAR 25EF
ENCODING 9711
SWIDTH 1020 0
DWIDTH 17 0
BBX 16 17 0 -2
BITMAP
07E0
1818
1818
2004
4002
4002
8001
8001
8001
8001
8001
8001
4002
4002
2004
1818
07E0
ENDCHAR
STARTCHAR 2605
ENCODING 9733
SWIDTH 1020 0
DWIDTH 17 0
BBX 16 17 0 -2
BITMAP
0180
0180
0180
03C0
03C0
07E0
07E0
FFFF
3FFC
1FF8
07E0
0FF0
0FF0
1EF8
1C38
381C
2004
ENDCHAR
STARTCHAR 2606
ENCODING 9734
SWIDTH 1020 0
DWIDTH 17 0
BBX 16 17 0 -2
BITMAP
0180
0180
0180
02C0
02C0
0420
0420
F81F
2004
1818
0420
0810
0990
12C8
1428
381C
2004
ENDCHAR
STARTCHAR 2640
ENCODING 9792
SWIDTH 1020 0
DWIDTH 17 0
BBX 12 16 2 -1
BITMAP
0F00
1080
1080
2040
2040
2040
1080
0F00
0600
0600
FFF0
0600
0600
0600
0600
0600
ENDCHAR
STARTCHAR 2642
ENCODING 9794
SWIDTH 1020 0
DWIDTH 17 0
BBX 15 15 0 -1
BITMAP
00FE
00FE
0006
000A
0012
0022
00C2
0180
3A00
4400
8200
8200
8200
4400
3800
ENDCHAR
STARTCHAR 266A
ENCODING 9834
SWIDTH 1020 0
DWIDTH 17 0
BBX 11 15 2 -1
BITMAP
0600
0600
0700
0780
06C0
0660
0620
0620
0620
0640
1E00
7E00
F800
F800
6000
ENDCHAR
STARTCHAR 266D
ENCODING 9837
SWIDTH 1020 0
DWIDTH 17 0
BBX 7 15 4 -1
BITMAP
80
80
80
80
80
B8
DC
CE
8E
8C
9C
B8
A0
C0
80
ENDCHAR
STARTCHAR 266F
ENCODING 9839
SWIDTH 1020 0
DWIDTH 17 0
BBX 10 15 3 -1
BITMAP
0100
0100
2100
21C0
3FC0
FF00
E100
2100
2100
21C0
3FC0
FF00
E100
2100
2000
ENDCHAR
STARTCHAR 3000
ENCODING 12288
SWIDTH 1020 0
DWIDTH 17 0
BBX 0 0 0 0
BITMAP
ENDCHAR
STARTCHAR 3001
ENCODING 12289
SWIDTH 1020 0
DWIDTH 17 0
BBX 5 5 0 -2
BITMAP
80
40
20
30
18
ENDCHAR
STARTCHAR 3002
ENCODING 12290
SWIDTH 1020 0
DWIDTH 17 0
BBX 5 5 0 -2
BITMAP
70
88
88
88
70
ENDCHAR
STARTCHAR 3003
ENCODING 12291
SWIDTH 1020 0
DWIDTH 17 0
BBX 8 6 3 4
BITMAP
21
21
21
46
46
8C
ENDCHAR
STARTCHAR 3005
ENCODING 12293
SWIDTH 1020 0
DWIDTH 17 0
BBX 13 15 0 -1
BITMAP
0200
0200
0200
0200
07F8
0408
0810
0810
1020
24C0
42C0
8180
00C0
0020
0020
ENDCHAR
STARTCHAR 3006
ENCODING 12294
SWIDTH 1020 0
DWIDTH 17 0
BBX 13 16 1 -1
BITMAP
0008
0008
0008
0008
0010
0020
0840
1580
2300
2580
4980
5000
A000
A000
C000
8000
ENDCHAR
STARTCHAR 3007
ENCODING 12295
SWIDTH 1020 0
DWIDTH 17 0
BBX 16 12 0 0
BITMAP
07E0
1818
2004
4002
8001
8001
8001
8001
4002
2004
1818
07E0
ENDCHAR
STARTCHAR 3008
ENCODING 12296
SWIDTH 1020 0
DWIDTH 17 0
BBX 5 17 10 -2
BITMAP
08
08
08
10
10
20
40
40
80
80
40
40
20
10
10
08
08
ENDCHAR
STARTCHAR 3009
ENCODING 12297
SWIDTH 1020 0
DWIDTH 17 0
BBX 5 17 1 -2
BITMAP
80
80
80
40
40
20
10
10
08
08
10
10
20
40
40
80
80
ENDCHAR
STARTCHAR 300A
ENCODING 12298
SWIDTH 1020 0
DWIDTH 17 0
BBX 9 17 6 -2
BITMAP
0480
0480
0480
0900
0900
3200
6400
6400
8800
8800
6400
6400
3200
0900
0900
0480
0480
ENDCHAR
STARTCHAR 300B
ENCODING 12299
SWIDTH 1020 0
DWIDTH 17 0
BBX 9 17 1 -2
BITMAP
9000
9000
9000
4800
4800
2400
1300
1300
0980
0980
1300
1300
2400
4800
4800
9000
9000
ENDCHAR
STARTCHAR 300C
ENCODING 12300
SWIDTH 1020 0
DWIDTH 17 0
BBX 5 14 10 1
BITMAP
F8
80
80
80
80
80
80
80
80
80
80
80
80
80
ENDCHAR
STARTCHAR 300D
ENCODING 12301
SWIDTH 1020 0
DWIDTH 17 0
BBX 5 13 1 -2
BITMAP
08
08
08
08
08
08
08
08
08
08
08
08
F8
ENDCHAR
STARTCHAR 300E
ENCODING 12302
SWIDTH 1020 0
DWIDTH 17 0
BBX 7 14 8 1
BITMAP
FE
C2
C2
DE
D0
D0
D0
D0
D0
D0
D0
D0
D0
F0
ENDCHAR
STARTCHAR 300F
ENCODING 12303
SWIDTH 1020 0
DWIDTH 17 0
BBX 6 13 1 -2
BITMAP
1C
14
14
14
14
14
14
14
14
14
F4
84
FC
ENDCHAR
STARTCHAR 3010
ENCODING 12304
SWIDTH 1020 0
DWIDTH 17 0
BBX 5 17 10 -2
BITMAP
F8
E0
E0
E0
C0
C0
C0
C0
C0
C0
C0
C0
C0
C0
E0
E0
F8
ENDCHAR
STARTCHAR 3011
ENCODING 12305
SWIDTH 1020 0
DWIDTH 17 0
BBX 5 17 1 -2
BITMAP
F8
38
38
38
18
18
18
18
18
18
18
18
18
18
38
38
F8
ENDCHAR
STARTCHAR 3012
ENCODING 12306
SWIDTH 1020 0
DWIDTH 17 0
BBX 15 16 0 -2
BITMAP
FFFE
FFFE
FFFE
0000
0000
FFFE
FFFE
0380
0380
0380
0380
0380
0380
0380
0380
0380
ENDCHAR
STARTCHAR 3013
ENCODING 12307
SWIDTH 1020 0
DWIDTH 17 0
BBX 12 7 2 3
BITMAP
FFF0
FFF0
0000
0000
0000
FFF0
FFF0
ENDCHAR
STARTCHAR 3014
ENCODING 12308
SWIDTH 1020 0
DWIDTH 17 0
BBX 4 17 11 -2
BITMAP
10
20
20
C0
80
80
80
80
80
80
80
80
80
80
C0
20
10
ENDCHAR
STARTCHAR 3015
ENCODING 12309
SWIDTH 1020 0
DWIDTH 17 0
BBX 4 17 1 -2
BITMAP
80
40
40
30
10
10
10
10
10
10
10
10
10
10
30
40
80
ENDCHAR
STARTCHAR 301C
ENCODING 12316
SWIDTH 1020 0
DWIDTH 17 0
BBX 16 5 0 4
BITMAP
3C00
4200
8181
00C2
003C
ENDCHAR
STARTCHAR 301D
ENCODING 12317
SWIDTH 1020 0
DWIDTH 17 0
BBX 5 4 10 10
BITMAP
48
48
48
90
ENDCHAR
STARTCHAR 301F
ENCODING 12319
SWIDTH 1020 0
DWIDTH 17 0
BBX 5 3 1 -1
BITMAP
48
48
90
ENDCHAR
STARTCHAR 3041
ENCODING 12353
SWIDTH 1020 0
DWIDTH 17 0
BBX 10 11 3 -2
BITMAP
1000
1000
1F00
7000
1F00
3680
5640
5C40
AC40
C080
0700
ENDCHAR
STARTCHAR 3042
ENCODING 12354
SWIDTH 1020 0
DWIDTH 17 0
BBX 13 16 2 -1
BITMAP
0600
0600
0600
0600
07C0
7E00
0880
0FC0
1B30
2B08
4E08
4808
9608
A610
4020
00C0
ENDCHAR
STARTCHAR 3043
ENCODING 12355
SWIDTH 1020 0
DWIDTH 17 0
BBX 12 8 2 -1
BITMAP
8080
4040
4020
4010
4010
2800
3000
1000
ENDCHAR
STARTCHAR 3044
ENCODING 12356
SWIDTH 1020 0
DWIDTH 17 0
BBX 14 12 1 0
BITMAP
8000
4020
4010
4008
4008
4004
4004
400C
2000
2800
3000
1000
ENDCHAR
STARTCHAR 3045
ENCODING 12357
SWIDTH 1020 0
DWIDTH 17 0
BBX 7 11 5 -2
BITMAP
40
3C
00
38
C4
02
02
04
04
18
70
ENDCHAR
STARTCHAR 3046
ENCODING 12358
SWIDTH 1020 0
DWIDTH 17 0
BBX 9 17 3 -2
BITMAP
2000
1000
1000
0E00
0000
0000
1E00
E100
0080
0080
0080
0080
0100
0100
0600
0C00
3000
ENDCHAR
STARTCHAR 3047
ENCODING 12359
SWIDTH 1020 0
DWIDTH 17 0
BBX 10 10 3 -1
BITMAP
1000
0E00
0000
0F00
7600
0C00
1C00
2600
4600
C1C0
ENDCHAR
STARTCHAR 3048
ENCODING 12360
SWIDTH 1020 0
DWIDTH 17 0
BBX 13 16 2 -1
BITMAP
0800
0600
0600
0380
0000
0780
3880
0300
0600
0800
0800
1600
2300
4300
C300
80F8
ENDCHAR
STARTCHAR 3049
ENCODING 12361
SWIDTH 1020 0
DWIDTH 17 0
BBX 10 10 3 -2
BITMAP
3000
1080
1E40
F040
2F80
3040
6040
A040
6780
2000
ENDCHAR
STARTCHAR 304A
ENCODING 12362
SWIDTH 1020 0
DWIDTH 17 0
BBX 14 16 1 -1
BITMAP
3000
1000
1000
1010
1008
1F04
F004
1000
11F0
1708
1804
3004
5004
D008
3070
1000
ENDCHAR
STARTCHAR 304B
ENCODING 12363
SWIDTH 1020 0
DWIDTH 17 0
BBX 16 16 0 -1
BITMAP
0C00
0400
0400
0400
0400
0798
18C4
E8C2
08C2
10C1
10C1
2183
2180
4980
C600
8400
ENDCHAR
STARTCHAR 304C
ENCODING 12364
SWIDTH 1020 0
DWIDTH 17 0
BBX 16 16 0 -1
BITMAP
0C00
0402
0402
0409
0405
0784
18D8
E8C4
08C2
10C2
10C1
2183
2180
4980
C600
8400
ENDCHAR
STARTCHAR 304D
ENCODING 12365
SWIDTH 1020 0
DWIDTH 17 0
BBX 10 17 3 -2
BITMAP
3000
1000
1000
1000
8D80
7E00
0C00
86C0
7F00
0080
0080
7F40
80C0
8000
8000
6000
1F00
ENDCHAR
STARTCHAR 304E
ENCODING 12366
SWIDTH 1020 0
DWIDTH 17 0
BBX 13 17 3 -2
BITMAP
3010
1048
1048
1028
8DA0
7E00
0C00
86C0
7F00
0080
0080
7F40
80C0
8000
8000
6000
1F00
ENDCHAR
STARTCHAR 304F
ENCODING 12367
SWIDTH 1020 0
DWIDTH 17 0
BBX 8 17 3 -2
BITMAP
06
06
06
06
0C
10
20
40
80
80
40
20
10
0C
06
01
01
ENDCHAR
STARTCHAR 3050
ENCODING 12368
SWIDTH 1020 0
DWIDTH 17 0
BBX 12 17 3 -2
BITMAP
0600
0600
0600
0600
0C20
1090
2050
4040
8000
8000
4000
2000
1000
0C00
0600
0100
0100
ENDCHAR
STARTCHAR 3051
ENCODING 12369
SWIDTH 1020 0
DWIDTH 17 0
BBX 14 17 2 -2
BITMAP
0060
4020
4020
4020
4020
4020
403C
87E0
8020
8020
8020
8020
A020
4040
6040
2080
0300
ENDCHAR
STARTCHAR 3052
ENCODING 12370
SWIDTH 1020 0
DWIDTH 17 0
BBX 15 17 1 -2
BITMAP
0064
4032
4032
402A
4028
4020
403E
87E0
8020
8020
8020
8020
A020
4040
6040
2180
0300
ENDCHAR
STARTCHAR 3053
ENCODING 12371
SWIDTH 1020 0
DWIDTH 17 0
BBX 12 12 2 0
BITMAP
2000
1FC0
0000
0000
0000
0000
4000
8000
8000
8000
4000
3FF0
ENDCHAR
STARTCHAR 3054
ENCODING 12372
SWIDTH 1020 0
DWIDTH 17 0
BBX 13 15 2 0
BITMAP
0010
0048
0048
2028
1FA0
0000
0000
0000
0000
4000
8000
8000
8000
4000
3FF0
ENDCHAR
STARTCHAR 3055
ENCODING 12373
SWIDTH 1020 0
DWIDTH 17 0
BBX 11 17 2 -2
BITMAP
1800
0800
0800
0800
0620
0660
8780
7B00
0080
0040
0040
3FA0
4060
4000
4000
3000
0F80
ENDCHAR
STARTCHAR 3056
ENCODING 12374
SWIDTH 1020 0
DWIDTH 17 0
BBX 14 17 2 -2
BITMAP
1808
0824
0824
0814
0610
0660
8780
7B00
0080
0040
0040
3FA0
4060
4000
4000
3000
0F80
ENDCHAR
STARTCHAR 3057
ENCODING 12375
SWIDTH 1020 0
DWIDTH 17 0
BBX 12 16 3 -1
BITMAP
C000
4000
4000
4000
4000
4000
4000
4000
4000
4000
4000
4010
4020
4040
4180
3E00
ENDCHAR
STARTCHAR 3058
ENCODING 12376
SWIDTH 1020 0
DWIDTH 17 0
BBX 12 16 3 -1
BITMAP
C000
4000
4000
4040
4120
40A0
4080
4000
4000
4000
4000
4010
4020
4040
4180
3E00
ENDCHAR
STARTCHAR 3059
ENCODING 12377
SWIDTH 1020 0
DWIDTH 17 0
BBX 15 17 0 -2
BITMAP
01C0
00C0
00C0
00C0
00C0
01FE
0EC0
F0C0
03C0
04C0
04C0
05C0
02C0
00C0
0180
0180
0600
ENDCHAR
STARTCHAR 305A
ENCODING 12378
SWIDTH 1020 0
DWIDTH 17 0
BBX 16 17 0 -2
BITMAP
01C2
00C9
00C9
00C5
00C4
01FC
0EC3
F0C0
03C0
04C0
04C0
05C0
02C0
00C0
0180
0180
0600
ENDCHAR
STARTCHAR 305B
ENCODING 12379
SWIDTH 1020 0
DWIDTH 17 0
BBX 16 15 0 -1
BITMAP
00E0
00E0
1820
0820
0820
08FF
0FA0
F820
0820
08C0
08C0
0800
0800
0400
03F8
ENDCHAR
STARTCHAR 305C
ENCODING 12380
SWIDTH 1020 0
DWIDTH 17 0
BBX 16 16 0 -1
BITMAP
0002
00E9
00E9
1825
0824
0820
08FF
0FA0
F820
0820
08C0
08C0
0800
0800
0400
03F8
ENDCHAR
STARTCHAR 305D
ENCODING 12381
SWIDTH 1020 0
DWIDTH 17 0
BBX 13 16 1 -2
BITMAP
03C0
03C0
1C40
0180
0300
0400
09F8
1F40
E180
0300
0400
0400
0400
0400
0300
01C0
ENDCHAR
STARTCHAR 305E
ENCODING 12382
SWIDTH 1020 0
DWIDTH 17 0
BBX 15 16 1 -2
BITMAP
03C4
03C4
1C52
018A
0308
0400
09F8
1F40
E180
0300
0400
0400
0400
0400
0300
01C0
ENDCHAR
STARTCHAR 305F
ENCODING 12383
SWIDTH 1020 0
DWIDTH 17 0
BBX 13 15 1 -1
BITMAP
3000
3000
1000
1000
1000
1C60
E018
2000
2000
2000
4000
4300
8300
8180
0078
ENDCHAR
STARTCHAR 3060
ENCODING 12384
SWIDTH 1020 0
DWIDTH 17 0
BBX 15 16 1 -1
BITMAP
0004
3012
3012
100A
1008
1000
1C60
E018
2000
2000
2000
4000
4300
8300
8180
0078
ENDCHAR
STARTCHAR 3061
ENCODING 12385
SWIDTH 1020 0
DWIDTH 17 0
BBX 12 16 2 -1
BITMAP
3000
1000
1000
1000
1000
1F00
F000
2000
23C0
2E20
5010
6010
0010
0020
00C0
0F00
ENDCHAR
STARTCHAR 3062
ENCODING 12386
SWIDTH 1020 0
DWIDTH 17 0
BBX 13 16 2 -1
BITMAP
3000
1010
1010
1048
1028
1F20
F000
2000
23C0
2E20
5010
6010
0010
0020
00C0
0F00
ENDCHAR
STARTCHAR 3063
ENCODING 12387
SWIDTH 1020 0
DWIDTH 17 0
BBX 11 7 2 -1
BITMAP
0FC0
3020
C020
0020
0040
0380
0E00
ENDCHAR
STARTCHAR 3064
ENCODING 12388
SWIDTH 1020 0
DWIDTH 17 0
BBX 14 10 1 0
BITMAP
03F0
1C08
E004
0004
0004
0008
0008
0010
0060
0780
ENDCHAR
STARTCHAR 3065
ENCODING 12389
SWIDTH 1020 0
DWIDTH 17 0
BBX 15 15 1 0
BITMAP
0004
0012
0012
000A
0008
03F0
1C08
E004
0004
0004
0008
0008
0010
0060
0780
ENDCHAR
STARTCHAR 3066
ENCODING 12390
SWIDTH 1020 0
DWIDTH 17 0
BBX 14 12 0 0
BITMAP
01FC
0E20
F0C0
0180
0200
0200
0400
0400
0400
0400
0200
01F8
ENDCHAR
STARTCHAR 3067
ENCODING 12391
SWIDTH 1020 0
DWIDTH 17 0
BBX 16 12 0 0
BITMAP
01FC
0E22
F0C9
0185
0204
0200
0400
0400
0400
0400
0200
01F8
ENDCHAR
STARTCHAR 3068
ENCODING 12392
SWIDTH 1020 0
DWIDTH 17 0
BBX 9 16 4 -1
BITMAP
2000
2000
2000
2000
2000
2000
2000
1B80
1C00
2000
4000
8000
8000
8000
4000
3F80
ENDCHAR
STARTCHAR 3069
ENCODING 12393
SWIDTH 1020 0
DWIDTH 17 0
BBX 12 16 3 -1
BITMAP
2020
2090
2090
2050
2040
2000
2000
1780
1C00
2000
4000
8000
8000
8000
4000
3F80
ENDCHAR
STARTCHAR 306A
ENCODING 12394
SWIDTH 1020 0
DWIDTH 17 0
BBX 14 16 1 -1
BITMAP
0800
0800
0800
0800
0F30
F808
1014
1020
2040
2040
4040
C040
07E0
0858
0844
0780
ENDCHAR
STARTCHAR 306B
ENCODING 12395
SWIDTH 1020 0
DWIDTH 17 0
BBX 13 15 2 -1
BITMAP
4000
4000
4000
47E0
4010
4000
8000
8000
8000
8000
8600
8600
C300
40F8
4000
ENDCHAR
STARTCHAR 306C
ENCODING 12396
SWIDTH 1020 0
DWIDTH 17 0
BBX 15 14 1 0
BITMAP
0300
0300
0300
2300
27F0
2B08
3304
2404
5404
5404
8DE8
9318
6314
01E2
ENDCHAR
STARTCHAR 306D
ENCODING 12397
SWIDTH 1020 0
DWIDTH 17 0
BBX 15 16 1 -1
BITMAP
3000
1000
1000
1000
1000
1DF0
1308
F404
1804
1004
3004
51E8
5318
9314
B1E2
1000
ENDCHAR
STARTCHAR 306E
ENCODING 12398
SWIDTH 1020 0
DWIDTH 17 0
BBX 14 12 1 0
BITMAP
07E0
1B10
2308
4304
4404
8404
8804
8804
9008
5008
6030
01C0
ENDCHAR
STARTCHAR 306F
ENCODING 12399
SWIDTH 1020 0
DWIDTH 17 0
BBX 14 15 1 -1
BITMAP
4060
4060
4020
4020
4020
407C
87A0
8020
8020
8020
8020
A3E0
C438
4424
43C0
ENDCHAR
STARTCHAR 3070
ENCODING 12400
SWIDTH 1020 0
DWIDTH 17 0
BBX 15 16 1 -1
BITMAP
0004
41D2
41D2
404A
4048
4040
407C
8FC0
8040
8040
8040
8040
A7C0
C870
4848
4784
ENDCHAR
STARTCHAR 3071
ENCODING 12401
SWIDTH 1020 0
DWIDTH 17 0
BBX 15 16 1 -1
BITMAP
000C
41D2
41D2
4052
404C
4040
407C
8FC0
8040
8040
8040
8040
A7C0
C870
4848
4784
ENDCHAR
STARTCHAR 3072
ENCODING 12402
SWIDTH 1020 0
DWIDTH 17 0
BBX 15 13 1 -1
BITMAP
0420
1C20
E830
1030
2028
2028
4026
4040
4040
4180
4180
2700
1800
ENDCHAR
STARTCHAR 3073
ENCODING 12403
SWIDTH 1020 0
DWIDTH 17 0
BBX 16 15 0 -1
BITMAP
0002
0002
0429
1C25
E834
1030
2028
2028
4026
40C0
40C0
4180
4180
2600
1800
ENDCHAR
STARTCHAR 3074
ENCODING 12404
SWIDTH 1020 0
DWIDTH 17 0
BBX 16 15 0 -1
BITMAP
0006
0006
0429
1C29
E836
1030
2028
2028
4026
40C0
40C0
4180
4180
2600
1800
ENDCHAR
STARTCHAR 3075
ENCODING 12405
SWIDTH 1020 0
DWIDTH 17 0
BBX 16 15 0 -1
BITMAP
0200
0200
0180
01E0
0200
0400
0400
0200
03F8
0586
08C1
10C1
22C1
C1C0
0180
ENDCHAR
STARTCHAR 3076
ENCODING 12406
SWIDTH 1020 0
DWIDTH 17 0
BBX 16 15 0 -1
BITMAP
0200
0200
0182
01E9
0205
0404
0400
0200
03F8
0586
08C1
10C1
22C1
C1C0
0180
ENDCHAR
STARTCHAR 3077
ENCODING 12407
SWIDTH 1020 0
DWIDTH 17 0
BBX 16 15 0 -1
BITMAP
0200
0200
0186
01E9
0209
0406
0400
0200
03F8
0586
08C1
10C1
22C1
C1C0
0180
ENDCHAR
STARTCHAR 3078
ENCODING 12408
SWIDTH 1020 0
DWIDTH 17 0
BBX 16 9 0 2
BITMAP
0C00
0A00
1180
10C0
2020
2010
C008
0004
0003
ENDCHAR
STARTCHAR 3079
ENCODING 12409
SWIDTH 1020 0
DWIDTH 17 0
BBX 16 12 0 2
BITMAP
0008
0008
0024
0C14
0A10
1180
10C0
2020
2010
C008
0004
0003
ENDCHAR
STARTCHAR 307A
ENCODING 12410
SWIDTH 1020 0
DWIDTH 17 0
BBX 16 12 0 2
BITMAP
0018
0018
0024
0C24
0A18
1180
10C0
2020
2010
C008
0004
0003
ENDCHAR
STARTCHAR 307B
ENCODING 12411
SWIDTH 1020 0
DWIDTH 17 0
BBX 14 15 1 -1
BITMAP
4038
4038
47E0
4020
4020
407C
87A0
8020
8020
8020
8020
A3E0
4438
6424
23C0
ENDCHAR
STARTCHAR 307C
ENCODING 12412
SWIDTH 1020 0
DWIDTH 17 0
BBX 15 16 1 -1
BITMAP
0004
4012
4012
47EA
4028
4020
407C
87A0
8020
8020
8020
8020
A3E0
4438
6424
23C0
ENDCHAR
STARTCHAR 307D
ENCODING 12413
SWIDTH 1020 0
DWIDTH 17 0
BBX 15 16 1 -1
BITMAP
000C
4012
4012
47F2
402C
4020
407C
87A0
8020
8020
8020
8020
A3E0
4438
6424
23C0
ENDCHAR
STARTCHAR 307E
ENCODING 12414
SWIDTH 1020 0
DWIDTH 17 0
BBX 11 16 2 -1
BITMAP
0E00
0600
0600
0600
06C0
FF00
0600
06C0
3F00
0600
0600
0600
3F00
46C0
4620
3800
ENDCHAR
STARTCHAR 307F
ENCODING 12415
SWIDTH 1020 0
DWIDTH 17 0
BBX 15 13 1 -1
BITMAP
0780
1980
0300
0310
0410
0410
3F90
4870
902C
9022
A040
C180
0300
ENDCHAR
STARTCHAR 3080
ENCODING 12416
SWIDTH 1020 0
DWIDTH 17 0
BBX 14 16 1 -1
BITMAP
1800
0800
0800
0810
0F08
F804
1004
1000
7000
9000
9010
9008
6008
2008
2010
1FE0
ENDCHAR
STARTCHAR 3081
ENCODING 12417
SWIDTH 1020 0
DWIDTH 17 0
BBX 14 15 1 -1
BITMAP
0300
0300
0300
2300
2300
27F0
2B08
3304
2404
5404
4804
9408
A708
6030
01C0
ENDCHAR
STARTCHAR 3082
ENCODING 12418
SWIDTH 1020 0
DWIDTH 17 0
BBX 11 16 2 -1
BITMAP
0E00
0600
0600
0600
0800
8800
6800
1300
9080
9040
6040
3E20
2020
2020
1040
0F80
ENDCHAR
STARTCHAR 3083
ENCODING 12419
SWIDTH 1020 0
DWIDTH 17 0
BBX 13 11 1 -1
BITMAP
0400
0300
1180
2BF0
2408
1808
3190
C860
0400
0300
0300
ENDCHAR
STARTCHAR 3084
ENCODING 12420
SWIDTH 1020 0
DWIDTH 17 0
BBX 16 15 0 -1
BITMAP
0180
0180
00E0
0010
1C3C
23C2
2201
1401
18E2
241C
C200
0200
0180
00C0
00C0
ENDCHAR
STARTCHAR 3085
ENCODING 12421
SWIDTH 1020 0
DWIDTH 17 0
BBX 11 12 3 -2
BITMAP
4C00
5600
5F80
5640
B620
D620
9620
5640
4F80
0C00
0C00
3000
ENDCHAR
STARTCHAR 3086
ENCODING 12422
SWIDTH 1020 0
DWIDTH 17 0
BBX 14 16 1 -2
BITMAP
0380
0380
4440
45F0
4B48
4C44
4844
9844
A444
A444
C448
43F0
4180
0180
0300
0C00
ENDCHAR
STARTCHAR 3087
ENCODING 12423
SWIDTH 1020 0
DWIDTH 17 0
BBX 10 11 3 -1
BITMAP
1C00
0C00
0D80
0E00
0C00
0C00
0C00
7C00
8F00
8CC0
7000
ENDCHAR
STARTCHAR 3088
ENCODING 12424
SWIDTH 1020 0
DWIDTH 17 0
BBX 12 16 2 -1
BITMAP
0E00
0600
0600
0600
0600
0660
0780
0600
0600
0600
0600
0600
7F00
86C0
8630
7800
ENDCHAR
STARTCHAR 3089
ENCODING 12425
SWIDTH 1020 0
DWIDTH 17 0
BBX 10 16 4 -1
BITMAP
2000
1800
1800
0C00
2C00
4000
8000
8000
8F00
B880
C040
8040
0040
0080
0300
1C00
ENDCHAR
STARTCHAR 308A
ENCODING 12426
SWIDTH 1020 0
DWIDTH 17 0
BBX 9 16 3 -2
BITMAP
4000
4000
4700
4C80
5080
9080
A080
A080
8080
C080
4080
0080
0100
0100
0600
1C00
ENDCHAR
STARTCHAR 308B
ENCODING 12427
SWIDTH 1020 0
DWIDTH 17 0
BBX 12 15 2 -1
BITMAP
0780
0780
3880
0300
0600
0800
0800
17C0
3820
4010
C010
8E10
1310
1320
0FC0
ENDCHAR
STARTCHAR 308C
ENCODING 12428
SWIDTH 1020 0
DWIDTH 17 0
BBX 15 16 1 -1
BITMAP
3000
1000
1000
1000
1060
1990
3310
D410
1810
1010
3020
5020
D022
9024
3018
1000
ENDCHAR
STARTCHAR 308D
ENCODING 12429
SWIDTH 1020 0
DWIDTH 17 0
BBX 12 15 2 -1
BITMAP
0780
0780
3880
0300
0600
0800
1000
2FC0
7020
C010
8010
0010
0020
00C0
0F00
ENDCHAR
STARTCHAR 308E
ENCODING 12430
SWIDTH 1020 0
DWIDTH 17 0
BBX 11 10 2 -2
BITMAP
3000
1000
1B80
3640
D820
3020
5020
9040
3380
1000
ENDCHAR
STARTCHAR 308F
ENCODING 12431
SWIDTH 1020 0
DWIDTH 17 0
BBX 14 16 1 -1
BITMAP
3000
1000
1000
1000
1000
1800
11F0
F708
1804
1004
3004
5004
D008
9030
31C0
1000
ENDCHAR
STARTCHAR 3090
ENCODING 12432
SWIDTH 1020 0
DWIDTH 17 0
BBX 14 15 1 -1
BITMAP
03C0
03C0
1C40
0180
0300
0400
07F0
1808
2804
4804
5004
9384
A448
C430
03C0
ENDCHAR
STARTCHAR 3091
ENCODING 12433
SWIDTH 1020 0
DWIDTH 17 0
BBX 16 15 0 -1
BITMAP
01E0
01E0
0EC0
0180
0200
05F0
0E08
1A08
05B0
07C0
0800
101C
3C22
42C1
C381
ENDCHAR
STARTCHAR 3092
ENCODING 12434
SWIDTH 1020 0
DWIDTH 17 0
BBX 12 16 2 -1
BITMAP
0800
0800
0800
0800
0F80
F800
1000
1810
2630
C6C0
8700
0E00
1600
1000
1000
0FE0
ENDCHAR
STARTCHAR 3093
ENCODING 12435
SWIDTH 1020 0
DWIDTH 17 0
BBX 14 15 1 -1
BITMAP
0700
0700
0300
0300
0400
0400
0800
0800
1000
1C04
2304
2308
4308
C310
81E0
ENDCHAR
STARTCHAR 309B
ENCODING 12443
SWIDTH 1020 0
DWIDTH 17 0
BBX 4 5 0 10
BITMAP
20
90
90
50
40
ENDCHAR
STARTCHAR 309C
ENCODING 12444
SWIDTH 1020 0
DWIDTH 17 0
BBX 4 5 0 10
BITMAP
60
90
90
90
60
ENDCHAR
STARTCHAR 309D
ENCODING 12445
SWIDTH 1020 0
DWIDTH 17 0
BBX 8 10 5 1
BITMAP
80
80
40
40
30
18
04
02
1D
71
ENDCHAR
STARTCHAR 309E
ENCODING 12446
SWIDTH 1020 0
DWIDTH 17 0
BBX 10 11 4 1
BITMAP
0080
8040
8240
4100
4100
2000
1800
0C00
0200
1D00
6100
ENDCHAR
STARTCHAR 30A1
ENCODING 12449
SWIDTH 1020 0
DWIDTH 17 0
BBX 10 8 3 -1
BITMAP
FFC0
0080
0D00
0E00
0C00
1000
1000
2000
ENDCHAR
STARTCHAR 30A2
ENCODING 12450
SWIDTH 1020 0
DWIDTH 17 0
BBX 13 12 2 -1
BITMAP
FFF8
0010
0020
0340
0380
0300
0300
0300
0600
0600
0800
1000
ENDCHAR
STARTCHAR 30A3
ENCODING 12451
SWIDTH 1020 0
DWIDTH 17 0
BBX 7 10 3 -2
BITMAP
06
06
0C
1C
2C
CC
0C
0C
0C
0C
ENDCHAR
STARTCHAR 30A4
ENCODING 12452
SWIDTH 1020 0
DWIDTH 17 0
BBX 10 15 2 -1
BITMAP
0040
0040
0040
0080
0300
0600
0E00
1600
2600
C600
0600
0600
0600
0600
0600
ENDCHAR
STARTCHAR 30A5
ENCODING 12453
SWIDTH 1020 0
DWIDTH 17 0
BBX 9 11 4 -2
BITMAP
1800
1800
1800
FF80
8080
8080
8100
0100
0200
0C00
3800
ENDCHAR
STARTCHAR 30A6
ENCODING 12454
SWIDTH 1020 0
DWIDTH 17 0
BBX 11 15 3 -1
BITMAP
0C00
0C00
0C00
0C00
FFE0
8020
8020
8020
8040
8040
0080
0080
0100
0600
0C00
ENDCHAR
STARTCHAR 30A7
ENCODING 12455
SWIDTH 1020 0
DWIDTH 17 0
BBX 10 7 3 0
BITMAP
7F80
0C00
0C00
0C00
0C00
0C00
FFC0
ENDCHAR
STARTCHAR 30A8
ENCODING 12456
SWIDTH 1020 0
DWIDTH 17 0
BBX 14 9 1 1
BITMAP
7FF8
0300
0300
0300
0300
0300
0300
0300
FFFC
ENDCHAR
STARTCHAR 30A9
ENCODING 12457
SWIDTH 1020 0
DWIDTH 17 0
BBX 11 11 2 -2
BITMAP
0300
0300
0300
7FE0
0700
0B00
1300
2300
4B00
8700
0300
ENDCHAR
STARTCHAR 30AA
ENCODING 12458
SWIDTH 1020 0
DWIDTH 17 0
BBX 14 15 1 -1
BITMAP
0040
0040
0040
0040
0040
7FFC
01C0
0340
0340
0440
0840
1040
2040
C1C0
0040
ENDCHAR
STARTCHAR 30AB
ENCODING 12459
SWIDTH 1020 0
DWIDTH 17 0
BBX 12 13 1 -1
BITMAP
0400
0400
0400
7FF0
0410
0410
0810
0810
1010
1020
2020
4040
8380
ENDCHAR
STARTCHAR 30AC
ENCODING 12460
SWIDTH 1020 0
DWIDTH 17 0
BBX 15 15 1 -1
BITMAP
0004
0004
0412
040A
0408
7FF0
0410
0410
0810
0810
1010
1020
2020
4040
8380
ENDCHAR
STARTCHAR 30AD
ENCODING 12461
SWIDTH 1020 0
DWIDTH 17 0
BBX 12 15 2 -1
BITMAP
0800
0800
0800
0800
0BE0
FE00
0600
0600
0600
07F0
FB00
0300
0300
0300
0300
ENDCHAR
STARTCHAR 30AE
ENCODING 12462
SWIDTH 1020 0
DWIDTH 17 0
BBX 14 16 2 -1
BITMAP
0008
0824
0824
0814
0810
0BC0
FE00
0600
0600
0600
07F0
FB00
0300
0300
0300
0300
ENDCHAR
STARTCHAR 30AF
ENCODING 12463
SWIDTH 1020 0
DWIDTH 17 0
BBX 10 15 2 -1
BITMAP
0800
0800
0800
0800
1FC0
1040
2040
4080
8080
0300
0300
0600
0800
1000
6000
ENDCHAR
STARTCHAR 30B0
ENCODING 12464
SWIDTH 1020 0
DWIDTH 17 0
BBX 14 16 2 -1
BITMAP
0008
0824
0824
0814
0810
1FC0
1040
2040
4080
8080
0300
0300
0600
0800
1000
6000
ENDCHAR
STARTCHAR 30B1
ENCODING 12465
SWIDTH 1020 0
DWIDTH 17 0
BBX 13 13 1 -1
BITMAP
1000
1000
1000
1FF8
2040
2040
4040
8180
0180
0300
0400
0800
3000
ENDCHAR
STARTCHAR 30B2
ENCODING 12466
SWIDTH 1020 0
DWIDTH 17 0
BBX 15 15 1 -1
BITMAP
0004
0004
1012
100A
1008
1FF0
2180
2180
4180
8300
0300
0400
0800
1000
6000
ENDCHAR
STARTCHAR 30B3
ENCODING 12467
SWIDTH 1020 0
DWIDTH 17 0
BBX 10 10 3 0
BITMAP
FFC0
0040
0040
0040
0040
0040
0040
0040
FFC0
0040
ENDCHAR
STARTCHAR 30B4
ENCODING 12468
SWIDTH 1020 0
DWIDTH 17 0
BBX 14 14 2 0
BITMAP
0008
0008
0024
0014
FFD0
0040
0040
0040
0040
0040
0040
0040
FFC0
0040
ENDCHAR
STARTCHAR 30B5
ENCODING 12469
SWIDTH 1020 0
DWIDTH 17 0
BBX 14 13 1 -1
BITMAP
0040
0840
0840
0840
FFFC
0840
0840
0840
0040
0180
0180
0300
0C00
ENDCHAR
STARTCHAR 30B6
ENCODING 12470
SWIDTH 1020 0
DWIDTH 17 0
BBX 15 16 1 -1
BITMAP
0004
0012
0012
004A
0848
0840
0840
FFFC
0840
0840
0840
0040
0180
0180
0300
0C00
ENDCHAR
STARTCHAR 30B7
ENCODING 12471
SWIDTH 1020 0
DWIDTH 17 0
BBX 12 11 2 0
BITMAP
4000
3800
0000
8010
7010
0020
0040
0080
0700
1800
E000
ENDCHAR
STARTCHAR 30B8
ENCODING 12472
SWIDTH 1020 0
DWIDTH 17 0
BBX 14 14 2 0
BITMAP
0008
0008
0024
4014
3810
0000
8010
7010
0020
0040
0080
0700
1800
E000
ENDCHAR
STARTCHAR 30B9
ENCODING 12473
SWIDTH 1020 0
DWIDTH 17 0
BBX 12 11 2 0
BITMAP
7FC0
0040
0080
0080
0300
0300
0680
0840
1020
2010
C010
ENDCHAR
STARTCHAR 30BA
ENCODING 12474
SWIDTH 1020 0
DWIDTH 17 0
BBX 14 15 2 0
BITMAP
0008
0024
0024
0014
7FD0
0040
0080
0080
0300
0300
0680
0840
1020
2010
C010
ENDCHAR
STARTCHAR 30BB
ENCODING 12475
SWIDTH 1020 0
DWIDTH 17 0
BBX 13 14 1 0
BITMAP
0800
0800
0800
0800
0800
0800
0FF8
F810
0820
0840
0800
0800
0800
07F8
ENDCHAR
STARTCHAR 30BC
ENCODING 12476
SWIDTH 1020 0
DWIDTH 17 0
BBX 15 15 1 0
BITMAP
0004
0812
0812
080A
0808
0800
0800
0FF8
F810
0820
0840
0800
0800
0800
07F8
ENDCHAR
STARTCHAR 30BD
ENCODING 12477
SWIDTH 1020 0
DWIDTH 17 0
BBX 11 13 2 -1
BITMAP
0020
8020
4020
2040
2040
0040
0080
0080
0300
0600
0800
1000
6000
ENDCHAR
STARTCHAR 30BE
ENCODING 12478
SWIDTH 1020 0
DWIDTH 17 0
BBX 14 16 2 -1
BITMAP
0008
0024
0024
0014
8050
4040
2040
2040
0080
0080
0300
0300
0600
0800
1000
6000
ENDCHAR
STARTCHAR 30BF
ENCODING 12479
SWIDTH 1020 0
DWIDTH 17 0
BBX 10 13 2 -1
BITMAP
1000
1000
1FC0
1040
2040
3080
4880
8700
0300
0600
0800
1000
6000
ENDCHAR
STARTCHAR 30C0
ENCODING 12480
SWIDTH 1020 0
DWIDTH 17 0
BBX 14 16 2 -1
BITMAP
0008
0024
0024
1014
1010
1FC0
1040
2040
3080
4880
8700
0300
0600
0800
1000
6000
ENDCHAR
STARTCHAR 30C1
ENCODING 12481
SWIDTH 1020 0
DWIDTH 17 0
BBX 14 15 2 -1
BITMAP
0020
0020
00C0
0700
7B00
0300
0300
FFFC
0300
0300
0300
0600
0600
0800
3000
ENDCHAR
STARTCHAR 30C2
ENCODING 12482
SWIDTH 1020 0
DWIDTH 17 0
BBX 14 15 2 -1
BITMAP
0048
0048
00A4
0714
7B10
0300
0300
FFF8
0300
0300
0300
0600
0600
0800
3000
ENDCHAR
STARTCHAR 30C3
ENCODING 12483
SWIDTH 1020 0
DWIDTH 17 0
BBX 9 9 3 -2
BITMAP
1080
8C80
4C80
4080
0100
0100
0600
0C00
3000
ENDCHAR
STARTCHAR 30C4
ENCODING 12484
SWIDTH 1020 0
DWIDTH 17 0
BBX 12 13 1 -1
BITMAP
1010
0810
8410
4410
2020
2020
0040
0040
0180
0300
0400
0800
3000
ENDCHAR
STARTCHAR 30C5
ENCODING 12485
SWIDTH 1020 0
DWIDTH 17 0
BBX 15 16 1 -1
BITMAP
0004
0012
0012
100A
0828
8420
4420
2020
2040
0040
0180
0180
0300
0400
0800
3000
ENDCHAR
STARTCHAR 30C6
ENCODING 12486
SWIDTH 1020 0
DWIDTH 17 0
BBX 14 12 1 -1
BITMAP
3FE0
0000
0000
0000
FFFC
0300
0300
0300
0400
0400
0800
1000
ENDCHAR
STARTCHAR 30C7
ENCODING 12487
SWIDTH 1020 0
DWIDTH 17 0
BBX 15 15 1 -1
BITMAP
0004
0004
0012
3FCA
0008
0000
0000
FFF8
0300
0300
0300
0400
0400
0800
1000
ENDCHAR
STARTCHAR 30C8
ENCODING 12488
SWIDTH 1020 0
DWIDTH 17 0
BBX 8 13 6 -1
BITMAP
80
80
80
80
F0
8C
82
81
80
80
80
80
80
ENDCHAR
STARTCHAR 30C9
ENCODING 12489
SWIDTH 1020 0
DWIDTH 17 0
BBX 9 15 6 -1
BITMAP
8100
8100
8480
8280
8200
8000
F000
8C00
8200
8100
8000
8000
8000
8000
8000
ENDCHAR
STARTCHAR 30CA
ENCODING 12490
SWIDTH 1020 0
DWIDTH 17 0
BBX 14 15 1 -1
BITMAP
0180
0180
0180
0180
0180
0180
FFFC
0180
0180
0180
0300
0300
0400
0800
1000
ENDCHAR
STARTCHAR 30CB
ENCODING 12491
SWIDTH 1020 0
DWIDTH 17 0
BBX 14 8 1 2
BITMAP
3FE0
0000
0000
0000
0000
0000
0000
FFFC
ENDCHAR
STARTCHAR 30CC
ENCODING 12492
SWIDTH 1020 0
DWIDTH 17 0
BBX 11 11 2 0
BITMAP
7FC0
0040
0040
0080
3080
0B00
0700
0880
1040
2020
C020
ENDCHAR
STARTCHAR 30CD
ENCODING 12493
SWIDTH 1020 0
DWIDTH 17 0
BBX 12 16 2 -1
BITMAP
0800
0600
0600
0300
0000
7FC0
0040
0080
0300
0680
0E40
3620
C610
0600
0600
0600
ENDCHAR
STARTCHAR 30CE
ENCODING 12494
SWIDTH 1020 0
DWIDTH 17 0
BBX 10 12 2 0
BITMAP
0040
0040
0040
0040
0080
0080
0300
0600
0800
1000
2000
C000
ENDCHAR
STARTCHAR 30CF
ENCODING 12495
SWIDTH 1020 0
DWIDTH 17 0
BBX 14 10 1 1
BITMAP
0840
0820
0810
0810
1008
1008
2004
2004
4004
8000
ENDCHAR
STARTCHAR 30D0
ENCODING 12496
SWIDTH 1020 0
DWIDTH 17 0
BBX 15 14 1 1
BITMAP
0004
0012
0012
000A
0848
0820
0810
0810
1008
1008
2004
2004
4004
8000
ENDCHAR
STARTCHAR 30D1
ENCODING 12497
SWIDTH 1020 0
DWIDTH 17 0
BBX 15 14 1 1
BITMAP
000C
0012
0012
0012
084C
0820
0810
0810
1008
1008
2004
2004
4004
8000
ENDCHAR
STARTCHAR 30D2
ENCODING 12498
SWIDTH 1020 0
DWIDTH 17 0
BBX 9 12 4 0
BITMAP
8000
8000
8000
8100
8E00
F800
8000
8000
8000
8000
8000
7F80
ENDCHAR
STARTCHAR 30D3
ENCODING 12499
SWIDTH 1020 0
DWIDTH 17 0
BBX 12 14 4 0
BITMAP
0020
0020
8090
8050
8040
8100
8E00
F800
8000
8000
8000
8000
8000
7F80
ENDCHAR
STARTCHAR 30D4
ENCODING 12500
SWIDTH 1020 0
DWIDTH 17 0
BBX 12 14 4 0
BITMAP
0060
0060
8090
8090
8060
8100
8E00
F800
8000
8000
8000
8000
8000
7F80
ENDCHAR
STARTCHAR 30D5
ENCODING 12501
SWIDTH 1020 0
DWIDTH 17 0
BBX 10 11 3 0
BITMAP
FFC0
0040
0040
0080
0080
0100
0100
0600
0C00
1000
6000
ENDCHAR
STARTCHAR 30D6
ENCODING 12502
SWIDTH 1020 0
DWIDTH 17 0
BBX 14 15 2 0
BITMAP
0008
0024
0024
0014
FFD0
0040
0040
0080
0080
0300
0300
0600
0800
1000
6000
ENDCHAR
STARTCHAR 30D7
ENCODING 12503
SWIDTH 1020 0
DWIDTH 17 0
BBX 14 15 2 0
BITMAP
0018
0024
0024
0024
FFD8
0040
0040
0080
0080
0300
0300
0600
0800
1000
6000
ENDCHAR
STARTCHAR 30D8
ENCODING 12504
SWIDTH 1020 0
DWIDTH 17 0
BBX 13 8 2 2
BITMAP
1800
2600
2300
4080
4040
8020
8010
0008
ENDCHAR
STARTCHAR 30D9
ENCODING 12505
SWIDTH 1020 0
DWIDTH 17 0
BBX 13 12 2 2
BITMAP
0020
0020
0090
0050
1840
2600
2300
4080
4040
8020
8010
0008
ENDCHAR
STARTCHAR 30DA
ENCODING 12506
SWIDTH 1020 0
DWIDTH 17 0
BBX 13 12 2 2
BITMAP
0060
0060
0090
0090
1860
2600
2300
4080
4040
8020
8010
0008
ENDCHAR
STARTCHAR 30DB
ENCODING 12507
SWIDTH 1020 0
DWIDTH 17 0
BBX 13 15 2 -1
BITMAP
0600
0600
0600
0600
0600
FFF8
0600
0600
2640
2620
4610
4608
8608
0600
0600
ENDCHAR
STARTCHAR 30DC
ENCODING 12508
SWIDTH 1020 0
DWIDTH 17 0
BBX 14 16 2 -1
BITMAP
0008
0624
0624
0614
0610
0600
FFF8
0600
0600
2640
2620
4610
4608
8608
0600
0600
ENDCHAR
STARTCHAR 30DD
ENCODING 12509
SWIDTH 1020 0
DWIDTH 17 0
BBX 14 16 2 -1
BITMAP
0018
0624
0624
0624
0618
0600
FFF8
0600
0600
2640
2620
4610
4608
8608
0600
0600
ENDCHAR
STARTCHAR 30DE
ENCODING 12510
SWIDTH 1020 0
DWIDTH 17 0
BBX 12 10 2 0
BITMAP
FFF0
0010
0020
0040
1080
0B00
0600
0300
0080
0080
ENDCHAR
STARTCHAR 30DF
ENCODING 12511
SWIDTH 1020 0
DWIDTH 17 0
BBX 10 12 3 -1
BITMAP
7E00
0180
0040
0000
7C00
0700
0080
0000
FC00
0700
0080
0040
ENDCHAR
STARTCHAR 30E0
ENCODING 12512
SWIDTH 1020 0
DWIDTH 17 0
BBX 13 12 2 0
BITMAP
0600
0600
0600
0600
0800
0840
0820
1020
1010
2070
2788
F808
ENDCHAR
STARTCHAR 30E1
ENCODING 12513
SWIDTH 1020 0
DWIDTH 17 0
BBX 11 12 2 0
BITMAP
0040
0040
0040
3080
0E80
0300
0380
0640
0820
1020
2000
C000
ENDCHAR
STARTCHAR 30E2
ENCODING 12514
SWIDTH 1020 0
DWIDTH 17 0
BBX 13 12 1 0
BITMAP
7FF0
0400
0400
0400
FFF8
0400
0400
0400
0400
0400
0400
03F0
ENDCHAR
STARTCHAR 30E3
ENCODING 12515
SWIDTH 1020 0
DWIDTH 17 0
BBX 11 10 2 -2
BITMAP
1000
1000
1000
0FE0
F840
0880
0800
0600
0600
0600
ENDCHAR
STARTCHAR 30E4
ENCODING 12516
SWIDTH 1020 0
DWIDTH 17 0
BBX 14 13 1 -1
BITMAP
0800
0800
0800
047C
0F88
F410
0420
0300
0300
0300
0180
0180
0180
ENDCHAR
STARTCHAR 30E5
ENCODING 12517
SWIDTH 1020 0
DWIDTH 17 0
BBX 11 7 2 0
BITMAP
3F00
0300
0300
0300
0300
0300
FFE0
ENDCHAR
STARTCHAR 30E6
ENCODING 12518
SWIDTH 1020 0
DWIDTH 17 0
BBX 14 9 1 1
BITMAP
3FC0
0040
0040
0040
0040
0040
0040
0040
FFFC
ENDCHAR
STARTCHAR 30E7
ENCODING 12519
SWIDTH 1020 0
DWIDTH 17 0
BBX 8 8 4 -1
BITMAP
FF
01
01
7F
01
01
01
FF
ENDCHAR
STARTCHAR 30E8
ENCODING 12520
SWIDTH 1020 0
DWIDTH 17 0
BBX 10 11 3 0
BITMAP
FFC0
0040
0040
0040
7FC0
0040
0040
0040
0040
FFC0
0040
ENDCHAR
STARTCHAR 30E9
ENCODING 12521
SWIDTH 1020 0
DWIDTH 17 0
BBX 11 13 2 -1
BITMAP
7FC0
0000
0000
0000
FFE0
0020
0020
0040
0040
0080
0300
0E00
3000
ENDCHAR
STARTCHAR 30EA
ENCODING 12522
SWIDTH 1020 0
DWIDTH 17 0
BBX 8 15 4 -1
BITMAP
01
01
81
81
81
81
81
81
81
01
01
02
02
0C
38
ENDCHAR
STARTCHAR 30EB
ENCODING 12523
SWIDTH 1020 0
DWIDTH 17 0
BBX 15 13 1 -1
BITMAP
0180
1180
1180
1180
1180
1180
1182
1182
1184
2188
21B0
41C0
8000
ENDCHAR
STARTCHAR 30EC
ENCODING 12524
SWIDTH 1020 0
DWIDTH 17 0
BBX 10 12 4 0
BITMAP
8000
8000
8000
8000
8000
8040
8040
8080
8100
8200
9C00
E000
ENDCHAR
STARTCHAR 30ED
ENCODING 12525
SWIDTH 1020 0
DWIDTH 17 0
BBX 9 10 4 0
BITMAP
FF80
8080
8080
8080
8080
8080
8080
8080
FF80
8080
ENDCHAR
STARTCHAR 30EE
ENCODING 12526
SWIDTH 1020 0
DWIDTH 17 0
BBX 8 9 4 -2
BITMAP
FF
81
81
81
02
02
0C
18
20
ENDCHAR
STARTCHAR 30EF
ENCODING 12527
SWIDTH 1020 0
DWIDTH 17 0
BBX 10 12 3 -1
BITMAP
FFC0
8040
8040
8040
8040
8080
0080
0100
0100
0600
0C00
3000
ENDCHAR
STARTCHAR 30F0
ENCODING 12528
SWIDTH 1020 0
DWIDTH 17 0
BBX 13 15 2 -1
BITMAP
0300
0300
0300
0300
0300
7FF0
1300
1300
1300
1300
FFF8
0300
0300
0300
0300
ENDCHAR
STARTCHAR 30F1
ENCODING 12529
SWIDTH 1020 0
DWIDTH 17 0
BBX 14 9 1 1
BITMAP
3FF0
0010
0020
0340
0380
0300
0300
0300
FFFC
ENDCHAR
STARTCHAR 30F2
ENCODING 12530
SWIDTH 1020 0
DWIDTH 17 0
BBX 11 12 2 -1
BITMAP
FFE0
0020
0020
0020
FFE0
0040
0040
0080
0300
0600
0800
3000
ENDCHAR
STARTCHAR 30F3
ENCODING 12531
SWIDTH 1020 0
DWIDTH 17 0
BBX 12 12 2 0
BITMAP
8000
4000
3000
0010
0010
0020
0040
0080
0300
0600
1800
E000
ENDCHAR
STARTCHAR 30F4
ENCODING 12532
SWIDTH 1020 0
DWIDTH 17 0
BBX 14 16 2 -1
BITMAP
0008
0824
0824
0814
0810
FFE0
8020
8020
8020
8040
8040
0080
0080
0300
0600
0800
ENDCHAR
STARTCHAR 30F5
ENCODING 12533
SWIDTH 1020 0
DWIDTH 17 0
BBX 9 9 4 -1
BITMAP
1800
1800
FF80
1880
1880
2080
2080
4080
8300
ENDCHAR
STARTCHAR 30F6
ENCODING 12534
SWIDTH 1020 0
DWIDTH 17 0
BBX 11 11 2 -2
BITMAP
1000
1000
1000
3FE0
2300
4300
8300
0600
0600
0800
3000
ENDCHAR
STARTCHAR 30FB
ENCODING 12539
SWIDTH 1020 0
DWIDTH 17 0
BBX 4 3 6 5
BITMAP
60
F0
60
ENDCHAR
STARTCHAR 30FC
ENCODING 12540
SWIDTH 1020 0
DWIDTH 17 0
BBX 14 2 1 6
BITMAP
8000
7FFC
ENDCHAR
STARTCHAR 30FD
ENCODING 12541
SWIDTH 1020 0
DWIDTH 17 0
BBX 6 7 5 2
BITMAP
80
40
30
18
18
04
04
ENDCHAR
STARTCHAR 30FE
ENCODING 12542
SWIDTH 1020 0
DWIDTH 17 0
BBX 9 10 4 2
BITMAP
0100
0080
0C80
8200
4200
2000
1800
1800
0C00
0C00
ENDCHAR
STARTCHAR 3231
ENCODING 12849
SWIDTH 1020 0
DWIDTH 17 0
BBX 16 16 0 -1
BITMAP
1008
29A4
29A4
49A2
49FA
BE21
8821
9FFD
9A21
AAF1
C8E9
89A5
4A22
4822
2824
1008
ENDCHAR
STARTCHAR 3232
ENCODING 12850
SWIDTH 1020 0
DWIDTH 17 0
BBX 16 16 0 -1
BITMAP
1008
2204
2204
4202
7FFA
8201
8401
8FE1
9421
A7E1
C421
87E1
4422
4422
24E4
1008
ENDCHAR
STARTCHAR 3239
ENCODING 12857
SWIDTH 1020 0
DWIDTH 17 0
BBX 16 16 0 -1
BITMAP
1008
24C4
24C4
44D2
44CA
88C1
8FFD
98C1
A8C1
C8C1
8821
8821
4822
4812
281C
1008
ENDCHAR
STARTCHAR 32A4
ENCODING 12964
SWIDTH 1020 0
DWIDTH 17 0
BBX 16 17 0 -2
BITMAP
07E0
1818
1818
2184
4182
4182
8181
81F1
8181
8181
8181
8181
5FFA
4002
2004
1818
07E0
ENDCHAR
STARTCHAR 32A5
ENCODING 12965
SWIDTH 1020 0
DWIDTH 17 0
BBX 16 17 0 -2
BITMAP
07E0
1818
1818
2184
4182
4182
9FF9
9189
9189
9189
9FF9
9189
4182
4182
2184
1818
07E0
ENDCHAR
STARTCHAR 32A6
ENCODING 12966
SWIDTH 1020 0
DWIDTH 17 0
BBX 16 17 0 -2
BITMAP
07E0
1818
1818
2004
4002
5FFA
8181
8181
81E1
8191
8181
8181
4182
4182
2184
1818
07E0
ENDCHAR
STARTCHAR 32A7
ENCODING 12967
SWIDTH 1020 0
DWIDTH 17 0
BBX 16 17 0 -2
BITMAP
07E0
1818
1818
2204
4202
4202
BFF9
8401
8401
8FF1
88C1
90C1
60C2
4FFA
2004
1818
07E0
ENDCHAR
STARTCHAR 32A8
ENCODING 12968
SWIDTH 1020 0
DWIDTH 17 0
BBX 16 17 0 -2
BITMAP
07E0
1818
1818
2204
4202
4202
BFF9
8401
8401
8FF1
9411
A411
4412
47F2
2414
1818
07E0
ENDCHAR
STARTCHAR 3303
ENCODING 13059
SWIDTH 1020 0
DWIDTH 17 0
BBX 16 16 0 -2
BITMAP
1F80
1F80
E200
1400
1980
10FF
1000
2000
2180
4580
0580
0588
0590
09A0
09C0
1180
ENDCHAR
STARTCHAR 330D
ENCODING 13069
SWIDTH 1020 0
DWIDTH 17 0
BBX 16 17 0 -2
BITMAP
1000
1023
1023
1E3D
F221
1221
2222
2222
443E
8822
0400
4400
44FF
4400
4400
0800
3000
ENDCHAR
STARTCHAR 3314
ENCODING 13076
SWIDTH 1020 0
DWIDTH 17 0
BBX 16 16 0 -1
BITMAP
1000
1000
1000
1000
1C00
F000
1000
1000
1E27
E839
0821
0821
0822
0822
003E
0022
ENDCHAR
STARTCHAR 3318
ENCODING 13080
SWIDTH 1020 0
DWIDTH 17 0
BBX 15 17 0 -2
BITMAP
2180
24DC
24DC
3AE0
458E
45F2
8804
0804
1008
21B0
C180
0180
0200
0220
05F0
1E08
0008
ENDCHAR
STARTCHAR 3322
ENCODING 13090
SWIDTH 1020 0
DWIDTH 17 0
BBX 16 17 0 -2
BITMAP
20C0
2030
2030
3F80
E201
2402
20CC
2030
1F80
00E0
0F80
0180
03FC
3D80
0180
0200
0C00
ENDCHAR
STARTCHAR 3323
ENCODING 13091
SWIDTH 1020 0
DWIDTH 17 0
BBX 16 17 0 -2
BITMAP
20C0
2020
2020
3F90
E201
2402
20CC
2030
1F80
0200
0200
0200
03C0
0220
0210
0200
0200
ENDCHAR
STARTCHAR 3326
ENCODING 13094
SWIDTH 1020 0
DWIDTH 17 0
BBX 14 17 2 -2
BITMAP
8600
9300
9300
8B00
8800
E000
9000
8800
8040
8340
8340
8340
0344
0648
0650
0860
1040
ENDCHAR
STARTCHAR 3327
ENCODING 13095
SWIDTH 1020 0
DWIDTH 17 0
BBX 13 15 3 0
BITMAP
8000
8000
8000
8000
8000
E000
9000
8000
8600
8180
8008
8010
0020
0640
0780
ENDCHAR
STARTCHAR 332B
ENCODING 13099
SWIDTH 1020 0
DWIDTH 17 0
BBX 16 16 0 -1
BITMAP
13C0
0AC0
0AC0
27C0
2400
223F
4200
8200
0000
4008
4208
59C8
E81E
5029
40C8
3B88
ENDCHAR
STARTCHAR 3336
ENCODING 13110
SWIDTH 1020 0
DWIDTH 17 0
BBX 16 17 0 -2
BITMAP
0020
1020
1020
183C
2424
22C4
4188
0190
0020
40C0
4004
7814
4814
ABD5
1015
2026
40C4
ENDCHAR
STARTCHAR 333B
ENCODING 13115
SWIDTH 1020 0
DWIDTH 17 0
BBX 15 16 1 -1
BITMAP
0780
0580
0580
3780
2800
447E
4400
8300
0300
0810
0728
1010
0C00
0020
11C0
0F00
ENDCHAR
STARTCHAR 3349
ENCODING 13129
SWIDTH 1020 0
DWIDTH 17 0
BBX 15 16 0 -2
BITMAP
6000
6000
1800
0400
0000
6002
1022
0822
0022
C022
3022
0802
0402
0004
0004
0018
ENDCHAR
STARTCHAR 334A
ENCODING 13130
SWIDTH 1020 0
DWIDTH 17 0
BBX 16 17 0 -2
BITMAP
3804
0424
0424
0024
3824
0424
0004
7008
0808
0430
0004
2A14
5594
5015
4BD5
4826
88C4
ENDCHAR
STARTCHAR 334D
ENCODING 13133
SWIDTH 1020 0
DWIDTH 17 0
BBX 16 17 0 -2
BITMAP
0400
0400
0400
4800
3180
10FF
2800
4400
8008
2028
2028
2028
3829
26CA
20CC
2188
2200
ENDCHAR
STARTCHAR 3351
ENCODING 13137
SWIDTH 1020 0
DWIDTH 17 0
BBX 15 17 1 -2
BITMAP
0800
8800
8800
8800
8844
8B24
89A8
1188
1010
6060
2000
2010
3850
2452
2054
2058
2190
ENDCHAR
STARTCHAR 3357
ENCODING 13143
SWIDTH 1020 0
DWIDTH 17 0
BBX 14 16 1 -2
BITMAP
9F00
9F00
E300
8324
8594
0454
0848
1010
2420
0440
0400
0780
0440
0420
0400
0400
ENDCHAR
STARTCHAR 337B
ENCODING 13179
SWIDTH 1020 0
DWIDTH 17 0
BBX 16 12 0 0
BITMAP
0006
7E05
10FF
54C4
54C5
10F5
FFD6
10D4
11B4
118A
1233
1001
ENDCHAR
STARTCHAR 337C
ENCODING 13180
SWIDTH 1020 0
DWIDTH 17 0
BBX 16 12 0 0
BITMAP
3E08
0A30
EBE0
AA27
B7FD
E025
AEF5
AAED
EBA7
AA25
0E20
0A20
ENDCHAR
STARTCHAR 337D
ENCODING 13181
SWIDTH 1020 0
DWIDTH 17 0
BBX 16 14 0 0
BITMAP
1000
1000
11FE
1010
FE10
10D0
10D0
10DE
28D0
28D0
28D0
44D0
45FF
8200
ENDCHAR
STARTCHAR 337E
ENCODING 13182
SWIDTH 1020 0
DWIDTH 17 0
BBX 16 15 0 -1
BITMAP
00C4
00C4
0E24
EA24
AACA
AE29
EA2F
AA09
AE00
EA2F
AA29
0A29
12C9
12CF
26C9
ENDCHAR
STARTCHAR 338E
ENCODING 13198
SWIDTH 1020 0
DWIDTH 17 0
BBX 13 10 2 -1
BITMAP
F068
A898
A888
A888
A888
A898
A868
A808
0088
0070
ENDCHAR
STARTCHAR 338F
ENCODING 13199
SWIDTH 1020 0
DWIDTH 17 0
BBX 13 15 2 -1
BITMAP
8000
8000
8000
8000
8000
8868
9098
A088
C088
A088
9098
8868
8808
0088
0070
ENDCHAR
STARTCHAR 339C
ENCODING 13212
SWIDTH 1020 0
DWIDTH 17 0
BBX 13 8 2 1
BITMAP
F0F0
A8A8
A8A8
A8A8
A8A8
A8A8
A8A8
A8A8
ENDCHAR
STARTCHAR 339D
ENCODING 13213
SWIDTH 1020 0
DWIDTH 17 0
BBX 13 8 2 1
BITMAP
70F0
88A8
88A8
80A8
80A8
88A8
88A8
70A8
ENDCHAR
STARTCHAR 339E
ENCODING 13214
SWIDTH 1020 0
DWIDTH 17 0
BBX 13 13 2 1
BITMAP
8000
8000
8000
8000
8000
88F0
90A8
A0A8
C0A8
A0A8
90A8
88A8
88A8
ENDCHAR
STARTCHAR 33A1
ENCODING 13217
SWIDTH 1020 0
DWIDTH 17 0
BBX 12 13 3 1
BITMAP
0060
0060
0090
0010
0060
EE80
91F0
9100
9100
9100
9100
9100
9100
ENDCHAR
STARTCHAR 33C4
ENCODING 13252
SWIDTH 1020 0
DWIDTH 17 0
BBX 13 8 2 1
BITMAP
7070
8888
8888
8080
8080
8888
8888
7070
ENDCHAR
STARTCHAR 33CD
ENCODING 13261
SWIDTH 1020 0
DWIDTH 17 0
BBX 15 13 1 -1
BITMAP
8988
8988
9190
9190
A1A0
C1C0
A1A0
9190
9190
8988
8988
8D8A
0402
ENDCHAR
STARTCHAR 4E00
ENCODING 19968
SWIDTH 1020 0
DWIDTH 17 0
BBX 16 1 0 6
BITMAP
FFFF
ENDCHAR
STARTCHAR 4E01
ENCODING 19969
SWIDTH 1020 0
DWIDTH 17 0
BBX 16 16 0 -2
BITMAP
FFFF
FFFF
0180
0180
0180
0180
0180
0180
0180
0180
0180
0180
0180
0180
0180
0380
ENDCHAR
STARTCHAR 4E03
ENCODING 19971
SWIDTH 1020 0
DWIDTH 17 0
BBX 16 16 0 -1
BITMAP
0800
0800
0800
0800
0800
0800
0807
08F8
1F80
E800
0800
0800
0800
0804
0804
07FC
ENDCHAR
STARTCHAR 4E07
ENCODING 19975
SWIDTH 1020 0
DWIDTH 17 0
BBX 16 16 0 -2
BITMAP
FFFF
FFFF
0400
0400
0400
07F8
0408
0408
0408
0408
0808
0808
1010
1010
2020
C1C0
ENDCHAR
STARTCHAR 4E08
ENCODING 19976
SWIDTH 1020 0
DWIDTH 17 0
BBX 16 17 0 -2
BITMAP
0180
0180
0180
0180
FFFF
0180
0980
0980
0980
0580
0580
0200
0380
04C0
0820
3018
C007
ENDCHAR
STARTCHAR 4E09
ENCODING 19977
SWIDTH 1020 0
DWIDTH 17 0
BBX 16 12 0 0
BITMAP
3FFC
0000
0000
0000
0000
1FF8
0000
0000
0000
0000
0000
FFFF
ENDCHAR
STARTCHAR 4E0A
ENCODING 19978
SWIDTH 1020 0
DWIDTH 17 0
BBX 16 16 0 -1
BITMAP
0180
0180
0180
0180
0180
0180
0180
01FC
0180
0180
0180
0180
0180
0180
0180
FFFF
ENDCHAR
STARTCHAR 4E0B
ENCODING 19979
SWIDTH 1020 0
DWIDTH 17 0
BBX 16 16 0 -2
BITMAP
FFFF
FFFF
0180
0180
0180
01E0
0198
0184
0180
0180
0180
0180
0180
0180
0180
0180
ENDCHAR
STARTCHAR 4E0D
ENCODING 19981
SWIDTH 1020 0
DWIDTH 17 0
BBX 16 16 0 -2
BITMAP
FFFF
FFFF
00C0
0180
0180
03B0
0588
0984
3182
C181
0180
0180
0180
0180
0180
0180
ENDCHAR
STARTCHAR 4E0E
ENCODING 19982
SWIDTH 1020 0
DWIDTH 17 0
BBX 16 17 0 -2
BITMAP
0400
0400
0400
07FC
0400
0800
0FF0
1810
0010
0010
FFFF
0010
0020
0020
00C0
00C0
0380
ENDCHAR
STARTCHAR 4E10
ENCODING 19984
SWIDTH 1020 0
DWIDTH 17 0
BBX 16 16 0 -2
BITMAP
FFFF
FFFF
0180
0180
11FC
1180
1180
1180
1FFC
1004
0004
0004
0008
0008
0010
00E0
ENDCHAR
STARTCHAR 4E11
ENCODING 19985
SWIDTH 1020 0
DWIDTH 17 0
BBX 16 15 0 -1
BITMAP
3FF0
3FF0
0210
0210
0210
0210
0210
FFFF
0410
0410
0410
0410
0410
0410
FFFF
ENDCHAR
STARTCHAR 4E14
ENCODING 19988
SWIDTH 1020 0
DWIDTH 17 0
BBX 16 15 0 -1
BITMAP
0FF0
0FF0
0810
0810
0810
0FF0
0810
0810
0810
0FF0
0810
0810
0810
0810
FFFF
ENDCHAR
STARTCHAR 4E15
ENCODING 19989
SWIDTH 1020 0
DWIDTH 17 0
BBX 16 15 0 -1
BITMAP
FFFF
FFFF
00C0
0180
0180
02E0
0598
0984
3182
C181
0180
0180
0180
0000
FFFF
ENDCHAR
STARTCHAR 4E16
ENCODING 19990
SWIDTH 1020 0
DWIDTH 17 0
BBX 16 17 0 -2
BITMAP
1188
1188
1188
1188
1188
1188
FFFF
1188
1188
1188
1188
11F8
1188
1000
1000
1FFF
1000
ENDCHAR
STARTCHAR 4E17
ENCODING 19991
SWIDTH 1020 0
DWIDTH 17 0
BBX 16 17 0 -2
BITMAP
1188
1188
1188
1188
1188
1188
1188
FFFF
1188
1188
1188
1188
1188
1188
1188
1FF8
1008
ENDCHAR
STARTCHAR 4E18
ENCODING 19992
SWIDTH 1020 0
DWIDTH 17 0
BBX 16 16 0 -1
BITMAP
0010
00E0
00E0
0F80
0800
0800
0800
0FFC
0820
0820
0820
0820
0820
0820
0820
FFFF
ENDCHAR
STARTCHAR 4E19
ENCODING 19993
SWIDTH 1020 0
DWIDTH 17 0
BBX 16 16 0 -2
BITMAP
FFFF
FFFF
0180
0180
0180
3FFC
2184
22C4
22C4
2424
2814
300C
2004
2004
2004
200C
ENDCHAR
STARTCHAR 4E1E
ENCODING 19998
SWIDTH 1020 0
DWIDTH 17 0
BBX 16 15 0 -1
BITMAP
1FF0
1FF0
0020
00C0
0180
FDC2
05A4
09A8
0990
1188
2184
4182
8381
0000
7FFE
ENDCHAR
STARTCHAR 4E21
ENCODING 20001
SWIDTH 1020 0
DWIDTH 17 0
BBX 16 16 0 -2
BITMAP
FFFF
FFFF
0180
0180
0180
7FFE
4182
4992
4992
4992
4992
4FF2
4812
4002
4002
4006
ENDCHAR
STARTCHAR 4E26
ENCODING 20006
SWIDTH 1020 0
DWIDTH 17 0
BBX 16 16 0 -1
BITMAP
0810
0410
0410
0420
00C0
7FFE
0420
4424
2424
2424
1424
1428
1428
0420
0420
FFFF
ENDCHAR
STARTCHAR 4E2A
ENCODING 20010
SWIDTH 1020 0
DWIDTH 17 0
BBX 16 17 0 -2
BITMAP
0180
0180
0180
02C0
0420
0810
1188
2184
C183
0180
0180
0180
0180
0180
0180
0180
0180
ENDCHAR
STARTCHAR 4E2D
ENCODING 20013
SWIDTH 1020 0
DWIDTH 17 0
BBX 12 17 2 -2
BITMAP
0600
0600
0600
0600
0600
FFF0
8610
8610
8610
8610
FFF0
8610
0600
0600
0600
0600
0600
ENDCHAR
STARTCHAR 4E31
ENCODING 20017
SWIDTH 1020 0
DWIDTH 17 0
BBX 15 17 0 -2
BITMAP
0420
0420
0420
4422
4422
4422
4422
4422
4422
4422
7C3E
4422
0820
0820
1020
2020
C020
ENDCHAR
STARTCHAR 4E32
ENCODING 20018
SWIDTH 1020 0
DWIDTH 17 0
BBX 14 17 1 -2
BITMAP
0300
0300
0300
0300
7FF8
4308
4308
7FF8
0300
FFFC
8304
8304
FFFC
8304
0300
0300
0300
ENDCHAR
STARTCHAR 4E36
ENCODING 20022
SWIDTH 1020 0
DWIDTH 17 0
BBX 7 8 4 3
BITMAP
80
40
20
18
0C
0C
02
02
ENDCHAR
STARTCHAR 4E38
ENCODING 20024
SWIDTH 1020 0
DWIDTH 17 0
BBX 16 17 0 -2
BITMAP
0400
0400
0400
0400
0400
FFF0
0410
0410
6410
1810
0C10
0A10
1190
1190
2011
4011
800F
ENDCHAR
STARTCHAR 4E39
ENCODING 20025
SWIDTH 1020 0
DWIDTH 17 0
BBX 16 16 0 -2
BITMAP
0FF0
0FF0
0810
0A10
0990
0990
0990
0810
FFFF
0810
0810
0810
1010
1010
2010
C030
ENDCHAR
STARTCHAR 4E3B
ENCODING 20027
SWIDTH 1020 0
DWIDTH 17 0
BBX 16 16 0 -1
BITMAP
0600
0180
0180
00C0
0000
7FFE
0180
0180
0180
0180
3FFC
0180
0180
0180
0180
FFFF
ENDCHAR
STARTCHAR 4E3C
ENCODING 20028
SWIDTH 1020 0
DWIDTH 17 0
BBX 16 17 0 -2
BITMAP
0410
0410
0410
0410
0410
7FFE
0410
0590
04D0
04D0
0410
FFFF
0810
0810
1010
2010
C010
ENDCHAR
STARTCHAR 4E3F
ENCODING 20031
SWIDTH 1020 0
DWIDTH 17 0
BBX 7 17 2 -2
BITMAP
06
06
06
06
06
06
06
06
06
06
06
06
08
08
10
20
C0
ENDCHAR
STARTCHAR 4E42
ENCODING 20034
SWIDTH 1020 0
DWIDTH 17 0
BBX 16 17 0 -2
BITMAP
1008
1008
1008
1008
0810
0810
0420
0420
02C0
02C0
0180
02C0
0420
0810
1008
2004
C003
ENDCHAR
STARTCHAR 4E43
ENCODING 20035
SWIDTH 1020 0
DWIDTH 17 0
BBX 15 16 0 -2
BITMAP
7FF0
7FF0
0410
0410
0410
0420
043E
0422
0802
0802
0802
1002
1004
2004
4008
8030
ENDCHAR
STARTCHAR 4E45
ENCODING 20037
SWIDTH 1020 0
DWIDTH 17 0
BBX 16 17 0 -2
BITMAP
0400
0400
0400
0400
07F0
0820
0820
10C0
20C0
4180
01C0
0220
0420
0810
1008
2004
C003
ENDCHAR
STARTCHAR 4E4B
ENCODING 20043
SWIDTH 1020 0
DWIDTH 17 0
BBX 16 17 0 -2
BITMAP
0180
0180
0180
0180
7FFC
0008
0010
0020
00C0
0180
0200
0400
2800
3000
2800
4600
81FF
ENDCHAR
STARTCHAR 4E4D
ENCODING 20045
SWIDTH 1020 0
DWIDTH 17 0
BBX 16 17 0 -2
BITMAP
0800
0800
0800
0800
1FFF
1180
2180
41FC
8180
0180
0180
01FE
0180
0180
0180
0180
0180
ENDCHAR
STARTCHAR 4E4E
ENCODING 20046
SWIDTH 1020 0
DWIDTH 17 0
BBX 16 17 0 -2
BITMAP
000C
00F0
00F0
3F84
2184
1188
1188
0990
FFFF
0180
0180
0180
0180
0180
0180
0180
0380
ENDCHAR
STARTCHAR 4E4F
ENCODING 20047
SWIDTH 1020 0
DWIDTH 17 0
BBX 16 17 0 -2
BITMAP
0018
01E0
01E0
3F80
0180
0180
FFF8
0010
0020
00C0
0180
0200
2400
2800
5000
4C00
83FF
ENDCHAR
STARTCHAR 4E55
ENCODING 20053
SWIDTH 1020 0
DWIDTH 17 0
BBX 16 17 0 -2
BITMAP
000C
00F0
00F0
3FC0
20C0
3FFE
20C0
20C0
3FFF
20C0
20C0
2FFC
28C4
48C4
48C4
88CC
00C0
ENDCHAR
STARTCHAR 4E56
ENCODING 20054
SWIDTH 1020 0
DWIDTH 17 0
BBX 16 17 0 -2
BITMAP
000C
01F0
01F0
3F80
0180
FFFF
0180
0990
0992
799C
0990
0990
3992
C992
098E
0180
0180
ENDCHAR
STARTCHAR 4E57
ENCODING 20055
SWIDTH 1020 0
DWIDTH 17 0
BBX 16 17 0 -2
BITMAP
0008
00F0
00F0
1F80
0180
7FFE
0990
0990
FFFF
0990
0990
7FFE
05A0
0990
1188
2184
C183
ENDCHAR
STARTCHAR 4E58
ENCODING 20056
SWIDTH 1020 0
DWIDTH 17 0
BBX 16 17 0 -2
BITMAP
0038
1FC0
1FC0
0180
FFFF
0180
0992
F99C
0990
3992
CBCE
05A0
05A0
0990
318C
C183
0180
ENDCHAR
STARTCHAR 4E59
ENCODING 20057
SWIDTH 1020 0
DWIDTH 17 0
BBX 14 14 1 -2
BITMAP
FFF0
0020
0040
0180
0300
0400
0800
1000
2000
2000
4000
4004
4004
3FFC
ENDCHAR
STARTCHAR 4E5D
ENCODING 20061
SWIDTH 1020 0
DWIDTH 17 0
BBX 16 17 0 -2
BITMAP
0400
0400
0400
0400
0400
FFF0
0410
0410
0410
0410
0410
0810
0810
0810
1011
2011
C00F
ENDCHAR
STARTCHAR 4E5E
ENCODING 20062
SWIDTH 1020 0
DWIDTH 17 0
BBX 15 17 0 -2
BITMAP
0800
0800
0800
1000
1FFE
2000
4000
BFE0
0180
0200
0400
0800
1000
1000
2002
2002
1FFE
ENDCHAR
STARTCHAR 4E5F
ENCODING 20063
SWIDTH 1020 0
DWIDTH 17 0
BBX 16 17 0 -2
BITMAP
0180
1180
1180
1180
1198
11E8
1788
3988
D188
1188
1198
1180
1180
1000
1001
1001
0FFF
ENDCHAR
STARTCHAR 4E62
ENCODING 20066
SWIDTH 1020 0
DWIDTH 17 0
BBX 16 17 0 -2
BITMAP
1020
1020
1020
1020
9220
9220
9220
9220
9220
9220
9220
9220
9220
FE20
8221
0021
001F
ENDCHAR
STARTCHAR 4E71
ENCODING 20081
SWIDTH 1020 0
DWIDTH 17 0
BBX 16 17 0 -2
BITMAP
01A0
0620
0620
7820
0820
0820
FFE0
0820
0820
0820
7E20
4220
4220
4220
4221
7E21
421F
ENDCHAR
STARTCHAR 4E73
ENCODING 20083
SWIDTH 1020 0
DWIDTH 17 0
BBX 16 17 0 -2
BITMAP
07A0
F9A0
F9A0
51A0
4A20
2A20
2A20
7FA0
0220
0420
0BA0
3C20
C820
0820
0821
0821
181F
ENDCHAR
STARTCHAR 4E7E
ENCODING 20094
SWIDTH 1020 0
DWIDTH 17 0
BBX 16 17 0 -2
BITMAP
10C0
10C0
10C0
FEC0
11FE
7D80
4600
45FC
7C08
4410
4420
7C20
10C0
FEC0
1181
1181
10FF
ENDCHAR
STARTCHAR 4E80
ENCODING 20096
SWIDTH 1020 0
DWIDTH 17 0
BBX 16 17 0 -2
BITMAP
0400
0FE0
0FE0
08C0
1FF0
2990
CFF0
0990
0FF0
0180
3FF8
2188
3FF8
2188
3FF9
2181
00FF
ENDCHAR
STARTCHAR 4E82
ENCODING 20098
SWIDTH 1020 0
DWIDTH 17 0
BBX 16 17 0 -2
BITMAP
0790
7A10
7A10
5190
48D0
BF90
0210
0410
7FD0
48D0
56D0
5AD0
40D0
7ED0
52D1
4CD1
73CF
ENDCHAR
STARTCHAR 4E85
ENCODING 20101
SWIDTH 1020 0
DWIDTH 17 0
BBX 3 17 6 -2
BITMAP
60
60
60
60
60
60
60
60
60
60
60
60
60
60
60
60
E0
ENDCHAR
STARTCHAR 4E86
ENCODING 20102
SWIDTH 1020 0
DWIDTH 17 0
BBX 14 16 1 -2
BITMAP
FFFC
FFFC
0010
0020
0040
0380
0300
0300
0300
0300
0300
0300
0300
0300
0300
0700
ENDCHAR
STARTCHAR 4E88
ENCODING 20104
SWIDTH 1020 0
DWIDTH 17 0
BBX 16 16 0 -2
BITMAP
1FF8
1FF8
0410
0220
01C0
00C0
FFFF
0184
0188
0190
0180
0180
0180
0180
0180
0380
ENDCHAR
STARTCHAR 4E89
ENCODING 20105
SWIDTH 1020 0
DWIDTH 17 0
BBX 16 17 0 -2
BITMAP
0200
03F0
03F0
0420
08C0
3FF8
0188
0188
FFFF
0188
0188
3FF8
0188
0180
0180
0180
0380
ENDCHAR
STARTCHAR 4E8A
ENCODING 20106
SWIDTH 1020 0
DWIDTH 17 0
BBX 16 17 0 -2
BITMAP
0180
0180
0180
FFFF
0990
05A0
3FF8
0188
0188
FFFF
0188
0188
3FF8
0188
0180
0180
0380
ENDCHAR
STARTCHAR 4E8B
ENCODING 20107
SWIDTH 1020 0
DWIDTH 17 0
BBX 16 17 0 -2
BITMAP
0180
0180
0180
FFFF
0180
0FF0
0990
0FF0
0180
1FF8
0188
FFFF
0188
1FF8
0180
0180
0380
ENDCHAR
STARTCHAR 4E8C
ENCODING 20108
SWIDTH 1020 0
DWIDTH 17 0
BBX 16 10 0 1
BITMAP
3FFC
0000
0000
0000
0000
0000
0000
0000
0000
FFFF
ENDCHAR
STARTCHAR 4E8E
ENCODING 20110
SWIDTH 1020 0
DWIDTH 17 0
BBX 16 16 0 -2
BITMAP
7FFE
7FFE
0180
0180
0180
0180
FFFF
0180
0180
0180
0180
0180
0180
0180
0180
0380
ENDCHAR
STARTCHAR 4E91
ENCODING 20113
SWIDTH 1020 0
DWIDTH 17 0
BBX 16 13 0 -1
BITMAP
3FFC
0000
0000
0000
FFFF
0200
0200
0220
0410
0408
08FC
0F82
7002
ENDCHAR
STARTCHAR 4E92
ENCODING 20114
SWIDTH 1020 0
DWIDTH 17 0
BBX 16 15 0 -1
BITMAP
7FFE
7FFE
0400
0400
0400
07F0
0810
0810
0810
0810
1FE0
1020
0020
0020
FFFF
ENDCHAR
STARTCHAR 4E94
ENCODING 20116
SWIDTH 1020 0
DWIDTH 17 0
BBX 16 13 0 -1
BITMAP
7FFE
0200
0200
0200
0400
3FF0
0410
0410
0410
0810
0810
0810
FFFF
ENDCHAR
STARTCHAR 4E95
ENCODING 20117
SWIDTH 1020 0
DWIDTH 17 0
BBX 16 17 0 -2
BITMAP
0420
0420
0420
0420
0420
7FFE
0420
0420
0420
0420
FFFF
0420
0420
0820
0820
1020
6020
ENDCHAR
STARTCHAR 4E98
ENCODING 20120
SWIDTH 1020 0
DWIDTH 17 0
BBX 16 15 0 -1
BITMAP
7FFE
7FFE
0000
0000
0FF0
0810
0810
0FF0
0810
0810
0810
0FF0
0810
0000
FFFF
ENDCHAR
STARTCHAR 4E99
ENCODING 20121
SWIDTH 1020 0
DWIDTH 17 0
BBX 16 15 0 -1
BITMAP
7FFE
7FFE
0400
0400
07F0
0410
0610
09A0
09A0
0C20
1220
12C0
00C0
00C0
FFFF
ENDCHAR
STARTCHAR 4E9B
ENCODING 20123
SWIDTH 1020 0
DWIDTH 17 0
BBX 16 16 0 -1
BITMAP
04C0
04C0
04C0
24C2
27CC
24F0
24C0
27C1
3CC1
E03F
0000
0000
3FFC
0000
0000
FFFF
ENDCHAR
STARTCHAR 4E9C
ENCODING 20124
SWIDTH 1020 0
DWIDTH 17 0
BBX 16 15 0 -1
BITMAP
7FFE
7FFE
0420
0420
0420
3FFC
2424
2424
2424
3FFC
2424
0420
0420
0420
FFFF
ENDCHAR
STARTCHAR 4E9E
ENCODING 20126
SWIDTH 1020 0
DWIDTH 17 0
BBX 16 15 0 -1
BITMAP
7FFE
7FFE
0420
0420
0420
3C3C
2424
2004
2424
3C3C
2424
0420
0420
0420
FFFF
ENDCHAR
STARTCHAR 4E9F
ENCODING 20127
SWIDTH 1020 0
DWIDTH 17 0
BBX 16 15 0 -1
BITMAP
7FFE
7FFE
0400
0400
0400
0FC0
00FE
78D4
48D4
48C8
48C8
7994
4623
0000
FFFF
ENDCHAR
STARTCHAR 4EA0
ENCODING 20128
SWIDTH 1020 0
DWIDTH 17 0
BBX 16 5 0 5
BITMAP
0180
0180
0180
0180
FFFF
ENDCHAR
STARTCHAR 4EA1
ENCODING 20129
SWIDTH 1020 0
DWIDTH 17 0
BBX 16 16 0 -1
BITMAP
0180
0180
0180
0180
0180
FFFF
1000
1000
1000
1000
1000
1000
1000
1000
1000
0FFE
ENDCHAR
STARTCHAR 4EA2
ENCODING 20130
SWIDTH 1020 0
DWIDTH 17 0
BBX 16 17 0 -2
BITMAP
0180
0180
0180
FFFF
0000
0000
0FE0
0820
0820
0820
0820
0820
0820
1020
1022
2022
C01E
ENDCHAR
STARTCHAR 4EA4
ENCODING 20132
SWIDTH 1020 0
DWIDTH 17 0
BBX 16 17 0 -2
BITMAP
0180
0180
0180
0180
FFFF
0420
0810
1428
6426
02C0
02C0
0180
02C0
0420
0810
300C
C003
ENDCHAR
STARTCHAR 4EA5
ENCODING 20133
SWIDTH 1020 0
DWIDTH 17 0
BBX 16 17 0 -2
BITMAP
0180
0180
0180
0180
FFFF
0200
0420
1820
04C8
0388
0210
0C20
30C0
01A0
0210
0C08
3004
ENDCHAR
STARTCHAR 4EA6
ENCODING 20134
SWIDTH 1020 0
DWIDTH 17 0
BBX 16 17 0 -2
BITMAP
0180
0180
0180
0180
FFFF
0420
0420
2428
2424
2424
4422
4422
8822
0820
1020
2020
40E0
ENDCHAR
STARTCHAR 4EA8
ENCODING 20136
SWIDTH 1020 0
DWIDTH 17 0
BBX 16 17 0 -2
BITMAP
0180
0180
0180
FFFF
0000
0FF0
0810
0FF0
0000
3FFC
0010
01E0
0180
0180
0180
0180
0380
ENDCHAR
STARTCHAR 4EAB
ENCODING 20139
SWIDTH 1020 0
DWIDTH 17 0
BBX 16 17 0 -2
BITMAP
0180
0180
0180
FFFF
0000
0FF0
0810
0FF0
0000
3FFC
0010
00E0
FFFF
0180
0180
0180
0380
ENDCHAR
STARTCHAR 4EAC
ENCODING 20140
SWIDTH 1020 0
DWIDTH 17 0
BBX 16 17 0 -2
BITMAP
0180
0180
0180
FFFF
0000
0000
0FF0
0810
0810
0810
0FF0
0190
0988
1184
2182
C181
0380
ENDCHAR
STARTCHAR 4EAD
ENCODING 20141
SWIDTH 1020 0
DWIDTH 17 0
BBX 14 17 1 -2
BITMAP
0300
0300
0300
FFFC
0000
1FE0
1020
1FE0
0000
FFFC
8004
7FF8
0300
0300
0300
0300
0700
ENDCHAR
STARTCHAR 4EAE
ENCODING 20142
SWIDTH 1020 0
DWIDTH 17 0
BBX 16 17 0 -2
BITMAP
0180
0180
0180
FFFF
0000
0FF0
0810
0FF0
0000
7FFE
4002
44C2
04C0
04C0
08C1
10C1
E03F
ENDCHAR
STARTCHAR 4EB0
ENCODING 20144
SWIDTH 1020 0
DWIDTH 17 0
BBX 16 17 0 -2
BITMAP
0180
0180
0180
FFFF
0000
0FF0
0810
0810
0FF0
0810
0810
0FF0
0180
0990
1188
2184
C383
ENDCHAR
STARTCHAR 4EB3
ENCODING 20147
SWIDTH 1020 0
DWIDTH 17 0
BBX 14 17 1 -2
BITMAP
0300
0300
0300
FFFC
0000
1FE0
1020
1FE0
0000
FFFC
8044
BF84
0400
FFF8
0404
0404
03FC
ENDCHAR
STARTCHAR 4EB6
ENCODING 20150
SWIDTH 1020 0
DWIDTH 17 0
BBX 16 16 0 -1
BITMAP
0180
0180
0180
7FFE
1428
17E8
1008
1FF8
1008
0FF0
0810
0FF0
0810
0FF0
0000
FFFF
ENDCHAR
STARTCHAR 4EBA
ENCODING 20154
SWIDTH 1020 0
DWIDTH 17 0
BBX 16 17 0 -2
BITMAP
0180
0180
0180
0180
0180
0180
0180
02C0
02C0
02C0
0420
0420
0810
0810
1008
2004
C003
ENDCHAR
STARTCHAR 4EC0
ENCODING 20160
SWIDTH 1020 0
DWIDTH 17 0
BBX 16 17 0 -2
BITMAP
0820
0820
0820
1020
1020
2020
2FFF
6020
A020
2020
2020
2020
2020
2020
2020
2020
2020
ENDCHAR
STARTCHAR 4EC1
ENCODING 20161
SWIDTH 1020 0
DWIDTH 17 0
BBX 16 17 0 -2
BITMAP
0800
0800
0800
1000
17FC
2000
2000
6000
A000
2000
2000
2000
2000
2000
2FFF
2000
2000
ENDCHAR
STARTCHAR 4EC2
ENCODING 20162
SWIDTH 1020 0
DWIDTH 17 0
BBX 15 17 0 -2
BITMAP
0820
0820
0820
0820
1020
17FE
3022
5022
9022
10C2
10C2
10C2
1182
1182
1204
1404
1818
ENDCHAR
STARTCHAR 4EC4
ENCODING 20164
SWIDTH 1020 0
DWIDTH 17 0
BBX 16 16 0 -2
BITMAP
3FFE
3FFE
2000
20C0
20C0
20C0
20C0
20C0
21A0
21A0
21A0
2210
4210
4408
8804
3003
ENDCHAR
STARTCHAR 4EC6
ENCODING 20166
SWIDTH 1020 0
DWIDTH 17 0
BBX 16 17 0 -2
BITMAP
0420
0420
0420
0820
0820
1020
1038
3024
5022
9021
1020
1020
1020
1020
1020
1020
1020
ENDCHAR
STARTCHAR 4EC7
ENCODING 20167
SWIDTH 1020 0
DWIDTH 17 0
BBX 16 17 0 -2
BITMAP
0980
0980
0980
0980
1180
1FF8
2188
6188
A188
2188
2188
2188
2188
2208
2209
2409
3807
ENDCHAR
STARTCHAR 4ECA
ENCODING 20170
SWIDTH 1020 0
DWIDTH 17 0
BBX 16 17 0 -2
BITMAP
0180
0180
0180
02C0
0420
0810
1008
2FF4
C003
0000
3FF8
0010
0020
0020
00C0
00C0
0180
ENDCHAR
STARTCHAR 4ECB
ENCODING 20171
SWIDTH 1020 0
DWIDTH 17 0
BBX 16 17 0 -2
BITMAP
0180
0180
0180
02C0
0420
0810
1008
2824
C823
0820
0820
0820
0820
1020
1020
2020
4020
ENDCHAR
STARTCHAR 4ECD
ENCODING 20173
SWIDTH 1020 0
DWIDTH 17 0
BBX 15 17 0 -2
BITMAP
0800
0FF8
0FF8
1188
1188
2190
2190
619E
A192
2182
2182
2202
2204
2204
2404
2808
3030
ENDCHAR
STARTCHAR 4ECE
ENCODING 20174
SWIDTH 1020 0
DWIDTH 17 0
BBX 16 17 0 -2
BITMAP
0820
0820
0820
0820
0820
0820
0820
0820
0820
08D0
08D0
14D0
12C8
2188
2184
4204
8C03
ENDCHAR
STARTCHAR 4ECF
ENCODING 20175
SWIDTH 1020 0
DWIDTH 17 0
BBX 16 17 0 -2
BITMAP
08C0
08C0
08C0
10C0
10C0
20C0
20C0
60C0
A180
2180
2190
2188
2184
2202
223E
2FC1
2001
ENDCHAR
STARTCHAR 4ED4
ENCODING 20180
SWIDTH 1020 0
DWIDTH 17 0
BBX 16 17 0 -2
BITMAP
0800
0BFE
0BFE
1004
1008
2030
2020
6020
AFFF
2020
2020
2020
2020
2020
2020
2020
20E0
ENDCHAR
STARTCHAR 4ED5
ENCODING 20181
SWIDTH 1020 0
DWIDTH 17 0
BBX 16 17 0 -2
BITMAP
0820
0820
0820
1020
1020
2020
2FFF
6020
A020
2020
2020
2020
2020
2020
2020
27FE
2000
ENDCHAR
STARTCHAR 4ED6
ENCODING 20182
SWIDTH 1020 0
DWIDTH 17 0
BBX 16 17 0 -2
BITMAP
1020
1220
1220
1220
1220
222C
22F4
67A4
BA24
2224
2224
222C
2220
2220
2201
2201
21FF
ENDCHAR
STARTCHAR 4ED7
ENCODING 20183
SWIDTH 1020 0
DWIDTH 17 0
BBX 16 17 0 -2
BITMAP
1020
1020
1020
1020
1020
2FFF
2420
6420
A220
2220
21A0
20C0
20C0
21A0
2210
240C
3803
ENDCHAR
STARTCHAR 4ED8
ENCODING 20184
SWIDTH 1020 0
DWIDTH 17 0
BBX 16 17 0 -2
BITMAP
0810
0810
0810
1010
1010
2FFF
2010
6410
A210
2210
2210
2010
2010
2010
2010
2010
2030
ENDCHAR
STARTCHAR 4ED9
ENCODING 20185
SWIDTH 1020 0
DWIDTH 17 0
BBX 15 17 0 -2
BITMAP
0820
0820
0820
1020
1020
2422
2422
6422
A422
2422
2422
2422
2422
2422
2422
27FE
2402
ENDCHAR
STARTCHAR 4EDD
ENCODING 20189
SWIDTH 1020 0
DWIDTH 17 0
BBX 16 16 0 -1
BITMAP
0180
0180
0180
02C0
02C0
0420
0810
1008
2004
DFFB
0180
0180
0180
0180
0180
FFFF
ENDCHAR
STARTCHAR 4EDE
ENCODING 20190
SWIDTH 1020 0
DWIDTH 17 0
BBX 15 17 0 -2
BITMAP
1000
1000
1000
17FE
1022
2022
2222
6222
A222
24C2
20C2
20C2
2184
2184
2204
2408
3830
ENDCHAR
STARTCHAR 4EDF
ENCODING 20191
SWIDTH 1020 0
DWIDTH 17 0
BBX 16 17 0 -2
BITMAP
100C
1030
1030
17E0
1020
2020
2020
6FFF
A020
2020
2020
2020
2020
2020
2020
2020
2020
ENDCHAR
STARTCHAR 4EE3
ENCODING 20195
SWIDTH 1020 0
DWIDTH 17 0
BBX 16 17 0 -2
BITMAP
0828
0824
0824
0824
1020
1FFF
3020
5020
9020
1010
1010
1010
1008
1008
1005
1003
1001
ENDCHAR
STARTCHAR 4EE4
ENCODING 20196
SWIDTH 1020 0
DWIDTH 17 0
BBX 16 17 0 -2
BITMAP
0180
0180
0180
02C0
0420
0810
17E8
2004
C003
3FF8
0208
0208
0208
0208
0238
0200
0200
ENDCHAR
STARTCHAR 4EE5
ENCODING 20197
SWIDTH 1020 0
DWIDTH 17 0
BBX 16 17 0 -2
BITMAP
2004
2004
2004
2404
2204
2184
2184
2004
2004
2004
2008
2188
2608
3814
E022
01C1
0601
ENDCHAR
STARTCHAR 4EED
ENCODING 20205
SWIDTH 1020 0
DWIDTH 17 0
BBX 16 17 0 -2
BITMAP
1000
1000
1000
17FE
1022
2422
2422
6222
A222
21A2
20C2
20E2
2194
218F
2204
2408
2830
ENDCHAR
STARTCHAR 4EEE
ENCODING 20206
SWIDTH 1020 0
DWIDTH 17 0
BBX 16 17 0 -2
BITMAP
0800
0BFF
0BFF
1200
1200
2200
23FC
62C4
A2C4
2228
2228
2210
2410
2428
28C4
3182
2601
ENDCHAR
STARTCHAR 4EF0
ENCODING 20208
SWIDTH 1020 0
DWIDTH 17 0
BBX 15 17 0 -2
BITMAP
08E0
0980
0980
163E
1422
2422
2422
6422
A422
2422
2422
25E2
262E
2C20
2020
2020
2020
ENDCHAR
STARTCHAR 4EF2
ENCODING 20210
SWIDTH 1020 0
DWIDTH 17 0
BBX 15 17 0 -2
BITMAP
0820
0820
0820
1020
1020
27FE
2422
6422
A422
2422
27FE
2422
2020
2020
2020
2020
2020
ENDCHAR
STARTCHAR 4EF6
ENCODING 20214
SWIDTH 1020 0
DWIDTH 17 0
BBX 16 17 0 -2
BITMAP
0820
0A20
0A20
1220
1220
27FE
2420
6820
A020
2FFF
2020
2020
2020
2020
2020
2020
2020
ENDCHAR
STARTCHAR 4EF7
ENCODING 20215
SWIDTH 1020 0
DWIDTH 17 0
BBX 16 17 0 -2
BITMAP
10C0
10C0
10C0
11A0
2190
2208
2404
6A13
A210
2210
2210
2210
2210
2210
2210
2410
3810
ENDCHAR
STARTCHAR 4EFB
ENCODING 20219
SWIDTH 1020 0
DWIDTH 17 0
BBX 16 17 0 -2
BITMAP
0804
0818
0818
17E0
1020
2020
2020
6020
AFFF
2020
2020
2020
2020
2020
2020
27FE
2000
ENDCHAR
STARTCHAR 4F01
ENCODING 20225
SWIDTH 1020 0
DWIDTH 17 0
BBX 16 16 0 -1
BITMAP
0180
0180
0180
02C0
0420
0810
1188
2184
C183
0980
09FC
0980
0980
0980
0980
FFFF
ENDCHAR
STARTCHAR 4F09
ENCODING 20233
SWIDTH 1020 0
DWIDTH 17 0
BBX 16 17 0 -2
BITMAP
10C0
10C0
10C0
10C0
1FFE
2000
2000
63F0
A210
2210
2210
2210
2210
2410
2411
2811
300F
ENDCHAR
STARTCHAR 4F0A
ENCODING 20234
SWIDTH 1020 0
DWIDTH 17 0
BBX 16 17 0 -2
BITMAP
1000
17FC
17FC
1024
1024
2FFF
2024
6024
A024
27FC
2024
2020
20C0
20C0
2180
2200
2C00
ENDCHAR
STARTCHAR 4F0D
ENCODING 20237
SWIDTH 1020 0
DWIDTH 17 0
BBX 16 17 0 -2
BITMAP
0800
0FFE
0FFE
10C0
10C0
10C0
20C0
67F8
A188
2188
2188
2188
2208
2208
2208
3FFF
2000
ENDCHAR
STARTCHAR 4F0E
ENCODING 20238
SWIDTH 1020 0
DWIDTH 17 0
BBX 16 17 0 -2
BITMAP
0820
0820
0820
1020
1FFF
1020
2020
6020
A7FC
2204
2188
2188
20D0
2020
20D0
238C
2C03
ENDCHAR
STARTCHAR 4F0F
ENCODING 20239
SWIDTH 1020 0
DWIDTH 17 0
BBX 16 17 0 -2
BITMAP
08C0
08D0
08D0
10C8
10C4
20C0
2FFF
60C0
A0C0
21A0
21A0
2190
2210
2208
2408
2804
3003
ENDCHAR
STARTCHAR 4F10
ENCODING 20240
SWIDTH 1020 0
DWIDTH 17 0
BBX 16 17 0 -2
BITMAP
08D0
08C8
08C8
10C4
10C0
20FF
2FC0
60C4
A024
2028
2028
2010
2030
20C8
2388
2C05
2003
ENDCHAR
STARTCHAR 4F11
ENCODING 20241
SWIDTH 1020 0
DWIDTH 17 0
BBX 16 17 0 -2
BITMAP
0820
0820
0820
1020
1020
1FFF
2020
20F0
61A8
A1A8
2224
2224
2422
2821
2020
2020
2020
ENDCHAR
STARTCHAR 4F1A
ENCODING 20250
SWIDTH 1020 0
DWIDTH 17 0
BBX 16 17 0 -2
BITMAP
0180
0180
0180
02C0
0420
0810
1008
2FF4
C003
0000
7FFE
0200
0420
0410
0BF8
7C04
0004
ENDCHAR
STARTCHAR 4F1C
ENCODING 20252
SWIDTH 1020 0
DWIDTH 17 0
BBX 16 17 0 -2
BITMAP
08C0
08C0
08C0
17F8
10C8
20C8
2188
6209
AC27
2020
2020
2FFE
2020
2020
2020
2020
2020
ENDCHAR
STARTCHAR 4F1D
ENCODING 20253
SWIDTH 1020 0
DWIDTH 17 0
BBX 16 17 0 -2
BITMAP
0800
0800
0800
13FE
1000
2000
2000
6FFF
A0C0
20C0
20C0
2188
2184
2182
223E
2FC1
2001
ENDCHAR
STARTCHAR 4F2F
ENCODING 20271
SWIDTH 1020 0
DWIDTH 17 0
BBX 15 17 0 -2
BITMAP
0820
0820
0820
1020
10C0
23FE
2202
6202
A202
2202
23FE
2202
2202
2202
2202
23FE
2202
ENDCHAR
STARTCHAR 4F30
ENCODING 20272
SWIDTH 1020 0
DWIDTH 17 0
BBX 16 17 0 -2
BITMAP
1020
1020
1020
1020
1020
2FFF
2020
6020
A020
2020
23FC
2204
2204
2204
2204
23FC
2204
ENDCHAR
STARTCHAR 4F34
ENCODING 20276
SWIDTH 1020 0
DWIDTH 17 0
BBX 16 17 0 -2
BITMAP
0820
0A24
0A24
11A4
11A8
2020
27FE
6020
A020
2020
2FFF
2020
2020
2020
2020
2020
2020
ENDCHAR
STARTCHAR 4F36
ENCODING 20278
SWIDTH 1020 0
DWIDTH 17 0
BBX 16 17 0 -2
BITMAP
08C0
08C0
08C0
11A0
1190
2208
25F4
6803
B000
2FFC
20C4
20C4
20C4
20C4
20DC
20C0
20C0
ENDCHAR
STARTCHAR 4F38
ENCODING 20280
SWIDTH 1020 0
DWIDTH 17 0
BBX 15 17 0 -2
BITMAP
0820
0820
0820
1020
17FE
2422
2422
67FE
A422
2422
27FE
2422
2020
2020
2020
2020
2020
ENDCHAR
STARTCHAR 4F3A
ENCODING 20282
SWIDTH 1020 0
DWIDTH 17 0
BBX 15 17 0 -2
BITMAP
1000
1FFE
1FFE
1002
2002
2FF2
2002
6002
A7E2
2422
2422
27E2
2422
2002
2002
2002
2006
ENDCHAR
STARTCHAR 4F3C
ENCODING 20284
SWIDTH 1020 0
DWIDTH 17 0
BBX 16 17 0 -2
BITMAP
1404
1404
1404
1584
24C4
2424
2424
6404
A404
2404
2424
24C8
2588
2614
2C22
20C1
2381
ENDCHAR
STARTCHAR 4F3D
ENCODING 20285
SWIDTH 1020 0
DWIDTH 17 0
BBX 15 17 0 -2
BITMAP
1200
1200
1200
1200
1200
3FDE
24D2
64D2
A4D2
24D2
24D2
24D2
24D2
2992
299E
2992
3600
ENDCHAR
STARTCHAR 4F43
ENCODING 20291
SWIDTH 1020 0
DWIDTH 17 0
BBX 15 17 0 -2
BITMAP
0800
0800
0800
17FE
1422
2422
2422
6422
A7FE
2422
2422
2422
2422
2422
27FE
2402
2000
ENDCHAR
STARTCHAR 4F46
ENCODING 20294
SWIDTH 1020 0
DWIDTH 17 0
BBX 16 17 0 -2
BITMAP
0800
0BFC
0BFC
1204
1204
2204
2204
63FC
A204
2204
2204
2204
23FC
2204
2000
2FFF
2000
ENDCHAR
STARTCHAR 4F47
ENCODING 20295
SWIDTH 1020 0
DWIDTH 17 0
BBX 16 17 0 -2
BITMAP
0820
0820
0820
1020
17FE
2402
2402
6000
AFFF
2020
2020
2020
2020
2020
2020
2020
20E0
ENDCHAR
STARTCHAR 4F4D
ENCODING 20301
SWIDTH 1020 0
DWIDTH 17 0
BBX 16 17 0 -2
BITMAP
0820
0820
0820
1020
1020
27FE
2000
6404
A204
2204
2188
2188
2188
2190
2010
2FFF
2000
ENDCHAR
STARTCHAR 4F4E
ENCODING 20302
SWIDTH 1020 0
DWIDTH 17 0
BBX 16 17 0 -2
BITMAP
0804
0818
0818
13E0
1220
2220
23FF
6220
A210
2210
2210
22E8
2388
2C04
2005
27FB
2001
ENDCHAR
STARTCHAR 4F4F
ENCODING 20303
SWIDTH 1020 0
DWIDTH 17 0
BBX 16 17 0 -2
BITMAP
08C0
0820
0820
1010
1000
27FE
2020
6020
A020
2020
23FC
2020
2020
2020
2020
2FFF
2000
ENDCHAR
STARTCHAR 4F50
ENCODING 20304
SWIDTH 1020 0
DWIDTH 17 0
BBX 16 17 0 -2
BITMAP
08C0
08C0
08C0
10C0
1180
2FFF
2180
6200
A200
27FC
2820
3020
2020
2020
2020
2FFF
2000
ENDCHAR
STARTCHAR 4F51
ENCODING 20305
SWIDTH 1020 0
DWIDTH 17 0
BBX 16 17 0 -2
BITMAP
08C0
08C0
08C0
10C0
1FFF
20C0
2180
6180
A200
23FC
2604
2A04
3204
2204
2204
23FC
2204
ENDCHAR
STARTCHAR 4F53
ENCODING 20307
SWIDTH 1020 0
DWIDTH 17 0
BBX 16 17 0 -2
BITMAP
10C0
10C0
10C0
10C0
10C0
2FFE
20C0
61E0
A1D0
22D0
22C8
24C8
2BF4
30C3
20C0
20C0
20C0
ENDCHAR
STARTCHAR 4F55
ENCODING 20309
SWIDTH 1020 0
DWIDTH 17 0
BBX 16 17 0 -2
BITMAP
1000
1000
1000
1FFF
1004
2004
27C4
64C4
A4C4
24C4
27C4
24C4
2004
2004
2004
2004
200C
ENDCHAR
STARTCHAR 4F57
ENCODING 20311
SWIDTH 1020 0
DWIDTH 17 0
BBX 15 17 0 -2
BITMAP
1020
1020
1020
1020
17FE
2402
2582
6180
A184
2198
21E0
2180
2180
2180
2184
2184
20FC
ENDCHAR
STARTCHAR 4F59
ENCODING 20313
SWIDTH 1020 0
DWIDTH 17 0
BBX 16 17 0 -2
BITMAP
0180
02C0
02C0
0420
0810
1008
2FF4
C183
0180
7FFC
0180
0990
0988
1184
2182
4182
0380
ENDCHAR
STARTCHAR 4F5A
ENCODING 20314
SWIDTH 1020 0
DWIDTH 17 0
BBX 16 17 0 -2
BITMAP
1020
1220
1220
1220
17FE
2420
2820
6020
BFFF
2020
20D0
20D0
2190
2188
2208
2404
3803
ENDCHAR
STARTCHAR 4F5B
ENCODING 20315
SWIDTH 1020 0
DWIDTH 17 0
BBX 15 17 0 -2
BITMAP
1190
1190
1190
1FFC
1194
2194
2FFC
6994
A990
2FFE
2992
2192
2192
221C
2210
2410
2810
ENDCHAR
STARTCHAR 4F5C
ENCODING 20316
SWIDTH 1020 0
DWIDTH 17 0
BBX 16 17 0 -2
BITMAP
08C0
08C0
08C0
0980
11FF
12C0
22C0
64FC
A8C0
20C0
20C0
20FE
20C0
20C0
20C0
20C0
20C0
ENDCHAR
STARTCHAR 4F5D
ENCODING 20317
SWIDTH 1020 0
DWIDTH 17 0
BBX 15 17 0 -2
BITMAP
1200
1200
1200
1200
27FE
2402
2402
6FE2
B422
2422
2422
27E2
2422
2002
2004
2004
2018
ENDCHAR
STARTCHAR 4F5E
ENCODING 20318
SWIDTH 1020 0
DWIDTH 17 0
BBX 16 17 0 -2
BITMAP
0800
0BFC
0BFC
1000
1000
2FFF
20C0
60C0
A180
2FFF
2188
2210
27D0
2020
20D8
2384
2C02
ENDCHAR
STARTCHAR 4F69
ENCODING 20329
SWIDTH 1020 0
DWIDTH 17 0
BBX 16 17 0 -2
BITMAP
1000
17FE
17FE
1402
1402
25FA
2422
6422
A5FA
25AA
25AA
25AA
25AA
25BA
2822
2821
3021
ENDCHAR
STARTCHAR 4F6F
ENCODING 20335
SWIDTH 1020 0
DWIDTH 17 0
BBX 16 17 0 -2
BITMAP
0988
08C8
08C8
10D0
17FE
2020
2020
63FC
A020
2020
2020
2FFF
2020
2020
2020
2020
2020
ENDCHAR
STARTCHAR 4F70
ENCODING 20336
SWIDTH 1020 0
DWIDTH 17 0
BBX 16 17 0 -2
BITMAP
1000
17FF
17FF
1020
1020
20C0
23FC
6204
A204
2204
23FC
2204
2204
2204
2204
23FC
2204
ENDCHAR
STARTCHAR 4F73
ENCODING 20339
SWIDTH 1020 0
DWIDTH 17 0
BBX 16 17 0 -2
BITMAP
08C0
08C0
08C0
10C0
17FC
20C0
20C0
6FFE
A000
20C0
20C0
27FE
20C0
20C0
20C0
2FFF
2000
ENDCHAR
STARTCHAR 4F75
ENCODING 20341
SWIDTH 1020 0
DWIDTH 17 0
BBX 16 17 0 -2
BITMAP
0988
08C8
08C8
10D0
17FE
2188
2188
6188
AFFF
2188
2188
2188
2188
2208
2208
2408
3808
ENDCHAR
STARTCHAR 4F76
ENCODING 20342
SWIDTH 1020 0
DWIDTH 17 0
BBX 16 17 0 -2
BITMAP
1020
1020
1020
1020
1FFF
2020
2020
6020
A7FE
2000
2000
23FC
2204
2204
2204
23FC
2204
ENDCHAR
STARTCHAR 4F7B
ENCODING 20347
SWIDTH 1020 0
DWIDTH 17 0
BBX 16 17 0 -2
BITMAP
1190
1190
1190
1190
1192
2992
259C
6590
A190
239C
2592
3992
2190
2210
2211
2411
380F
ENDCHAR
STARTCHAR 4F7C
ENCODING 20348
SWIDTH 1020 0
DWIDTH 17 0
BBX 16 17 0 -2
BITMAP
0820
0820
0820
1020
1FFF
20D0
2188
6204
AD8B
2188
20D0
20D0
2020
20D0
2188
2204
2C03
ENDCHAR
STARTCHAR 4F7F
ENCODING 20351
SWIDTH 1020 0
DWIDTH 17 0
BBX 16 17 0 -2
BITMAP
1020
1020
1020
1FFF
1020
2020
27FC
6424
A424
27FC
2224
2220
21C0
20C0
21A0
2218
2C07
ENDCHAR
STARTCHAR 4F83
ENCODING 20355
SWIDTH 1020 0
DWIDTH 17 0
BBX 16 17 0 -2
BITMAP
0800
0BFC
0BFC
0A04
1204
1204
23FC
6204
A000
2228
2228
2228
2228
2228
2229
2429
2807
ENDCHAR
STARTCHAR 4F86
ENCODING 20358
SWIDTH 1020 0
DWIDTH 17 0
BBX 16 17 0 -2
BITMAP
0180
0180
0180
FFFF
0180
1188
1188
1188
2994
2BD2
45A1
85A0
0990
1188
2184
C183
0180
ENDCHAR
STARTCHAR 4F88
ENCODING 20360
SWIDTH 1020 0
DWIDTH 17 0
BBX 15 17 0 -2
BITMAP
10C0
10C0
10C0
11FC
2388
2CD0
2020
60C0
A3A0
2C3E
20C2
21C4
2628
2010
2020
21C0
2E00
ENDCHAR
STARTCHAR 4F8B
ENCODING 20363
SWIDTH 1020 0
DWIDTH 17 0
BBX 15 17 0 -2
BITMAP
1002
1FE2
1FE2
1412
1412
2412
27D2
64D2
A8D2
2CD2
3392
2192
2202
2202
2402
2802
3006
ENDCHAR
STARTCHAR 4F8D
ENCODING 20365
SWIDTH 1020 0
DWIDTH 17 0
BBX 16 17 0 -2
BITMAP
0820
0820
0820
17FE
1020
2020
2FFF
6008
A008
27FF
2408
2208
2188
2188
2008
2008
2018
ENDCHAR
STARTCHAR 4F8F
ENCODING 20367
SWIDTH 1020 0
DWIDTH 17 0
BBX 16 17 0 -2
BITMAP
1020
1220
1220
1220
13FE
2420
2820
6020
BFFF
20E0
21B0
21A8
2228
2424
2823
2020
2020
ENDCHAR
STARTCHAR 4F91
ENCODING 20369
SWIDTH 1020 0
DWIDTH 17 0
BBX 16 17 0 -2
BITMAP
0820
0820
0820
17FF
10C0
2180
21FC
6384
A584
29FC
2184
2184
21FC
2184
2184
2184
218C
ENDCHAR
STARTCHAR 4F96
ENCODING 20374
SWIDTH 1020 0
DWIDTH 17 0
BBX 16 17 0 -2
BITMAP
0180
02C0
02C0
0420
0810
1008
2FF4
C003
3FFC
24C4
24C4
3FFC
24C4
24C4
24C4
24C4
200C
ENDCHAR
STARTCHAR 4F98
ENCODING 20376
SWIDTH 1020 0
DWIDTH 17 0
BBX 16 17 0 -2
BITMAP
10C0
10C0
10C0
10C0
17FE
2402
241A
60E0
A7C0
20C0
2FFF
20C0
20C0
20C0
20C2
20C2
203E
ENDCHAR
STARTCHAR 4F9B
ENCODING 20379
SWIDTH 1020 0
DWIDTH 17 0
BBX 16 17 0 -2
BITMAP
0990
0990
0990
1190
1190
17FE
2190
6190
A190
2190
2190
3FFF
2000
2190
2208
2404
3803
ENDCHAR
STARTCHAR 4F9D
ENCODING 20381
SWIDTH 1020 0
DWIDTH 17 0
BBX 16 17 0 -2
BITMAP
1020
1020
1020
1020
1FFF
20C0
21C4
61A4
A224
2628
2A10
2210
2208
2208
22E4
2382
2C01
ENDCHAR
STARTCHAR 4FA0
ENCODING 20384
SWIDTH 1020 0
DWIDTH 17 0
BBX 16 17 0 -2
BITMAP
0820
0820
0820
1020
17FE
1422
2224
6224
A1A8
2FFF
2020
20D0
20D0
2188
2188
2204
2C03
ENDCHAR
STARTCHAR 4FA1
ENCODING 20385
SWIDTH 1020 0
DWIDTH 17 0
BBX 16 17 0 -2
BITMAP
1000
17FF
17FF
10D0
10D0
20D0
20D0
67FE
A4D2
24D2
24D2
24D2
24D2
24D2
24D2
27FE
2402
ENDCHAR
STARTCHAR 4FAB
ENCODING 20395
SWIDTH 1020 0
DWIDTH 17 0
BBX 16 17 0 -2
BITMAP
0820
0C20
0C20
17FF
1400
2400
2400
63FE
A0C0
20C0
2FFF
2188
2208
23D0
2030
21CC
2E02
ENDCHAR
STARTCHAR 4FAD
ENCODING 20397
SWIDTH 1020 0
DWIDTH 17 0
BBX 16 17 0 -2
BITMAP
0800
0BFC
0BFC
1204
1204
2204
23FC
6214
A210
25C8
2428
2414
2B82
30C1
2020
2010
2008
ENDCHAR
STARTCHAR 4FAE
ENCODING 20398
SWIDTH 1020 0
DWIDTH 17 0
BBX 16 17 0 -2
BITMAP
0980
0980
0980
13FF
1200
2600
2BFC
7224
A224
2FFF
2224
2224
2424
27FF
2408
2008
2030
ENDCHAR
STARTCHAR 4FAF
ENCODING 20399
SWIDTH 1020 0
DWIDTH 17 0
BBX 16 17 0 -2
BITMAP
0800
0BF8
0BF8
1008
1008
2FFF
2180
6180
A3FC
2220
2420
2FFF
20D0
20D0
2188
2204
2C03
ENDCHAR
STARTCHAR 4FB5
ENCODING 20405
SWIDTH 1020 0
DWIDTH 17 0
BBX 16 17 0 -2
BITMAP
0800
0BF8
0BF8
1008
13F8
2008
23F8
6000
AFFE
2802
2BFA
2208
2190
20E0
20D0
238C
2C03
ENDCHAR
STARTCHAR 4FB6
ENCODING 20406
SWIDTH 1020 0
DWIDTH 17 0
BBX 15 17 0 -2
BITMAP
0800
0BFC
0BFC
1204
1204
2204
23FC
62C4
A0C0
2180
27FE
2402
2402
2402
2402
27FE
2402
ENDCHAR
STARTCHAR 4FBF
ENCODING 20415
SWIDTH 1020 0
DWIDTH 17 0
BBX 16 17 0 -2
BITMAP
1000
17FF
17FF
1020
17FC
2424
2424
67FC
A424
2424
27FC
25A4
20C0
20C0
21A0
2618
3807
ENDCHAR
STARTCHAR 4FC2
ENCODING 20418
SWIDTH 1020 0
DWIDTH 17 0
BBX 16 17 0 -2
BITMAP
080C
0830
0830
17C0
10C8
2390
21A8
60C4
A19E
2FE1
2021
2228
2224
2222
2421
2821
2020
ENDCHAR
STARTCHAR 4FC3
ENCODING 20419
SWIDTH 1020 0
DWIDTH 17 0
BBX 16 17 0 -2
BITMAP
0800
0BFC
0BFC
1204
1204
1204
23FC
6224
A020
2220
223E
2220
2220
2220
25A0
28E0
301F
ENDCHAR
STARTCHAR 4FC4
ENCODING 20420
SWIDTH 1020 0
DWIDTH 17 0
BBX 16 17 0 -2
BITMAP
10D0
1394
1394
1E12
2212
2210
3FFF
6210
A212
23D2
2E14
2208
2208
2214
2225
22C3
2781
ENDCHAR
STARTCHAR 4FCA
ENCODING 20426
SWIDTH 1020 0
DWIDTH 17 0
BBX 16 17 0 -2
BITMAP
08C0
08C8
08C8
1184
17FE
20D2
2190
6210
ACCF
20C0
21FC
2388
2CD0
2020
20D0
238C
2C03
ENDCHAR
STARTCHAR 4FCE
ENCODING 20430
SWIDTH 1020 0
DWIDTH 17 0
BBX 16 15 0 -1
BITMAP
11F8
11F8
1188
1188
2988
25F8
4588
9188
1188
11F8
2988
2588
4588
8188
0FFF
ENDCHAR
STARTCHAR 4FD0
ENCODING 20432
SWIDTH 1020 0
DWIDTH 17 0
BBX 15 17 0 -2
BITMAP
0822
09C2
09C2
1792
1192
2192
2FF2
6192
A3D2
25B2
2592
2992
3182
2182
2182
2182
2186
ENDCHAR
STARTCHAR 4FD1
ENCODING 20433
SWIDTH 1020 0
DWIDTH 17 0
BBX 15 17 0 -2
BITMAP
0800
0BFC
0BFC
1188
10D0
2020
27FE
6422
A422
27FE
2422
2422
27FE
2422
2422
2422
2406
ENDCHAR
STARTCHAR 4FD4
ENCODING 20436
SWIDTH 1020 0
DWIDTH 17 0
BBX 16 17 0 -2
BITMAP
0800
0BFC
0BFC
1204
13FC
2204
2204
63FC
A204
2204
23FC
22D4
20D0
2190
2191
2611
380F
ENDCHAR
STARTCHAR 4FD7
ENCODING 20439
SWIDTH 1020 0
DWIDTH 17 0
BBX 16 17 0 -2
BITMAP
1210
1210
1210
1208
14C4
24C2
29A0
6190
A208
2404
3803
23F8
2208
2208
2208
23F8
2208
ENDCHAR
STARTCHAR 4FD8
ENCODING 20440
SWIDTH 1020 0
DWIDTH 17 0
BBX 16 17 0 -2
BITMAP
100E
17F8
17F8
12C4
1222
2422
2BFC
6008
A030
2020
2FFF
2020
2020
2020
2020
2020
20E0
ENDCHAR
STARTCHAR 4FDA
ENCODING 20442
SWIDTH 1020 0
DWIDTH 17 0
BBX 16 17 0 -2
BITMAP
0800
0BFC
0BFC
1224
1224
23FC
2224
6224
A3FC
2224
2020
27FE
2020
2020
2020
2FFF
2000
ENDCHAR
STARTCHAR 4FDB
ENCODING 20443
SWIDTH 1020 0
DWIDTH 17 0
BBX 16 17 0 -2
BITMAP
0980
0980
0980
13F8
1210
2420
2FFC
74C4
A4C4
24C4
27FC
25A4
21A0
21A0
2221
2421
381F
ENDCHAR
STARTCHAR 4FDD
ENCODING 20445
SWIDTH 1020 0
DWIDTH 17 0
BBX 16 17 0 -2
BITMAP
0800
0BFC
0BFC
1204
1204
2204
23FC
6224
A020
2FFF
20F0
21A8
21A8
2224
2C23
2020
2020
ENDCHAR
STARTCHAR 4FDF
ENCODING 20447
SWIDTH 1020 0
DWIDTH 17 0
BBX 16 17 0 -2
BITMAP
08C0
08C0
08C0
1188
119C
2FE2
2202
6200
A7FC
24C0
28C0
3FFE
21A0
2190
2208
2404
3803
ENDCHAR
STARTCHAR 4FE1
ENCODING 20449
SWIDTH 1020 0
DWIDTH 17 0
BBX 16 17 0 -2
BITMAP
0800
0BFC
0BFC
1000
17FF
2000
23FC
6000
A3FC
2000
2000
23FC
2204
2204
2204
23FC
2204
ENDCHAR
STARTCHAR 4FE3
ENCODING 20451
SWIDTH 1020 0
DWIDTH 17 0
BBX 16 17 0 -2
BITMAP
0800
0BFC
0BFC
1204
1204
2204
23FC
6000
A7FE
2020
2020
2FFF
20D0
20D0
2188
2204
2C03
ENDCHAR
STARTCHAR 4FE4
ENCODING 20452
SWIDTH 1020 0
DWIDTH 17 0
BBX 15 17 0 -2
BITMAP
0A10
0990
0990
11A0
17FC
2024
2024
67FC
A424
2420
2FFE
28E2
21A2
2222
2C2C
2020
2020
ENDCHAR
STARTCHAR 4FE5
ENCODING 20453
SWIDTH 1020 0
DWIDTH 17 0
BBX 16 17 0 -2
BITMAP
0820
0820
0820
17FE
1020
2020
23FC
6224
A3FC
2224
23FC
2224
2020
2FFF
2020
2020
2020
ENDCHAR
STARTCHAR 4FEE
ENCODING 20462
SWIDTH 1020 0
DWIDTH 17 0
BBX 16 17 0 -2
BITMAP
10C0
10C0
10C0
11FF
2984
2AC8
2C30
6828
A9D4
2E13
2828
2BCA
2812
28E4
2388
2030
23C0
ENDCHAR
STARTCHAR 4FEF
ENCODING 20463
SWIDTH 1020 0
DWIDTH 17 0
BBX 16 17 0 -2
BITMAP
0820
0820
0820
17FF
14C0
24C4
24C4
65BF
A584
27A4
2594
2594
2584
2984
2984
3184
218C
ENDCHAR
STARTCHAR 4FF3
ENCODING 20467
SWIDTH 1020 0
DWIDTH 17 0
BBX 16 17 0 -2
BITMAP
1190
1190
1190
1190
2F9F
2190
2190
6F9E
A190
2190
2390
2D9F
2210
2210
2410
2810
3010
ENDCHAR
STARTCHAR 4FF5
ENCODING 20469
SWIDTH 1020 0
DWIDTH 17 0
BBX 16 17 0 -2
BITMAP
0820
0820
0820
17FE
1020
23FC
2020
6020
AFFF
21A2
2394
2594
3988
2188
21A4
21C2
2601
ENDCHAR
STARTCHAR 4FF6
ENCODING 20470
SWIDTH 1020 0
DWIDTH 17 0
BBX 16 17 0 -2
BITMAP
1200
1200
1200
123E
13D2
2212
2212
7FF2
A214
2B94
2AD4
2AC8
32C8
2214
2614
2022
21C1
ENDCHAR
STARTCHAR 4FF8
ENCODING 20472
SWIDTH 1020 0
DWIDTH 17 0
BBX 16 17 0 -2
BITMAP
0820
0820
0820
17FE
1020
23FC
20D0
6FFF
A188
2224
2423
3BFC
2020
27FE
2020
2020
2020
ENDCHAR
STARTCHAR 4FFA
ENCODING 20474
SWIDTH 1020 0
DWIDTH 17 0
BBX 16 17 0 -2
BITMAP
08C0
08C0
08C0
10C0
1FFE
11A0
22D0
64C8
AFFC
34CB
27F8
24C8
27F8
24C8
20C2
20C2
203E
ENDCHAR
STARTCHAR 4FFE
ENCODING 20478
SWIDTH 1020 0
DWIDTH 17 0
BBX 16 17 0 -2
BITMAP
08C0
08C0
08C0
13FC
1224
2224
23FC
6224
A224
23FC
2194
2210
2FFF
2010
2010
2010
2010
ENDCHAR
STARTCHAR 5005
ENCODING 20485
SWIDTH 1020 0
DWIDTH 17 0
BBX 16 17 0 -2
BITMAP
0820
0820
0820
1020
17FE
2000
2208
6208
A594
24D2
2822
3FFF
2020
2020
2020
2020
2020
ENDCHAR
STARTCHAR 5006
ENCODING 20486
SWIDTH 1020 0
DWIDTH 17 0
BBX 16 17 0 -2
BITMAP
1000
17FF
17FF
1020
1020
2020
27FE
6422
A7BA
25AA
25AA
25AA
26F6
2422
2422
2422
2406
ENDCHAR
STARTCHAR 5009
ENCODING 20489
SWIDTH 1020 0
DWIDTH 17 0
BBX 16 17 0 -2
BITMAP
0180
02C0
02C0
0420
0BD0
1008
2FF4
C813
0FF0
0810
0FF0
1000
1FF8
2808
4808
0FF8
0808
ENDCHAR
STARTCHAR 500B
ENCODING 20491
SWIDTH 1020 0
DWIDTH 17 0
BBX 15 17 0 -2
BITMAP
1000
17FE
17FE
1402
1422
2422
27FE
6422
A422
25FA
258A
258A
25FA
258A
2402
27FE
2402
ENDCHAR
STARTCHAR 500D
ENCODING 20493
SWIDTH 1020 0
DWIDTH 17 0
BBX 16 17 0 -2
BITMAP
0820
0820
0820
1020
17FE
2208
2188
6190
AFFF
2000
2000
23FC
2204
2204
2204
23FC
2204
ENDCHAR
STARTCHAR 500F
ENCODING 20495
SWIDTH 1020 0
DWIDTH 17 0
BBX 16 17 0 -2
BITMAP
10C0
10C0
10C0
11FC
11A4
2A28
2C10
68EC
AB93
2828
2824
2BFE
2820
28D0
2188
2204
2C03
ENDCHAR
STARTCHAR 5011
ENCODING 20497
SWIDTH 1020 0
DWIDTH 17 0
BBX 15 17 0 -2
BITMAP
1000
17DE
17DE
14D2
17DE
24D2
24D2
67DE
A4D2
2402
2402
2402
2402
2402
2402
2402
2406
ENDCHAR
STARTCHAR 5012
ENCODING 20498
SWIDTH 1020 0
DWIDTH 17 0
BBX 15 17 0 -2
BITMAP
1002
1FEA
1FEA
120A
22CA
242A
2FEA
6A2A
A20A
220A
2FEA
220A
2202
23E2
2E02
2002
2006
ENDCHAR
STARTCHAR 5014
ENCODING 20500
SWIDTH 1020 0
DWIDTH 17 0
BBX 15 17 0 -2
BITMAP
1000
17FC
17FC
1404
1404
27FC
2410
6594
A594
2594
25FC
2594
2A12
2A12
3212
23FE
2202
ENDCHAR
STARTCHAR 5016
ENCODING 20502
SWIDTH 1020 0
DWIDTH 17 0
BBX 16 17 0 -2
BITMAP
0820
0820
0820
17FE
1020
1020
2FFF
6188
A0D0
2FFF
2020
2020
27FE
2020
2020
2020
2020
ENDCHAR
STARTCHAR 5019
ENCODING 20505
SWIDTH 1020 0
DWIDTH 17 0
BBX 16 17 0 -2
BITMAP
1000
11F8
11F8
1008
2808
2BFF
2980
6980
ABFE
2C20
2820
2FFF
28D0
28D0
2188
2204
2C03
ENDCHAR
STARTCHAR 501A
ENCODING 20506
SWIDTH 1020 0
DWIDTH 17 0
BBX 16 17 0 -2
BITMAP
08C0
08C0
08C0
17FE
11A0
2210
2408
7FFF
A004
2004
27E4
2424
2424
27E4
2424
2004
200C
ENDCHAR
STARTCHAR 501F
ENCODING 20511
SWIDTH 1020 0
DWIDTH 17 0
BBX 16 17 0 -2
BITMAP
1190
1190
1190
17FE
2190
2190
2FFF
6000
A000
23F8
2208
2208
23F8
2208
2208
23F8
2208
ENDCHAR
STARTCHAR 5021
ENCODING 20513
SWIDTH 1020 0
DWIDTH 17 0
BBX 15 17 0 -2
BITMAP
0800
0BFC
0BFC
1204
13FC
2204
2204
63FC
A204
2000
27FE
2402
27FE
2402
2402
27FE
2402
ENDCHAR
STARTCHAR 5023
ENCODING 20515
SWIDTH 1020 0
DWIDTH 17 0
BBX 16 17 0 -2
BITMAP
1210
1210
1210
1210
1FD0
243F
2424
67D4
A4D4
24D4
24D4
24C8
24C8
28D4
2994
31A2
26C1
ENDCHAR
STARTCHAR 5024
ENCODING 20516
SWIDTH 1020 0
DWIDTH 17 0
BBX 16 17 0 -2
BITMAP
0820
0820
0820
17FE
1020
2020
25FC
6584
A5FC
2584
25FC
2584
2584
25FC
2400
27FF
2400
ENDCHAR
STARTCHAR 5025
ENCODING 20517
SWIDTH 1020 0
DWIDTH 17 0
BBX 16 17 0 -2
BITMAP
0820
0820
0820
1020
17FE
2592
2592
6190
A20F
2C00
2000
27FE
2020
2020
2020
2FFF
2000
ENDCHAR
STARTCHAR 5026
ENCODING 20518
SWIDTH 1020 0
DWIDTH 17 0
BBX 16 17 0 -2
BITMAP
14C4
12C8
12C8
12D0
17FE
20C0
21A0
6FFF
A190
2208
27F4
3813
23F0
2210
2204
2204
21FC
ENDCHAR
STARTCHAR 5028
ENCODING 20520
SWIDTH 1020 0
DWIDTH 17 0
BBX 16 17 0 -2
BITMAP
1000
17FE
17FE
1402
1402
27FE
2412
6410
A7FF
2410
2410
25FE
2582
2982
2982
31FE
2182
ENDCHAR
STARTCHAR 5029
ENCODING 20521
SWIDTH 1020 0
DWIDTH 17 0
BBX 16 17 0 -2
BITMAP
0820
0820
0820
17FE
1020
23FC
2020
6FFF
A000
23FC
2224
2224
23FC
2204
2204
2204
220C
ENDCHAR
STARTCHAR 502A
ENCODING 20522
SWIDTH 1020 0
DWIDTH 17 0
BBX 16 17 0 -2
BITMAP
1020
10C0
10C0
179E
1402
2402
27DE
6402
A402
27FE
24D2
20D0
20D0
2190
2191
2211
2C0F
ENDCHAR
STARTCHAR 502B
ENCODING 20523
SWIDTH 1020 0
DWIDTH 17 0
BBX 16 17 0 -2
BITMAP
08C0
08C0
08C0
11A0
1190
2208
25F4
6803
B7FC
25A4
25A4
27FC
25A4
25A4
25A4
25A4
240C
ENDCHAR
STARTCHAR 502C
ENCODING 20524
SWIDTH 1020 0
DWIDTH 17 0
BBX 16 17 0 -2
BITMAP
0820
0820
0820
083E
1020
13FC
2204
63FC
A204
23FC
2224
2020
2FFF
2020
2020
2020
2020
ENDCHAR
STARTCHAR 502D
ENCODING 20525
SWIDTH 1020 0
DWIDTH 17 0
BBX 16 17 0 -2
BITMAP
0804
0838
0838
13E0
1020
2FFF
21B0
6228
A424
38C3
20C0
2FFF
2188
2388
20F0
21CC
2E02
ENDCHAR
STARTCHAR 5036
ENCODING 20534
SWIDTH 1020 0
DWIDTH 17 0
BBX 16 17 0 -2
BITMAP
0800
0BFC
0BFC
1204
13FC
1204
2204
63FC
A204
2204
23FC
2000
2FFF
2000
2188
2204
2C03
ENDCHAR
STARTCHAR 5039
ENCODING 20537
SWIDTH 1020 0
DWIDTH 17 0
BBX 16 17 0 -2
BITMAP
08C0
08E0
08E0
1190
1208
25F4
28C3
77FC
A4C4
24C4
27FC
24C4
21A0
2190
2208
2404
3803
ENDCHAR
STARTCHAR 5043
ENCODING 20547
SWIDTH 1020 0
DWIDTH 17 0
BBX 16 17 0 -2
BITMAP
1000
17FE
17FE
1400
14FC
24C4
24FC
64C4
A4FC
2420
27FF
24C8
25F0
242C
24C2
27FF
2400
ENDCHAR
STARTCHAR 5047
ENCODING 20551
SWIDTH 1020 0
DWIDTH 17 0
BBX 16 17 0 -2
BITMAP
1000
17DE
17DE
14C2
14C2
27DE
24C2
6400
A400
27FF
2422
2412
27D4
2408
2414
2422
25C1
ENDCHAR
STARTCHAR 5048
ENCODING 20552
SWIDTH 1020 0
DWIDTH 17 0
BBX 15 17 0 -2
BITMAP
0800
0BF8
0BF8
1208
13F8
2208
23F8
62C8
A180
23FE
2422
3A22
22D2
238A
23FC
2204
2018
ENDCHAR
STARTCHAR 5049
ENCODING 20553
SWIDTH 1020 0
DWIDTH 17 0
BBX 16 17 0 -2
BITMAP
08C0
08C0
08C0
13F8
1188
2FFE
2000
63F8
A208
23F8
2020
27FC
21A0
2FFF
2020
2020
2020
ENDCHAR
STARTCHAR 504F
ENCODING 20559
SWIDTH 1020 0
DWIDTH 17 0
BBX 15 17 0 -2
BITMAP
1000
17FE
17FE
1000
17FC
2404
2404
67FC
A400
27FE
2AD2
2AD2
2BFE
32D2
22D2
22D2
2206
ENDCHAR
STARTCHAR 5050
ENCODING 20560
SWIDTH 1020 0
DWIDTH 17 0
BBX 16 17 0 -2
BITMAP
0820
0820
0820
17FE
1188
20F0
2188
67FF
A408
2430
25C4
2408
2432
29C4
2818
30E0
2380
ENDCHAR
STARTCHAR 5055
ENCODING 20565
SWIDTH 1020 0
DWIDTH 17 0
BBX 15 17 0 -2
BITMAP
0A10
0A12
0A12
13DC
1210
2212
22F2
638E
ACC0
20C0
23FC
2204
23FC
2204
2204
23FC
2204
ENDCHAR
STARTCHAR 5056
ENCODING 20566
SWIDTH 1020 0
DWIDTH 17 0
BBX 16 17 0 -2
BITMAP
08C0
08C0
08C0
10C4
17FC
20C8
20D0
6FFF
A0D0
2188
27F8
3A08
23F8
2208
2208
23F8
2208
ENDCHAR
STARTCHAR 505A
ENCODING 20570
SWIDTH 1020 0
DWIDTH 17 0
BBX 16 17 0 -2
BITMAP
1210
1210
1210
1210
1210
2FFF
2224
62D4
A214
2FD4
28D4
28C8
28C8
2FD4
28D4
2022
21C1
ENDCHAR
STARTCHAR 505C
ENCODING 20572
SWIDTH 1020 0
DWIDTH 17 0
BBX 15 17 0 -2
BITMAP
0820
0820
0820
17FE
1000
21F8
2188
61F8
A000
27FE
2402
23FC
2020
2020
2020
2020
20E0
ENDCHAR
STARTCHAR 5065
ENCODING 20581
SWIDTH 1020 0
DWIDTH 17 0
BBX 16 17 0 -2
BITMAP
1010
1010
1010
1EFC
2214
25FF
2414
68FC
AE10
33FE
2A10
2A10
2BFF
2410
2410
2B80
30FF
ENDCHAR
STARTCHAR 506C
ENCODING 20588
SWIDTH 1020 0
DWIDTH 17 0
BBX 16 17 0 -2
BITMAP
0980
0980
0980
1200
13FE
24CA
2992
66D2
A022
21D4
2604
20D8
21A4
2592
2591
2989
20F8
ENDCHAR
STARTCHAR 5072
ENCODING 20594
SWIDTH 1020 0
DWIDTH 17 0
BBX 16 17 0 -2
BITMAP
0800
0BFC
0BFC
1224
1224
23FC
2224
6224
A3FC
2204
2020
20D4
22CA
22C9
22C1
2CC4
203C
ENDCHAR
STARTCHAR 5074
ENCODING 20596
SWIDTH 1020 0
DWIDTH 17 0
BBX 15 17 0 -2
BITMAP
1002
17CA
17CA
14CA
14CA
27CA
24CA
64CA
A7CA
24CA
24CA
27CA
24C2
2182
24C2
2422
2826
ENDCHAR
STARTCHAR 5075
ENCODING 20597
SWIDTH 1020 0
DWIDTH 17 0
BBX 16 17 0 -2
BITMAP
0820
0820
0820
103F
1020
23FC
2204
63FC
A204
2204
23FC
2204
2204
23FC
2188
2204
2C03
ENDCHAR
STARTCHAR 5076
ENCODING 20598
SWIDTH 1020 0
DWIDTH 17 0
BBX 15 17 0 -2
BITMAP
1000
17FC
17FC
14C4
14C4
27FC
24C4
64C4
A7FC
20C0
2FFE
28C2
28D2
28FA
2BCA
2802
2806
ENDCHAR
STARTCHAR 5078
ENCODING 20600
SWIDTH 1020 0
DWIDTH 17 0
BBX 16 17 0 -2
BITMAP
08C0
09A0
09A0
1190
1208
25F4
2803
77CA
A4CA
26CA
25D4
24D4
26D4
25D4
24CA
24CA
25CA
ENDCHAR
STARTCHAR 507D
ENCODING 20605
SWIDTH 1020 0
DWIDTH 17 0
BBX 15 17 0 -2
BITMAP
14C0
12C0
12C0
12C0
2FF0
2190
6190
A3F8
2208
2408
2FFE
30D2
25AA
25AA
2984
2804
2018
ENDCHAR
STARTCHAR 5080
ENCODING 20608
SWIDTH 1020 0
DWIDTH 17 0
BBX 16 17 0 -2
BITMAP
10C0
10C0
10C0
17FC
1424
2424
27FC
6424
A424
27FC
25A4
21A8
21AA
223E
2222
2421
381F
ENDCHAR
STARTCHAR 5085
ENCODING 20613
SWIDTH 1020 0
DWIDTH 17 0
BBX 16 17 0 -2
BITMAP
102C
1022
1022
1FFF
1020
23FC
2224
63FC
A224
23FC
2224
2008
2FFF
2208
2188
2008
2018
ENDCHAR
STARTCHAR 508D
ENCODING 20621
SWIDTH 1020 0
DWIDTH 17 0
BBX 15 17 0 -2
BITMAP
0820
0820
0820
17FE
1188
20D0
27FE
6422
A020
27FE
20C0
20FC
20C4
2184
2188
2208
2C30
ENDCHAR
STARTCHAR 5091
ENCODING 20625
SWIDTH 1020 0
DWIDTH 17 0
BBX 16 17 0 -2
BITMAP
1204
13C4
13C4
12DF
14D4
2B94
21BF
6204
AC24
2020
2FFF
20F0
21A8
21A8
2224
2C23
2020
ENDCHAR
STARTCHAR 5098
ENCODING 20632
SWIDTH 1020 0
DWIDTH 17 0
BBX 16 17 0 -2
BITMAP
0180
02C0
02C0
0C30
318C
D18B
1188
2994
55AA
1188
2994
45A2
FFFF
0180
0180
0180
0180
ENDCHAR
STARTCHAR 5099
ENCODING 20633
SWIDTH 1020 0
DWIDTH 17 0
BBX 16 17 0 -2
BITMAP
10C8
10C8
10C8
17FE
10C8
27FF
2400
65FE
A592
25FE
2592
2592
25FE
2992
2992
3192
2186
ENDCHAR
STARTCHAR 509A
ENCODING 20634
SWIDTH 1020 0
DWIDTH 17 0
BBX 16 17 0 -2
BITMAP
1210
1210
1210
1210
1FD0
25BF
25A2
68D2
B5B2
2594
2594
2208
2208
2594
24D4
2822
30C1
ENDCHAR
STARTCHAR 50AC
ENCODING 20652
SWIDTH 1020 0
DWIDTH 17 0
BBX 16 17 0 -2
BITMAP
0A24
0A24
0A24
13FC
1194
1220
23FE
6620
AA20
33FE
2220
2220
23FE
2220
2220
23FF
2200
ENDCHAR
STARTCHAR 50AD
ENCODING 20653
SWIDTH 1020 0
DWIDTH 17 0
BBX 16 17 0 -2
BITMAP
1010
17FF
17FF
1410
15FC
2414
27FF
6414
A5FC
2410
25FE
2592
25FE
2992
29FE
3192
2196
ENDCHAR
STARTCHAR 50B2
ENCODING 20658
SWIDTH 1020 0
DWIDTH 17 0
BBX 16 17 0 -2
BITMAP
1210
1210
1210
1FD0
1210
2FFF
2222
6212
BFF4
2414
27D4
24C8
24C8
28D4
2994
31A2
26C1
ENDCHAR
STARTCHAR 50B3
ENCODING 20659
SWIDTH 1020 0
DWIDTH 17 0
BBX 16 17 0 -2
BITMAP
1020
17FF
17FF
1020
13FC
2224
23FC
6224
A3FC
2020
27FF
2008
2FFF
2208
2188
2188
2018
ENDCHAR
STARTCHAR 50B4
ENCODING 20660
SWIDTH 1020 0
DWIDTH 17 0
BBX 16 17 0 -2
BITMAP
1000
17FE
17FE
1400
14FC
24C4
24C4
64FC
A400
25EE
25AA
25AA
25EE
25AA
2400
27FF
2400
ENDCHAR
STARTCHAR 50B5
ENCODING 20661
SWIDTH 1020 0
DWIDTH 17 0
BBX 16 17 0 -2
BITMAP
0820
0BFE
0BFE
1020
11FC
1020
2FFF
6000
A3FC
2204
23FC
2204
23FC
2204
23FC
2188
2E07
ENDCHAR
STARTCHAR 50B7
ENCODING 20663
SWIDTH 1020 0
DWIDTH 17 0
BBX 16 17 0 -2
BITMAP
0980
0BFE
0BFE
1200
17F8
2A08
23F8
6208
A3F8
2000
2FFF
2180
2FFE
2192
2E22
21C4
2618
ENDCHAR
STARTCHAR 50BE
ENCODING 20670
SWIDTH 1020 0
DWIDTH 17 0
BBX 16 17 0 -2
BITMAP
1000
13FF
13FF
1010
2820
2AFC
2AC4
6AFC
ACC4
28C4
2AFC
2AC4
2AC4
26FC
2020
20C4
2383
ENDCHAR
STARTCHAR 50C2
ENCODING 20674
SWIDTH 1020 0
DWIDTH 17 0
BBX 16 17 0 -2
BITMAP
1020
13FC
13FC
1224
1FFF
2224
23FC
6020
A3FC
2224
23FC
20C0
2FFF
2188
23F0
20CC
2F82
ENDCHAR
STARTCHAR 50C5
ENCODING 20677
SWIDTH 1020 0
DWIDTH 17 0
BBX 16 17 0 -2
BITMAP
1190
1190
1190
1FFF
1190
2000
23FC
6224
A224
23FC
2020
27FE
2020
23FC
2020
2FFF
2000
ENDCHAR
STARTCHAR 50C9
ENCODING 20681
SWIDTH 1020 0
DWIDTH 17 0
BBX 16 17 0 -2
BITMAP
0180
02C0
02C0
0420
0810
17E8
2004
C003
3EFC
22C4
22C4
3EFC
2AD4
0810
1428
22C4
C182
ENDCHAR
STARTCHAR 50CA
ENCODING 20682
SWIDTH 1020 0
DWIDTH 17 0
BBX 16 17 0 -2
BITMAP
1000
17FE
17FE
1190
17FC
2594
27FC
64C4
A0C0
2FFF
2208
27F4
3A13
23F0
2210
2204
21FC
ENDCHAR
STARTCHAR 50CD
ENCODING 20685
SWIDTH 1020 0
DWIDTH 17 0
BBX 15 17 0 -2
BITMAP
10E8
1788
1788
1208
1FE8
223E
2FCA
6ACA
AFCA
2ACA
2ACA
2FD2
2212
2FD2
2224
23E4
2CD8
ENDCHAR
STARTCHAR 50CF
ENCODING 20687
SWIDTH 1020 0
DWIDTH 17 0
BBX 16 17 0 -2
BITMAP
08C0
08F8
08F8
1190
1220
27FC
2A24
6224
A3FC
20C4
27A2
20D4
27B8
20D4
2794
2013
20E0
ENDCHAR
STARTCHAR 50D1
ENCODING 20689
SWIDTH 1020 0
DWIDTH 17 0
BBX 16 17 0 -2
BITMAP
100C
13F0
13F0
10C0
1FFF
2190
23F8
6594
A9F3
3000
27FE
2402
25F2
2592
25F2
2402
2406
ENDCHAR
STARTCHAR 50D5
ENCODING 20693
SWIDTH 1020 0
DWIDTH 17 0
BBX 16 17 0 -2
BITMAP
14D2
12D4
12D4
10D0
1FFF
2188
20D0
67FE
A020
23FC
2020
2FFF
20D0
20D0
2188
2204
2C03
ENDCHAR
STARTCHAR 50D6
ENCODING 20694
SWIDTH 1020 0
DWIDTH 17 0
BBX 16 17 0 -2
BITMAP
1020
1020
1020
1FFF
1020
27FE
2000
63FC
A204
23FC
20D0
2FFF
2000
23FC
2204
23FC
2204
ENDCHAR
STARTCHAR 50DA
ENCODING 20698
SWIDTH 1020 0
DWIDTH 17 0
BBX 16 17 0 -2
BITMAP
1020
1020
1020
17FE
18D1
258A
2204
67FF
BA04
23FC
2204
23FC
2224
21A8
2224
2C22
20E1
ENDCHAR
STARTCHAR 50DE
ENCODING 20702
SWIDTH 1020 0
DWIDTH 17 0
BBX 15 17 0 -2
BITMAP
101C
17E8
17E8
12C4
1424
23F8
2208
63FC
A204
2204
23FE
2402
25AA
2AD6
32D2
2404
2018
ENDCHAR
STARTCHAR 50E3
ENCODING 20707
SWIDTH 1020 0
DWIDTH 17 0
BBX 16 17 0 -2
BITMAP
1208
1208
1208
17DE
1208
2FFF
2208
6594
A5A4
28C3
33FC
2204
23FC
2204
2204
23FC
2204
ENDCHAR
STARTCHAR 50E5
ENCODING 20709
SWIDTH 1020 0
DWIDTH 17 0
BBX 16 17 0 -2
BITMAP
0820
0820
0820
13FC
1020
27FE
2208
6FDE
A208
2FFF
2000
27FE
20D0
20D0
2191
2211
2C0F
ENDCHAR
STARTCHAR 50E7
ENCODING 20711
SWIDTH 1020 0
DWIDTH 17 0
BBX 15 17 0 -2
BITMAP
0988
08C8
08C8
10D0
17FE
2422
27FE
6422
A7FE
2402
23FC
2204
23FC
2204
2204
23FC
2204
ENDCHAR
STARTCHAR 50ED
ENCODING 20717
SWIDTH 1020 0
DWIDTH 17 0
BBX 16 17 0 -2
BITMAP
1188
1188
1188
17BE
15A8
2FFF
2228
66D4
ABA7
3000
23FC
2204
23FC
2204
2204
23FC
2204
ENDCHAR
STARTCHAR 50EE
ENCODING 20718
SWIDTH 1020 0
DWIDTH 17 0
BBX 16 17 0 -2
BITMAP
0820
0820
0820
17FE
1188
2FFF
2000
63FC
A224
23FC
2224
23FC
2020
27FE
2020
2FFF
2000
ENDCHAR
STARTCHAR 50F5
ENCODING 20725
SWIDTH 1020 0
DWIDTH 17 0
BBX 16 17 0 -2
BITMAP
1000
17FF
17FF
1000
13FC
2224
23FC
6224
AFFF
2224
23FC
2224
23FC
2204
2000
2FFF
2000
ENDCHAR
STARTCHAR 50F9
ENCODING 20729
SWIDTH 1020 0
DWIDTH 17 0
BBX 16 17 0 -2
BITMAP
1000
17FF
17FF
1190
17FE
2592
27FE
6402
A3FC
2204
23FC
2204
23FC
2204
23FC
2188
2E07
ENDCHAR
STARTCHAR 50FB
ENCODING 20731
SWIDTH 1020 0
DWIDTH 17 0
BBX 16 17 0 -2
BITMAP
1008
17C8
17C8
14C8
14FE
24D2
27D2
6414
A4FF
2408
2FC8
2CFF
34C8
24C8
27C8
24C8
2008
ENDCHAR
STARTCHAR 5100
ENCODING 20736
SWIDTH 1020 0
DWIDTH 17 0
BBX 16 17 0 -2
BITMAP
0988
08D0
08D0
17FE
1020
13FC
2020
6FFF
A0D4
2794
2192
2FFF
2194
23D4
2D88
21B5
23C3
ENDCHAR
STARTCHAR 5101
ENCODING 20737
SWIDTH 1020 0
DWIDTH 17 0
BBX 15 17 0 -2
BITMAP
1190
1190
1190
13FE
1620
2BFC
2220
63FC
A220
23FE
2000
2F9E
2992
29F2
2992
2802
2806
ENDCHAR
STARTCHAR 5102
ENCODING 20738
SWIDTH 1020 0
DWIDTH 17 0
BBX 16 17 0 -2
BITMAP
10D0
17FC
17FC
14D4
17FC
24D4
27FC
6000
A7FE
2400
25FC
2400
27FF
2992
298A
31E4
2603
ENDCHAR
STARTCHAR 5104
ENCODING 20740
SWIDTH 1020 0
DWIDTH 17 0
BBX 16 17 0 -2
BITMAP
0820
0820
0820
17FC
1188
20D0
2FFF
6000
A3F8
2208
23F8
2208
23F8
22D6
22C9
2CC5
203C
ENDCHAR
STARTCHAR 5109
ENCODING 20745
SWIDTH 1020 0
DWIDTH 17 0
BBX 16 17 0 -2
BITMAP
08C0
09A0
09A0
1190
1208
25F4
2803
7000
A7DE
24D2
24D2
27DE
22CA
2208
2594
28D2
3021
ENDCHAR
STARTCHAR 5112
ENCODING 20754
SWIDTH 1020 0
DWIDTH 17 0
BBX 16 17 0 -2
BITMAP
1000
17FE
17FE
1020
2FFF
2821
2BAD
6020
A3AC
2000
2FFF
2020
27FE
24D2
24D2
24D2
24D6
ENDCHAR
STARTCHAR 5114
ENCODING 20756
SWIDTH 1020 0
DWIDTH 17 0
BBX 16 17 0 -2
BITMAP
1020
17FE
17FE
1020
13FC
2000
2FFF
6002
A7FC
2020
2FFF
2004
2FFF
29A4
2F94
2994
200C
ENDCHAR
STARTCHAR 5115
ENCODING 20757
SWIDTH 1020 0
DWIDTH 17 0
BBX 16 17 0 -2
BITMAP
1020
17FF
17FF
1188
10D1
2FAE
25AA
65AA
ABAD
3205
23FC
2204
23FC
2204
2204
2404
2804
ENDCHAR
STARTCHAR 5116
ENCODING 20758
SWIDTH 1020 0
DWIDTH 17 0
BBX 16 17 0 -2
BITMAP
1008
17E8
17E8
159F
17D0
24E0
24C0
67DE
A580
27E0
2000
23FC
22D4
22D4
22D4
2FFF
2000
ENDCHAR
STARTCHAR 5118
ENCODING 20760
SWIDTH 1020 0
DWIDTH 17 0
BBX 16 17 0 -2
BITMAP
08C0
08C0
08C0
17F8
10C8
2FFF
20C8
67F8
A0C0
3FFF
24D4
298A
37F9
25A8
25A8
3FFF
2000
ENDCHAR
STARTCHAR 511A
ENCODING 20762
SWIDTH 1020 0
DWIDTH 17 0
BBX 15 17 0 -2
BITMAP
1190
17FE
17FE
1190
1000
27FC
24D4
67FC
A000
2FFE
28C2
29FA
2208
2DD0
2020
21C0
2E00
ENDCHAR
STARTCHAR 511F
ENCODING 20767
SWIDTH 1020 0
DWIDTH 17 0
BBX 16 17 0 -2
BITMAP
0A24
09A4
09A4
11A8
17FE
2402
25FA
6188
A3FC
2204
23FC
2204
23FC
2204
23FC
2188
2E07
ENDCHAR
STARTCHAR 5121
ENCODING 20769
SWIDTH 1020 0
DWIDTH 17 0
BBX 16 17 0 -2
BITMAP
0800
0BFC
0BFC
1224
13FC
2224
2224
63FC
A204
2000
2FDF
2AD5
2FDF
2AD5
2AD5
2FDF
28D1
ENDCHAR
STARTCHAR 512A
ENCODING 20778
SWIDTH 1020 0
DWIDTH 17 0
BBX 16 17 0 -2
BITMAP
0800
0FFE
0FFE
10C0
13F8
2208
23F8
6208
AFFF
2AD5
2AFD
2580
21FC
26C8
2030
21CC
2E03
ENDCHAR
STARTCHAR 5132
ENCODING 20786
SWIDTH 1020 0
DWIDTH 17 0
BBX 16 17 0 -2
BITMAP
1010
1790
1790
1014
1FFE
2014
2F98
60FF
AF90
2020
20FC
2FA4
29BC
29A4
29A4
2FBC
29A4
ENDCHAR
STARTCHAR 5137
ENCODING 20791
SWIDTH 1020 0
DWIDTH 17 0
BBX 16 17 0 -2
BITMAP
1000
17DF
17DF
1000
1FDF
2AD5
2020
67FF
A4C8
27FE
24CA
27FE
2592
29FE
2990
31F1
260F
ENDCHAR
STARTCHAR 513A
ENCODING 20794
SWIDTH 1020 0
DWIDTH 17 0
BBX 16 17 0 -2
BITMAP
1588
1FEA
1FEA
1592
1794
223F
2FD4
6AD4
AFDF
2214
2FD4
221F
2FD4
2214
2594
28DF
30D0
ENDCHAR
STARTCHAR 513B
ENCODING 20795
SWIDTH 1020 0
DWIDTH 17 0
BBX 16 17 0 -2
BITMAP
1224
11A8
11A8
17FE
158A
25FA
2000
67FE
A5AA
24F2
27FE
2020
27FE
2020
2FFF
2592
28C9
ENDCHAR
STARTCHAR 513C
ENCODING 20796
SWIDTH 1020 0
DWIDTH 17 0
BBX 16 17 0 -2
BITMAP
1000
17DE
17DE
14D2
17DE
2000
2FFF
6808
ABE8
299F
2FEA
2A2A
2BEA
2A24
2BEA
362A
2031
ENDCHAR
STARTCHAR 513F
ENCODING 20799
SWIDTH 1020 0
DWIDTH 17 0
BBX 16 17 0 -2
BITMAP
0420
0420
0420
0420
0420
0420
0420
0420
0420
0420
0420
0420
0820
0820
1021
2021
C01F
ENDCHAR
STARTCHAR 5140
ENCODING 20800
SWIDTH 1020 0
DWIDTH 17 0
BBX 16 16 0 -2
BITMAP
FFFF
FFFF
04C0
04C0
04C0
04C0
04C0
04C0
04C0
04C0
04C0
08C0
08C0
10C1
20C1
C03F
ENDCHAR
STARTCHAR 5141
ENCODING 20801
SWIDTH 1020 0
DWIDTH 17 0
BBX 16 17 0 -2
BITMAP
0200
0220
0220
0410
0408
09FC
7E22
0422
0420
0420
0420
0420
0820
0820
1021
2021
C01F
ENDCHAR
STARTCHAR 5143
ENCODING 20803
SWIDTH 1020 0
DWIDTH 17 0
BBX 16 16 0 -2
BITMAP
3FFC
3FFC
0000
0000
0000
FFFF
04C0
04C0
04C0
04C0
04C0
08C0
08C0
10C1
20C1
C03F
ENDCHAR
STARTCHAR 5144
ENCODING 20804
SWIDTH 1020 0
DWIDTH 17 0
BBX 16 16 0 -2
BITMAP
1FF8
1FF8
1008
1008
1008
1008
1008
1FF8
14C8
04C0
04C0
08C0
08C0
10C1
20C1
C03F
ENDCHAR
STARTCHAR 5145
ENCODING 20805
SWIDTH 1020 0
DWIDTH 17 0
BBX 16 17 0 -2
BITMAP
0180
0180
0180
0180
FFFF
0420
0410
09F8
7EC4
04C4
04C0
04C0
08C0
08C0
10C1
20C1
C03F
ENDCHAR
STARTCHAR 5146
ENCODING 20806
SWIDTH 1020 0
DWIDTH 17 0
BBX 16 17 0 -2
BITMAP
04C0
04C0
04C0
44C4
24C4
24C8
24D0
04C0
0CE0
34D8
C4C4
04C2
08C0
08C0
10C1
20C1
C03F
ENDCHAR
STARTCHAR 5147
ENCODING 20807
SWIDTH 1020 0
DWIDTH 17 0
BBX 16 17 0 -2
BITMAP
2024
2C24
2C24
22C4
2184
22C4
2424
2824
2004
3FFC
24C4
04C0
08C0
08C0
10C1
20C1
C03F
ENDCHAR
STARTCHAR 5148
ENCODING 20808
SWIDTH 1020 0
DWIDTH 17 0
BBX 16 17 0 -2
BITMAP
0180
1180
1180
1180
1FFC
2180
2180
4180
FFFF
04C0
04C0
04C0
08C0
08C0
10C1
20C1
C03F
ENDCHAR
STARTCHAR 5149
ENCODING 20809
SWIDTH 1020 0
DWIDTH 17 0
BBX 16 17 0 -2
BITMAP
0180
2188
2188
1188
0990
0990
01A0
FFFF
04C0
04C0
04C0
04C0
08C0
08C0
10C1
20C1
C03F
ENDCHAR
STARTCHAR 514B
ENCODING 20811
SWIDTH 1020 0
DWIDTH 17 0
BBX 16 17 0 -2
BITMAP
0180
0180
0180
FFFF
0180
0180
1FF8
1008
1008
1008
1FF8
14C8
04C0
04C0
08C1
30C1
C03F
ENDCHAR
STARTCHAR 514C
ENCODING 20812
SWIDTH 1020 0
DWIDTH 17 0
BBX 16 17 0 -2
BITMAP
0420
0420
0420
0810
100C
3FFB
D008
1008
1008
1008
1FF8
10C8
04C0
04C0
08C1
30C1
C03F
ENDCHAR
STARTCHAR 514D
ENCODING 20813
SWIDTH 1020 0
DWIDTH 17 0
BBX 16 17 0 -2
BITMAP
0200
0200
0200
07F0
0820
10C0
7FFC
1184
1184
1184
1FFC
12C4
02C0
04C0
08C1
30C1
C03F
ENDCHAR
STARTCHAR 514E
ENCODING 20814
SWIDTH 1020 0
DWIDTH 17 0
BBX 16 17 0 -2
BITMAP
000C
00F0
00F0
3F80
0180
0180
3FFC
2184
2184
2184
3FFC
22D4
04C8
04C4
08C5
30C1
C03F
ENDCHAR
STARTCHAR 5150
ENCODING 20816
SWIDTH 1020 0
DWIDTH 17 0
BBX 16 17 0 -2
BITMAP
2000
23F8
23F8
2208
2208
23F8
2208
2208
23F8
2208
0980
0980
0980
0980
1181
2181
C0FF
ENDCHAR
STARTCHAR 5152
ENCODING 20818
SWIDTH 1020 0
DWIDTH 17 0
BBX 16 17 0 -2
BITMAP
0380
1CF8
1CF8
1008
1008
1EF8
1008
1008
1FF8
14C8
04C0
04C0
08C0
08C0
10C1
20C1
C03F
ENDCHAR
STARTCHAR 5154
ENCODING 20820
SWIDTH 1020 0
DWIDTH 17 0
BBX 16 17 0 -2
BITMAP
0200
0200
0200
07F0
0820
10C0
3FFC
E184
2184
2184
3FFC
22D4
02C8
04C4
08C5
30C1
C03F
ENDCHAR
STARTCHAR 515A
ENCODING 20826
SWIDTH 1020 0
DWIDTH 17 0
BBX 16 17 0 -2
BITMAP
1188
0988
0988
0990
7FFE
4002
4002
0FF0
0810
0810
0810
0FF0
04D0
04C0
08C1
30C1
C03F
ENDCHAR
STARTCHAR 515C
ENCODING 20828
SWIDTH 1020 0
DWIDTH 17 0
BBX 16 17 0 -2
BITMAP
0200
0A00
0A00
77EE
4422
47E2
4422
4422
77EE
4022
04C0
04C0
04C0
04C0
08C1
10C1
E03F
ENDCHAR
STARTCHAR 5162
ENCODING 20834
SWIDTH 1020 0
DWIDTH 17 0
BBX 16 17 0 -2
BITMAP
1010
1010
1010
FFFF
1010
1010
7CFC
44C4
44C4
44C4
7CFC
2828
29A8
2A28
4CC9
48C9
8387
ENDCHAR
STARTCHAR 5165
ENCODING 20837
SWIDTH 1020 0
DWIDTH 17 0
BBX 16 16 0 -2
BITMAP
0F80
0F80
0180
0180
0180
0180
02C0
02C0
02C0
0420
0420
0810
0810
1008
2004
C003
ENDCHAR
STARTCHAR 5168
ENCODING 20840
SWIDTH 1020 0
DWIDTH 17 0
BBX 16 16 0 -1
BITMAP
0180
02C0
02C0
0420
0810
1008
2FF4
C183
0180
0180
1FF8
0180
0180
0180
0180
7FFE
ENDCHAR
STARTCHAR 5169
ENCODING 20841
SWIDTH 1020 0
DWIDTH 17 0
BBX 16 16 0 -2
BITMAP
FFFF
FFFF
0180
0180
0180
7FFE
4182
59B2
4992
4992
55AA
55AA
63C6
4182
4182
4006
ENDCHAR
STARTCHAR 516A
ENCODING 20842
SWIDTH 1020 0
DWIDTH 17 0
BBX 16 17 0 -2
BITMAP
0180
02C0
02C0
0420
0810
37EC
C013
3E12
2212
3224
2A24
22C8
3224
2A24
2212
2212
2612
ENDCHAR
STARTCHAR 516B
ENCODING 20843
SWIDTH 1020 0
DWIDTH 17 0
BBX 16 17 0 -2
BITMAP
04C0
04C0
04C0
04C0
04C0
04C0
04C0
0420
0420
0820
0810
0810
1008
1008
2004
4002
8001
ENDCHAR
STARTCHAR 516C
ENCODING 20844
SWIDTH 1020 0
DWIDTH 17 0
BBX 16 17 0 -2
BITMAP
0420
0420
0420
0420
0810
0810
1208
2204
4202
8201
0420
0410
0808
0808
13FC
7C02
0002
ENDCHAR
STARTCHAR 516D
ENCODING 20845
SWIDTH 1020 0
DWIDTH 17 0
BBX 16 16 0 -1
BITMAP
0180
0180
0180
0180
0180
FFFF
0000
0000
0820
0810
0808
1004
1002
2002
4001
8001
ENDCHAR
STARTCHAR 516E
ENCODING 20846
SWIDTH 1020 0
DWIDTH 17 0
BBX 16 17 0 -2
BITMAP
0420
0420
0420
0810
0810
1008
2FF4
C203
0400
07F0
0C10
0010
0010
0020
0020
00C0
0380
ENDCHAR
STARTCHAR 5171
ENCODING 20849
SWIDTH 1020 0
DWIDTH 17 0
BBX 16 17 0 -2
BITMAP
0420
0420
0420
0420
0420
7FFE
0420
0420
0420
0420
FFFF
0000
0420
0810
1008
2004
C003
ENDCHAR
STARTCHAR 5175
ENCODING 20853
SWIDTH 1020 0
DWIDTH 17 0
BBX 16 17 0 -2
BITMAP
0010
00E0
00E0
0F80
0800
0800
0FFC
0820
0820
0820
0820
FFFF
0000
0420
0810
300C
C003
ENDCHAR
STARTCHAR 5176
ENCODING 20854
SWIDTH 1020 0
DWIDTH 17 0
BBX 16 17 0 -2
BITMAP
0420
0420
0420
7FFE
0420
0420
07E0
0420
0420
07E0
0420
0420
FFFF
0000
0420
1818
6006
ENDCHAR
STARTCHAR 5177
ENCODING 20855
SWIDTH 1020 0
DWIDTH 17 0
BBX 16 16 0 -2
BITMAP
0FF0
0FF0
0810
0FF0
0810
0810
0FF0
0810
0810
0FF0
0000
FFFF
0000
0420
1818
6006
ENDCHAR
STARTCHAR 5178
ENCODING 20856
SWIDTH 1020 0
DWIDTH 17 0
BBX 16 17 0 -2
BITMAP
04C0
04C0
04C0
04C0
3FF8
24C8
24C8
3FF8
24C8
24C8
24C8
FFFF
0000
0420
0810
300C
C003
ENDCHAR
STARTCHAR 517C
ENCODING 20860
SWIDTH 1020 0
DWIDTH 17 0
BBX 16 17 0 -2
BITMAP
0820
04C0
04C0
FFFF
04C0
3FF8
04C8
FFFF
04C8
04C8
3FF8
04C8
0CE0
14D0
14C8
24C4
C4C3
ENDCHAR
STARTCHAR 5180
ENCODING 20864
SWIDTH 1020 0
DWIDTH 17 0
BBX 16 17 0 -2
BITMAP
04C4
FCF8
FCF8
04C2
1C3E
E400
1FF8
1188
1FF8
1188
1FF8
0420
7FFE
0420
FFFF
0810
700E
ENDCHAR
STARTCHAR 5182
ENCODING 20866
SWIDTH 1020 0
DWIDTH 17 0
BBX 14 16 1 -2
BITMAP
FFFC
FFFC
8004
8004
8004
8004
8004
8004
8004
8004
8004
8004
8004
8004
8004
800C
ENDCHAR
STARTCHAR 5185
ENCODING 20869
SWIDTH 1020 0
DWIDTH 17 0
BBX 13 17 2 -2
BITMAP
0600
0600
0600
0600
FFF8
8608
8608
8608
8B08
8B08
9088
A048
C028
8008
8008
8008
8018
ENDCHAR
STARTCHAR 5186
ENCODING 20870
SWIDTH 1020 0
DWIDTH 17 0
BBX 12 16 2 -2
BITMAP
FFF0
FFF0
8610
8610
8610
8610
8610
FFF0
8010
8010
8010
8010
8010
8010
8010
8030
ENDCHAR
STARTCHAR 5189
ENCODING 20873
SWIDTH 1020 0
DWIDTH 17 0
BBX 16 17 0 -2
BITMAP
0180
0180
0180
0180
1FF8
1188
1188
1FF8
1188
1188
FFFF
1008
1008
1008
1008
1008
1018
ENDCHAR
STARTCHAR 518A
ENCODING 20874
SWIDTH 1020 0
DWIDTH 17 0
BBX 16 16 0 -2
BITMAP
3FF8
3FF8
24C8
24C8
24C8
24C8
24C8
FFFF
24C8
24C8
24C8
24C8
24C8
24C8
24C8
2018
ENDCHAR
STARTCHAR 518C
ENCODING 20876
SWIDTH 1020 0
DWIDTH 17 0
BBX 16 16 0 -2
BITMAP
3CF8
3CF8
24C8
24C8
24C8
24C8
24C8
FFFF
24C8
24C8
24C8
24C8
24C8
4588
4588
8E18
ENDCHAR
STARTCHAR 518D
ENCODING 20877
SWIDTH 1020 0
DWIDTH 17 0
BBX 16 16 0 -2
BITMAP
FFFF
FFFF
0180
0180
1FF8
1188
1188
1FF8
1188
1188
FFFF
1008
1008
1008
1008
1018
ENDCHAR
STARTCHAR 518F
ENCODING 20879
SWIDTH 1020 0
DWIDTH 17 0
BBX 14 16 1 -2
BITMAP
FFFC
FFFC
8984
8984
8984
9184
E074
8004
8FC4
8844
8844
8844
8FC4
8844
8004
800C
ENDCHAR
STARTCHAR 5190
ENCODING 20880
SWIDTH 1020 0
DWIDTH 17 0
BBX 14 16 1 -2
BITMAP
FFFC
FFFC
8004
BFF4
8004
BFF4
8004
0000
3FF0
2010
3FF0
2010
3FF0
2010
2010
2030
ENDCHAR
STARTCHAR 5191
ENCODING 20881
SWIDTH 1020 0
DWIDTH 17 0
BBX 12 17 2 -2
BITMAP
0600
0600
0600
FFF0
8610
FFF0
8610
FFF0
8010
7FE0
4020
5FA0
4020
5FA0
4020
4020
4060
ENDCHAR
STARTCHAR 5192
ENCODING 20882
SWIDTH 1020 0
DWIDTH 17 0
BBX 11 16 3 -2
BITMAP
FFE0
FFE0
8020
FFE0
8020
FFE0
8020
7FC0
4040
7FC0
4040
7FC0
4040
4040
7FC0
4040
ENDCHAR
STARTCHAR 5193
ENCODING 20883
SWIDTH 1020 0
DWIDTH 17 0
BBX 16 17 0 -2
BITMAP
0420
0420
0420
7FFE
0420
3FFC
0420
FFFF
0180
1FF8
1188
1FF8
1188
FFFF
1008
1008
1018
ENDCHAR
STARTCHAR 5195
ENCODING 20885
SWIDTH 1020 0
DWIDTH 17 0
BBX 15 16 0 -2
BITMAP
3FFC
3FFC
2004
2FF4
2004
2FF4
0400
0FE0
10C0
FFFC
2184
2184
3FFC
04C2
18C2
E03E
ENDCHAR
STARTCHAR 5196
ENCODING 20886
SWIDTH 1020 0
DWIDTH 17 0
BBX 14 4 1 4
BITMAP
FFFC
8004
8004
8004
ENDCHAR
STARTCHAR 5197
ENCODING 20887
SWIDTH 1020 0
DWIDTH 17 0
BBX 16 16 0 -2
BITMAP
7FFE
7FFE
4002
4002
0000
07E0
0420
0420
0420
0420
0420
0820
0820
1021
2021
C01F
ENDCHAR
STARTCHAR 5199
ENCODING 20889
SWIDTH 1020 0
DWIDTH 17 0
BBX 16 16 0 -2
BITMAP
7FFE
7FFE
4802
4802
0FF8
0800
1000
1FF0
3010
0010
FFFF
0020
0020
00C0
00C0
0380
ENDCHAR
STARTCHAR 51A0
ENCODING 20896
SWIDTH 1020 0
DWIDTH 17 0
BBX 16 16 0 -2
BITMAP
7FFE
7FFE
4002
400A
3E08
0008
01FE
FE08
2988
28C8
28C8
2808
2808
4819
4801
87FF
ENDCHAR
STARTCHAR 51A2
ENCODING 20898
SWIDTH 1020 0
DWIDTH 17 0
BBX 15 16 1 -2
BITMAP
FFFC
FFFC
8004
8004
7FF8
0400
1810
E410
2720
19C0
F3A0
0D90
1988
E986
0300
0C00
ENDCHAR
STARTCHAR 51A4
ENCODING 20900
SWIDTH 1020 0
DWIDTH 17 0
BBX 16 16 0 -2
BITMAP
7FFE
7FFE
4202
4202
07F0
0820
10C0
FFFC
2184
2184
3FFC
24D4
04C8
08C9
30C1
C03F
ENDCHAR
STARTCHAR 51A5
ENCODING 20901
SWIDTH 1020 0
DWIDTH 17 0
BBX 16 16 0 -2
BITMAP
7FFE
7FFE
4002
4002
0FF0
0810
0FF0
0810
0FF0
0990
0180
FFFF
0000
0420
1818
E007
ENDCHAR
STARTCHAR 51A6
ENCODING 20902
SWIDTH 1020 0
DWIDTH 17 0
BBX 16 16 0 -2
BITMAP
7FFE
7FFE
4002
4022
3C20
003E
0020
FE20
29FE
2824
2818
2810
28EC
4B82
4801
87FF
ENDCHAR
STARTCHAR 51A8
ENCODING 20904
SWIDTH 1020 0
DWIDTH 17 0
BBX 14 16 1 -2
BITMAP
FFFC
FFFC
8004
BFF4
0000
1FE0
1020
1FE0
0000
3FF0
2310
3FF0
2310
2310
3FF0
2010
ENDCHAR
STARTCHAR 51A9
ENCODING 20905
SWIDTH 1020 0
DWIDTH 17 0
BBX 15 16 0 -2
BITMAP
7FFE
7FFE
4002
4382
1CF0
1010
1EF0
1010
1FF0
0800
1FFE
2222
C992
14D2
24C4
2018
ENDCHAR
STARTCHAR 51AA
ENCODING 20906
SWIDTH 1020 0
DWIDTH 17 0
BBX 16 16 0 -2
BITMAP
7FFE
7FFE
4422
5FFA
0420
1FF8
1008
1FF8
1008
FFFF
0990
1FF8
318C
D18B
11B8
0180
ENDCHAR
STARTCHAR 51AB
ENCODING 20907
SWIDTH 1020 0
DWIDTH 17 0
BBX 6 17 5 -2
BITMAP
40
30
30
30
30
00
00
04
04
18
18
30
30
40
40
80
80
ENDCHAR
STARTCHAR 51AC
ENCODING 20908
SWIDTH 1020 0
DWIDTH 17 0
BBX 16 17 0 -2
BITMAP
0400
0400
0400
07F0
0810
1420
22C0
C180
02C0
0420
1B98
E0C7
0020
0E00
01C0
0020
0010
ENDCHAR
STARTCHAR 51B0
ENCODING 20912
SWIDTH 1020 0
DWIDTH 17 0
BBX 16 17 0 -2
BITMAP
40C0
20C0
20C0
20C0
20C2
0EE2
02E4
12D8
12D0
22D0
22C8
24C8
44C4
48C4
B0C3
80C0
81C0
ENDCHAR
STARTCHAR 51B1
ENCODING 20913
SWIDTH 1020 0
DWIDTH 17 0
BBX 16 17 0 -2
BITMAP
4000
2FFE
2FFE
2180
2180
0180
09F8
0A08
1208
1208
13F8
2208
2008
4008
4008
9FFF
8000
ENDCHAR
STARTCHAR 51B2
ENCODING 20914
SWIDTH 1020 0
DWIDTH 17 0
BBX 15 17 0 -2
BITMAP
4020
2020
2020
2020
2020
07FE
0422
1422
1422
1422
27FE
2422
2020
4020
4020
8020
8020
ENDCHAR
STARTCHAR 51B3
ENCODING 20915
SWIDTH 1020 0
DWIDTH 17 0
BBX 16 17 0 -2
BITMAP
40C0
20C0
20C0
20C0
27F8
00C8
08C8
08C8
10C8
1FFF
21A0
21A0
4210
4210
8408
8804
3003
ENDCHAR
STARTCHAR 51B4
ENCODING 20916
SWIDTH 1020 0
DWIDTH 17 0
BBX 16 17 0 -2
BITMAP
4000
27FE
27FE
2188
2188
0188
0188
1FFF
1018
1028
2028
20C8
2188
4208
4408
9808
8018
ENDCHAR
STARTCHAR 51B5
ENCODING 20917
SWIDTH 1020 0
DWIDTH 17 0
BBX 16 17 0 -2
BITMAP
4000
23FC
23FC
2204
2204
0204
0204
1204
13FC
1194
2190
2190
2210
4210
4411
8811
B00F
ENDCHAR
STARTCHAR 51B6
ENCODING 20918
SWIDTH 1020 0
DWIDTH 17 0
BBX 15 17 0 -2
BITMAP
40C0
20C0
20C0
20D0
2188
0184
023C
1FC2
1002
1000
23F8
2208
2208
4208
4208
83F8
8208
ENDCHAR
STARTCHAR 51B7
ENCODING 20919
SWIDTH 1020 0
DWIDTH 17 0
BBX 16 17 0 -2
BITMAP
40C0
20C0
20C0
21A0
2190
0208
05F4
1803
2000
2FFC
20C4
20C4
40C4
40C4
40DC
80C0
80C0
ENDCHAR
STARTCHAR 51BD
ENCODING 20925
SWIDTH 1020 0
DWIDTH 17 0
BBX 15 17 0 -2
BITMAP
4002
2FF2
2FF2
220A
220A
03CA
04CA
14CA
14CA
26CA
298A
298A
520A
4202
4402
8802
9006
ENDCHAR
STARTCHAR 51C4
ENCODING 20932
SWIDTH 1020 0
DWIDTH 17 0
BBX 16 17 0 -2
BITMAP
40C0
20C0
20C0
2FFE
20C0
07F8
00C8
1FFF
20C8
27F8
2180
4FFF
4208
4790
80F0
838C
1C02
ENDCHAR
STARTCHAR 51C5
ENCODING 20933
SWIDTH 1020 0
DWIDTH 17 0
BBX 15 17 0 -2
BITMAP
4000
27FE
27FE
2402
2422
0422
07FE
1422
1422
25FA
258A
258A
45FA
458A
4402
87FE
8402
ENDCHAR
STARTCHAR 51C6
ENCODING 20934
SWIDTH 1020 0
DWIDTH 17 0
BBX 16 17 0 -2
BITMAP
4180
2190
2190
2210
2220
07FE
0A20
1220
13FE
1220
2220
23FE
2220
4220
4220
83FF
8200
ENDCHAR
STARTCHAR 51C9
ENCODING 20937
SWIDTH 1020 0
DWIDTH 17 0
BBX 15 17 0 -2
BITMAP
40C0
20C0
20C0
20C0
2FFE
0000
0000
17F8
1408
2408
27F8
20C0
44C8
44C4
48C2
90C2
81C0
ENDCHAR
STARTCHAR 51CB
ENCODING 20939
SWIDTH 1020 0
DWIDTH 17 0
BBX 15 17 0 -2
BITMAP
4000
27FE
27FE
2422
2422
05FA
0422
1422
15FA
1402
25FA
258A
258A
45FA
498A
8802
9006
ENDCHAR
STARTCHAR 51CC
ENCODING 20940
SWIDTH 1020 0
DWIDTH 17 0
BBX 16 17 0 -2
BITMAP
4020
2020
2020
27FE
2020
0020
1FFF
1190
1210
2D8F
21F8
2190
42D0
4C20
40D0
8388
8C07
ENDCHAR
STARTCHAR 51CD
ENCODING 20941
SWIDTH 1020 0
DWIDTH 17 0
BBX 16 17 0 -2
BITMAP
00C0
40C0
40C0
5FFF
20C0
27FC
04C4
17FC
14C4
24C4
27FC
24C4
41E0
42D0
84C8
88C4
30C3
ENDCHAR
STARTCHAR 51D6
ENCODING 20950
SWIDTH 1020 0
DWIDTH 17 0
BBX 16 17 0 -2
BITMAP
4210
2220
2220
27FC
0C20
17FC
1420
27FC
2420
47FE
4580
0180
FFFF
0180
0180
0180
0180
ENDCHAR
STARTCHAR 51DB
ENCODING 20955
SWIDTH 1020 0
DWIDTH 17 0
BBX 16 17 0 -2
BITMAP
4020
2FFF
2FFF
2000
27FE
058A
05FA
1402
17FE
2402
23FC
2000
4FFF
4228
4224
8422
98E1
ENDCHAR
STARTCHAR 51DC
ENCODING 20956
SWIDTH 1020 0
DWIDTH 17 0
BBX 16 17 0 -2
BITMAP
0020
8020
8020
4FFF
2000
27FE
0402
15FA
158A
27FE
2018
21E0
4FFF
40F0
41A8
8224
8C23
ENDCHAR
STARTCHAR 51DD
ENCODING 20957
SWIDTH 1020 0
DWIDTH 17 0
BBX 16 17 0 -2
BITMAP
48C0
2BBF
2BBF
2C12
28CC
07C8
143F
140A
27EC
2A28
2A2F
3FE8
4228
45A8
45B8
88C8
9187
ENDCHAR
STARTCHAR 51E0
ENCODING 20960
SWIDTH 1020 0
DWIDTH 17 0
BBX 16 16 0 -2
BITMAP
0FE0
0FE0
0820
0820
0820
0820
0820
0820
0820
0820
0820
0820
1020
1021
2021
C01F
ENDCHAR
STARTCHAR 51E1
ENCODING 20961
SWIDTH 1020 0
DWIDTH 17 0
BBX 16 16 0 -2
BITMAP
1FE0
1FE0
1020
1020
1820
1420
1420
1220
1220
1020
1020
1020
2020
2021
4021
801F
ENDCHAR
STARTCHAR 51E6
ENCODING 20966
SWIDTH 1020 0
DWIDTH 17 0
BBX 16 17 0 -2
BITMAP
2000
2000
2000
20F8
3CC8
24C8
24C8
44C8
68C8
A8C8
1188
118A
1A0A
2406
2200
41C0
803F
ENDCHAR
STARTCHAR 51E7
ENCODING 20967
SWIDTH 1020 0
DWIDTH 17 0
BBX 16 16 0 -2
BITMAP
3FFC
3FFC
2004
2184
2184
2FF4
2994
2994
2994
2994
2994
2994
29B5
4182
4183
8181
ENDCHAR
STARTCHAR 51E9
ENCODING 20969
SWIDTH 1020 0
DWIDTH 17 0
BBX 16 16 0 -2
BITMAP
3FFC
3FFC
2004
2184
2184
2184
2FF4
2184
23C4
25A4
25A4
2994
3192
4182
4183
8001
ENDCHAR
STARTCHAR 51EA
ENCODING 20970
SWIDTH 1020 0
DWIDTH 17 0
BBX 16 16 0 -2
BITMAP
3FF8
3FF8
2008
2188
2188
2588
2588
25E8
2588
2588
2584
2584
3FF5
4002
4003
8001
ENDCHAR
STARTCHAR 51ED
ENCODING 20973
SWIDTH 1020 0
DWIDTH 17 0
BBX 16 17 0 -2
BITMAP
080C
0BF0
0BF0
1020
37FF
5020
9020
13FE
1000
0FE0
0820
0820
0820
0820
1021
2021
C01F
ENDCHAR
STARTCHAR 51F0
ENCODING 20976
SWIDTH 1020 0
DWIDTH 17 0
BBX 16 16 0 -2
BITMAP
3FFC
3FFC
2184
2184
27E4
2424
27E4
2424
27E4
2004
2FF4
2184
27E2
4182
5FFB
8001
ENDCHAR
STARTCHAR 51F1
ENCODING 20977
SWIDTH 1020 0
DWIDTH 17 0
BBX 16 17 0 -2
BITMAP
1000
52F8
52F8
52C8
7EC8
00C8
FFC8
00C8
7EC8
42C8
42C8
7EC8
44C8
26C8
3989
E189
0607
ENDCHAR
STARTCHAR 51F5
ENCODING 20981
SWIDTH 1020 0
DWIDTH 17 0
BBX 14 17 1 -2
BITMAP
8004
8004
8004
8004
8004
8004
8004
8004
8004
8004
8004
8004
8004
8004
8004
FFFC
8004
ENDCHAR
STARTCHAR 51F6
ENCODING 20982
SWIDTH 1020 0
DWIDTH 17 0
BBX 14 17 1 -2
BITMAP
0020
8024
8024
8024
9044
8844
8584
8304
8384
8444
8444
8824
9014
A014
8004
FFFC
8004
ENDCHAR
STARTCHAR 51F8
ENCODING 20984
SWIDTH 1020 0
DWIDTH 17 0
BBX 14 16 1 -2
BITMAP
0FC0
0FC0
0840
0840
0840
0840
F87C
8844
8004
8004
8004
8004
8004
8004
FFFC
8004
ENDCHAR
STARTCHAR 51F9
ENCODING 20985
SWIDTH 1020 0
DWIDTH 17 0
BBX 14 13 1 -1
BITMAP
F87C
8844
8844
8844
8844
8844
8FC4
8844
8004
8004
8004
FFFC
8004
ENDCHAR
STARTCHAR 51FA
ENCODING 20986
SWIDTH 1020 0
DWIDTH 17 0
BBX 14 17 1 -2
BITMAP
0300
4308
4308
4308
4308
4308
4308
7FF8
4308
0300
8304
8304
8304
8304
8304
FFFC
8004
ENDCHAR
STARTCHAR 51FD
ENCODING 20989
SWIDTH 1020 0
DWIDTH 17 0
BBX 16 16 0 -2
BITMAP
FFFF
FFFF
0200
0200
47CA
54CA
48F2
44C2
41E2
46D2
58CA
40CA
4382
4002
7FFE
4002
ENDCHAR
STARTCHAR 51FE
ENCODING 20990
SWIDTH 1020 0
DWIDTH 17 0
BBX 14 16 1 -2
BITMAP
7FF0
7FF0
0040
0380
8304
8304
BBF4
AB94
AB64
AB24
BB54
AB94
8714
8004
FFFC
8004
ENDCHAR
STARTCHAR 5200
ENCODING 20992
SWIDTH 1020 0
DWIDTH 17 0
BBX 15 16 0 -2
BITMAP
FFFE
FFFE
0202
0202
0202
0202
0202
0202
0202
0402
0402
0804
0804
1004
2008
C030
ENDCHAR
STARTCHAR 5203
ENCODING 20995
SWIDTH 1020 0
DWIDTH 17 0
BBX 15 16 0 -2
BITMAP
FFFE
FFFE
0182
0182
0182
1982
0582
0382
0182
02C2
0224
0424
0804
1008
2008
C030
ENDCHAR
STARTCHAR 5204
ENCODING 20996
SWIDTH 1020 0
DWIDTH 17 0
BBX 16 14 0 -2
BITMAP
7FFC
0184
1184
0984
0984
0604
0204
0388
04E8
041C
0813
1010
2020
C1C0
ENDCHAR
STARTCHAR 5206
ENCODING 20998
SWIDTH 1020 0
DWIDTH 17 0
BBX 16 17 0 -2
BITMAP
04C0
04C0
04C0
0420
0820
0810
1008
2004
DFFB
0208
0208
0208
0408
0408
0810
1010
60E0
ENDCHAR
STARTCHAR 5207
ENCODING 20999
SWIDTH 1020 0
DWIDTH 17 0
BBX 15 17 0 -2
BITMAP
2000
2000
2000
23FE
2022
2622
3822
E022
2022
2022
20C2
24C2
24C2
1D82
0184
0204
0C18
ENDCHAR
STARTCHAR 5208
ENCODING 21000
SWIDTH 1020 0
DWIDTH 17 0
BBX 15 17 0 -2
BITMAP
0202
0212
0212
0212
0212
6212
1212
0A12
0412
0412
0A12
0982
10C2
20C2
4002
8002
0006
ENDCHAR
STARTCHAR 520A
ENCODING 21002
SWIDTH 1020 0
DWIDTH 17 0
BBX 15 17 0 -2
BITMAP
0002
7F92
7F92
0812
0812
0812
0812
FFD2
0812
0812
0812
0812
0802
0802
0802
0802
0806
ENDCHAR
STARTCHAR 520B
ENCODING 21003
SWIDTH 1020 0
DWIDTH 17 0
BBX 15 17 0 -2
BITMAP
0382
0C12
0C12
7812
0812
0812
0812
FFD2
0812
0812
0812
0812
1002
1002
2002
4002
8006
ENDCHAR
STARTCHAR 520E
ENCODING 21006
SWIDTH 1020 0
DWIDTH 17 0
BBX 15 17 0 -2
BITMAP
1002
1012
1012
2012
3FD2
52D2
92D2
24D2
24D2
48D2
88D2
1192
2182
4202
0202
0402
1806
ENDCHAR
STARTCHAR 5211
ENCODING 21009
SWIDTH 1020 0
DWIDTH 17 0
BBX 15 17 0 -2
BITMAP
0002
7FD2
7FD2
1212
1212
1212
1212
FFD2
1212
1212
1212
1212
1202
2202
2202
4202
8206
ENDCHAR
STARTCHAR 5214
ENCODING 21012
SWIDTH 1020 0
DWIDTH 17 0
BBX 15 17 0 -2
BITMAP
0802
0812
0812
0812
7F92
0992
0992
0992
FFD2
0812
0812
1412
1202
2182
2182
4002
8006
ENDCHAR
STARTCHAR 5217
ENCODING 21015
SWIDTH 1020 0
DWIDTH 17 0
BBX 15 17 0 -2
BITMAP
0002
FFC2
FFC2
1012
1012
1012
1E12
2212
2212
3212
4C12
8412
0802
0802
1002
2002
4006
ENDCHAR
STARTCHAR 521D
ENCODING 21021
SWIDTH 1020 0
DWIDTH 17 0
BBX 15 17 0 -2
BITMAP
1000
1000
1000
13FE
FC22
0422
0822
0822
1622
3822
54C2
92C2
10C4
1184
1184
1208
1430
ENDCHAR
STARTCHAR 5224
ENCODING 21028
SWIDTH 1020 0
DWIDTH 17 0
BBX 15 17 0 -2
BITMAP
0802
4992
4992
2992
2A12
0812
7F92
0812
0812
0812
FFD2
0812
0802
0802
0802
0802
0806
ENDCHAR
STARTCHAR 5225
ENCODING 21029
SWIDTH 1020 0
DWIDTH 17 0
BBX 15 17 0 -2
BITMAP
0002
7E12
7E12
4212
4212
4212
7E12
5212
1012
1E12
1212
2212
2202
2202
4402
4402
9806
ENDCHAR
STARTCHAR 5227
ENCODING 21031
SWIDTH 1020 0
DWIDTH 17 0
BBX 15 17 0 -2
BITMAP
1000
1000
1000
11FE
7E12
1012
1012
FF92
1012
2012
2822
2422
4C22
72C2
C2C4
0184
0618
ENDCHAR
STARTCHAR 5229
ENCODING 21033
SWIDTH 1020 0
DWIDTH 17 0
BBX 15 17 0 -2
BITMAP
0182
0612
0612
7812
0812
0812
FFD2
0812
1C12
1A12
2992
2992
4802
8802
0802
0802
0806
ENDCHAR
STARTCHAR 522A
ENCODING 21034
SWIDTH 1020 0
DWIDTH 17 0
BBX 15 17 0 -2
BITMAP
0002
7F92
7F92
5592
5592
5592
5592
5592
FFF2
5592
5592
5592
5582
5582
5582
5582
4386
ENDCHAR
STARTCHAR 522E
ENCODING 21038
SWIDTH 1020 0
DWIDTH 17 0
BBX 15 17 0 -2
BITMAP
0382
0C12
0C12
7812
0812
0812
FFD2
0812
0812
0812
7F92
4192
4182
4182
4182
7F82
4186
ENDCHAR
STARTCHAR 5230
ENCODING 21040
SWIDTH 1020 0
DWIDTH 17 0
BBX 15 17 0 -2
BITMAP
0002
FFD2
FFD2
1012
1412
2612
3992
D192
1012
1012
FF92
1012
1002
1382
1C02
E002
0006
ENDCHAR
STARTCHAR 5233
ENCODING 21043
SWIDTH 1020 0
DWIDTH 17 0
BBX 15 17 0 -2
BITMAP
0802
0812
0812
FFD2
1412
2212
4192
BED2
0012
FFD2
1012
3F92
2182
0182
0202
0202
0C06
ENDCHAR
STARTCHAR 5236
ENCODING 21046
SWIDTH 1020 0
DWIDTH 17 0
BBX 15 17 0 -2
BITMAP
0802
4812
4812
7F92
4812
8812
FFD2
0812
0812
7F92
4992
4992
4982
4982
4B82
0802
0806
ENDCHAR
STARTCHAR 5237
ENCODING 21047
SWIDTH 1020 0
DWIDTH 17 0
BBX 15 17 0 -2
BITMAP
0002
7FD2
7FD2
40D2
40D2
7FD2
44D2
4412
4412
5FD2
54D2
54C2
54C2
54C2
95C2
8402
0406
ENDCHAR
STARTCHAR 5238
ENCODING 21048
SWIDTH 1020 0
DWIDTH 17 0
BBX 16 17 0 -2
BITMAP
0990
0590
0590
05A0
3FFC
0180
02C0
FFFF
0420
0810
3FFC
C213
0210
0410
0420
0820
31C0
ENDCHAR
STARTCHAR 5239
ENCODING 21049
SWIDTH 1020 0
DWIDTH 17 0
BBX 15 17 0 -2
BITMAP
0202
6212
6212
1412
0C12
1212
2192
C992
0812
FFD2
0812
1C12
2A02
4982
8982
0802
0806
ENDCHAR
STARTCHAR 523A
ENCODING 21050
SWIDTH 1020 0
DWIDTH 17 0
BBX 15 17 0 -2
BITMAP
0802
0812
0812
FFD2
0812
0812
7F92
4992
4992
4992
4B92
1C12
2A02
2982
4982
8802
0806
ENDCHAR
STARTCHAR 523B
ENCODING 21051
SWIDTH 1020 0
DWIDTH 17 0
BBX 15 17 0 -2
BITMAP
0802
0812
0812
0812
FFD2
0812
5212
2212
1412
0992
1192
2212
C402
0A02
1182
20C2
C0C6
ENDCHAR
STARTCHAR 5243
ENCODING 21059
SWIDTH 1020 0
DWIDTH 17 0
BBX 15 17 0 -2
BITMAP
2202
1212
1212
1412
FF92
0992
0992
7F92
4992
4812
FFD2
18C2
28C2
28C2
4B82
8802
0806
ENDCHAR
STARTCHAR 5244
ENCODING 21060
SWIDTH 1020 0
DWIDTH 17 0
BBX 15 17 0 -2
BITMAP
0002
FFD2
FFD2
0012
24D2
4992
9212
4992
24D2
0012
FFD2
0812
0802
0BC2
1C02
E002
0006
ENDCHAR
STARTCHAR 5247
ENCODING 21063
SWIDTH 1020 0
DWIDTH 17 0
BBX 15 17 0 -2
BITMAP
0002
3E12
3E12
2212
2212
3E12
2212
2212
3E12
2212
2212
3E12
2202
1402
1202
2182
C186
ENDCHAR
STARTCHAR 524A
ENCODING 21066
SWIDTH 1020 0
DWIDTH 17 0
BBX 14 17 1 -2
BITMAP
9304
5324
5324
5424
1424
FF24
8324
8324
FF24
8324
8324
FF24
8304
8304
8304
8304
870C
ENDCHAR
STARTCHAR 524B
ENCODING 21067
SWIDTH 1020 0
DWIDTH 17 0
BBX 16 17 0 -2
BITMAP
1004
1024
1024
FFA4
1024
1024
7E24
4224
4224
4224
7E24
2A04
2804
280C
4801
4801
87FF
ENDCHAR
STARTCHAR 524C
ENCODING 21068
SWIDTH 1020 0
DWIDTH 17 0
BBX 15 17 0 -2
BITMAP
0802
0812
0812
FFD2
0812
0812
7F92
4992
4992
7F92
4992
1C12
2A02
2982
4982
8802
0806
ENDCHAR
STARTCHAR 524D
ENCODING 21069
SWIDTH 1020 0
DWIDTH 17 0
BBX 16 17 0 -2
BITMAP
0810
0420
0420
FFFF
0000
0004
3E24
2224
3E24
2224
2224
3E24
2224
2204
2204
2204
260C
ENDCHAR
STARTCHAR 524F
ENCODING 21071
SWIDTH 1020 0
DWIDTH 17 0
BBX 16 17 0 -2
BITMAP
4400
2400
2400
29FC
FF94
2414
24D4
24D4
FFD4
2424
2424
24D4
24CC
24CB
4588
4588
8630
ENDCHAR
STARTCHAR 5254
ENCODING 21076
SWIDTH 1020 0
DWIDTH 17 0
BBX 15 17 0 -2
BITMAP
0002
3F92
3F92
2192
3F92
2192
3F92
2992
1012
3FD2
CAD2
12D2
64C2
08C2
1182
6182
0606
ENDCHAR
STARTCHAR 5256
ENCODING 21078
SWIDTH 1020 0
DWIDTH 17 0
BBX 15 17 0 -2
BITMAP
0802
0812
0812
0812
7F92
2212
1212
1412
FFD2
0012
0012
7E12
4202
4202
4202
7E02
4206
ENDCHAR
STARTCHAR 525B
ENCODING 21083
SWIDTH 1020 0
DWIDTH 17 0
BBX 15 17 0 -2
BITMAP
0002
FFC2
FFC2
80D2
A2D2
94D2
94D2
FFD2
88D2
AAD2
AAD2
AAD2
AAC2
BEC2
A2C2
80C2
81C6
ENDCHAR
STARTCHAR 525E
ENCODING 21086
SWIDTH 1020 0
DWIDTH 17 0
BBX 15 17 0 -2
BITMAP
0802
0812
0812
FFD2
0812
1412
2212
4192
FFD2
0192
7992
4992
4982
7982
4982
0182
0386
ENDCHAR
STARTCHAR 5263
ENCODING 21091
SWIDTH 1020 0
DWIDTH 17 0
BBX 15 17 0 -2
BITMAP
0802
0812
0812
1412
2212
5DD2
8812
7F92
4992
4992
7F92
4992
1402
1202
2182
4182
8006
ENDCHAR
STARTCHAR 5264
ENCODING 21092
SWIDTH 1020 0
DWIDTH 17 0
BBX 15 17 0 -2
BITMAP
0802
0812
0812
FFD2
2212
1412
0812
3612
E3D2
3E12
2212
2212
3E02
2202
2202
4202
8206
ENDCHAR
STARTCHAR 5265
ENCODING 21093
SWIDTH 1020 0
DWIDTH 17 0
BBX 15 17 0 -2
BITMAP
0002
7C12
7C12
0412
7C12
0412
0412
FFD2
0812
4992
2A12
2C12
1A02
2982
C982
0802
1806
ENDCHAR
STARTCHAR 5269
ENCODING 21097
SWIDTH 1020 0
DWIDTH 17 0
BBX 15 17 0 -2
BITMAP
0382
7C12
7C12
0812
FFD2
0812
2AD2
EB92
2A12
6AD2
A9D2
1C12
2A02
2982
4982
8802
0806
ENDCHAR
STARTCHAR 526A
ENCODING 21098
SWIDTH 1020 0
DWIDTH 17 0
BBX 16 17 0 -2
BITMAP
0810
0420
0420
FFFF
0000
3E24
3224
2E24
3224
2E04
220C
0000
FFFE
0202
0402
1804
E018
ENDCHAR
STARTCHAR 526F
ENCODING 21103
SWIDTH 1020 0
DWIDTH 17 0
BBX 15 17 0 -2
BITMAP
0002
FF92
FF92
0012
7E12
4212
4212
7E12
0012
FF92
8992
8992
FF82
8982
8982
FF82
8186
ENDCHAR
STARTCHAR 5270
ENCODING 21104
SWIDTH 1020 0
DWIDTH 17 0
BBX 15 17 0 -2
BITMAP
0382
7C12
7C12
0812
FFD2
2A12
2A12
FFF2
2A12
2A12
FFD2
1C12
2A02
2982
4982
8802
0806
ENDCHAR
STARTCHAR 5271
ENCODING 21105
SWIDTH 1020 0
DWIDTH 17 0
BBX 16 17 0 -2
BITMAP
0800
0800
0800
15FE
2212
5D92
88D2
7FD2
49B2
4992
7F92
49AA
1426
1223
22C4
40C4
8398
ENDCHAR
STARTCHAR 5272
ENCODING 21106
SWIDTH 1020 0
DWIDTH 17 0
BBX 15 17 0 -2
BITMAP
0802
0812
0812
FFD2
88D2
88D2
7F92
0812
7F92
0812
FFD2
0012
3E02
2202
2202
3E02
2206
ENDCHAR
STARTCHAR 5273
ENCODING 21107
SWIDTH 1020 0
DWIDTH 17 0
BBX 15 17 0 -2
BITMAP
1202
1212
1212
FFD2
1212
1212
0C12
0A12
1192
3ED2
40D2
8012
3F82
2182
2182
3F82
2186
ENDCHAR
STARTCHAR 5274
ENCODING 21108
SWIDTH 1020 0
DWIDTH 17 0
BBX 15 17 0 -2
BITMAP
0802
4992
4992
4992
7F92
4192
0012
FFD2
0012
3E12
2212
2212
3E12
2202
1402
1FC2
F006
ENDCHAR
STARTCHAR 5275
ENCODING 21109
SWIDTH 1020 0
DWIDTH 17 0
BBX 15 17 0 -2
BITMAP
0802
1412
1412
1212
2D92
40D2
BF92
2192
3F92
2192
3F92
4012
7F82
A182
2182
3F82
2186
ENDCHAR
STARTCHAR 527D
ENCODING 21117
SWIDTH 1020 0
DWIDTH 17 0
BBX 15 17 0 -2
BITMAP
0002
FFD2
FFD2
1412
7F92
5592
5592
7F92
0012
7F92
0012
FFD2
0802
4A02
4982
8982
1806
ENDCHAR
STARTCHAR 527F
ENCODING 21119
SWIDTH 1020 0
DWIDTH 17 0
BBX 15 17 0 -2
BITMAP
2982
5212
5212
5212
2992
7F92
4992
7F92
4992
7F92
0812
FFD2
2C02
2A02
4982
88C2
0806
ENDCHAR
STARTCHAR 5283
ENCODING 21123
SWIDTH 1020 0
DWIDTH 17 0
BBX 15 17 0 -2
BITMAP
0802
0812
0812
7F92
0992
FFD2
0992
7F92
0812
FFD2
4992
7F92
4982
7F82
0002
FFE2
0006
ENDCHAR
STARTCHAR 5287
ENCODING 21127
SWIDTH 1020 0
DWIDTH 17 0
BBX 15 17 0 -2
BITMAP
0802
0F92
0F92
0812
7FD2
4992
7E12
4992
4792
4012
7FD2
44D2
5AC2
4782
BAC2
8222
0C06
ENDCHAR
STARTCHAR 5288
ENCODING 21128
SWIDTH 1020 0
DWIDTH 17 0
BBX 16 17 0 -2
BITMAP
0010
3E10
3E10
22FE
3EC4
2028
3FFF
6210
A2FE
3E10
0010
7FFE
0202
0202
0402
1804
E018
ENDCHAR
STARTCHAR 5289
ENCODING 21129
SWIDTH 1020 0
DWIDTH 17 0
BBX 15 17 0 -2
BITMAP
0802
7FD2
7FD2
42D2
52D2
54D2
74D2
D992
1612
2192
7ED2
8812
7FC2
4982
2A02
1FC2
E006
ENDCHAR
STARTCHAR 528D
ENCODING 21133
SWIDTH 1020 0
DWIDTH 17 0
BBX 15 17 0 -2
BITMAP
0802
0C12
0C12
1212
1192
20D2
5ED2
8012
7BD2
4AD2
4AD2
7BD2
2182
31C2
4A22
4222
8C06
ENDCHAR
STARTCHAR 5291
ENCODING 21137
SWIDTH 1020 0
DWIDTH 17 0
BBX 15 17 0 -2
BITMAP
0402
7FEA
7FEA
118A
0A2A
F5CA
55AA
559A
55EA
A4CA
20CA
3FCA
20C2
3FC2
20C2
40C2
80C6
ENDCHAR
STARTCHAR 5292
ENCODING 21138
SWIDTH 1020 0
DWIDTH 17 0
BBX 15 17 0 -2
BITMAP
0800
0800
0800
15FE
120A
238A
5DAA
802A
77AA
55CA
5592
7792
2212
2222
55A4
48C4
9198
ENDCHAR
STARTCHAR 5294
ENCODING 21140
SWIDTH 1020 0
DWIDTH 17 0
BBX 16 17 0 -2
BITMAP
0800
0800
0800
15FE
1212
2392
5CD2
80D2
77B2
5592
5592
77AA
2226
23A3
54C4
4984
9218
ENDCHAR
STARTCHAR 529B
ENCODING 21147
SWIDTH 1020 0
DWIDTH 17 0
BBX 15 17 0 -2
BITMAP
0180
0180
0180
0180
0180
FFFE
0182
0182
0202
0202
0202
0402
0402
0804
1004
2008
C030
ENDCHAR
STARTCHAR 529F
ENCODING 21151
SWIDTH 1020 0
DWIDTH 17 0
BBX 15 17 0 -2
BITMAP
0020
0020
0020
0020
FE20
11FE
1022
1022
1022
1622
18C2
E0C2
0182
0182
0204
0404
1818
ENDCHAR
STARTCHAR 52A0
ENCODING 21152
SWIDTH 1020 0
DWIDTH 17 0
BBX 15 17 0 -2
BITMAP
1000
1000
1000
1000
103E
FE22
1222
1222
1222
1222
1222
2222
2222
2422
443E
4422
9800
ENDCHAR
STARTCHAR 52A3
ENCODING 21155
SWIDTH 1020 0
DWIDTH 17 0
BBX 16 17 0 -2
BITMAP
0180
0990
0990
098C
1192
23A1
C1C0
0E00
F180
0180
7FFC
0184
0204
0204
0408
1808
E030
ENDCHAR
STARTCHAR 52A9
ENCODING 21161
SWIDTH 1020 0
DWIDTH 17 0
BBX 15 17 0 -2
BITMAP
0020
0020
0020
7C20
4420
47FE
7C22
4422
4422
7C22
4422
44C2
4EC2
70C4
C184
0204
0C18
ENDCHAR
STARTCHAR 52AA
ENCODING 21162
SWIDTH 1020 0
DWIDTH 17 0
BBX 16 17 0 -2
BITMAP
2000
2000
2000
FEFE
24C4
C428
2810
182C
25C3
C580
3FFC
0184
0204
0204
0408
1808
6030
ENDCHAR
STARTCHAR 52AB
ENCODING 21163
SWIDTH 1020 0
DWIDTH 17 0
BBX 15 17 0 -2
BITMAP
1010
1010
1010
1010
7E10
11FE
1012
1012
FF92
1012
2012
2822
2422
5E22
E2C4
0184
0618
ENDCHAR
STARTCHAR 52AC
ENCODING 21164
SWIDTH 1020 0
DWIDTH 17 0
BBX 15 17 0 -2
BITMAP
2010
2010
2010
2010
3F90
41FE
4192
F992
4992
4992
4992
7992
49A2
0222
0224
04C4
1998
ENDCHAR
STARTCHAR 52AD
ENCODING 21165
SWIDTH 1020 0
DWIDTH 17 0
BBX 15 17 0 -2
BITMAP
0010
FE10
FE10
1210
1210
23FE
2212
4212
8C12
0012
7C22
4422
4422
44C2
44C4
7D84
4618
ENDCHAR
STARTCHAR 52B1
ENCODING 21169
SWIDTH 1020 0
DWIDTH 17 0
BBX 15 17 0 -2
BITMAP
0010
3FD0
3FD0
2010
2010
3FFE
2812
2812
2F92
2992
2992
2992
2992
49A2
5224
92C4
2D98
ENDCHAR
STARTCHAR 52B4
ENCODING 21172
SWIDTH 1020 0
DWIDTH 17 0
BBX 15 17 0 -2
BITMAP
2208
1188
1188
0990
7FFE
4002
4202
0200
7FFC
0204
0204
0204
0404
0404
0808
3008
C030
ENDCHAR
STARTCHAR 52B5
ENCODING 21173
SWIDTH 1020 0
DWIDTH 17 0
BBX 16 17 0 -2
BITMAP
0990
0988
0988
1184
3FFC
02C0
0420
FFFF
0810
1208
2204
DFFB
0208
0408
0410
0810
30E0
ENDCHAR
STARTCHAR 52B9
ENCODING 21177
SWIDTH 1020 0
DWIDTH 17 0
BBX 15 17 0 -2
BITMAP
1010
1010
1010
1010
FE10
29FE
2412
4392
A412
1412
0822
0822
1422
14C2
20C4
4184
8618
ENDCHAR
STARTCHAR 52BC
ENCODING 21180
SWIDTH 1020 0
DWIDTH 17 0
BBX 15 17 0 -2
BITMAP
1010
1010
1010
1010
FE10
11FE
1012
7C12
0012
0012
7C22
4422
4422
44C2
7CC4
4584
0618
ENDCHAR
STARTCHAR 52BE
ENCODING 21182
SWIDTH 1020 0
DWIDTH 17 0
BBX 15 17 0 -2
BITMAP
1010
1010
1010
1010
FE10
11FE
1412
A412
4812
2A12
1212
2422
4422
8822
14C4
22C4
C398
ENDCHAR
STARTCHAR 52C1
ENCODING 21185
SWIDTH 1020 0
DWIDTH 17 0
BBX 15 17 0 -2
BITMAP
0010
FF90
FF90
0010
4990
49FE
9212
4992
4992
0012
FF92
0822
0822
0BA2
1CC4
E0C4
0198
ENDCHAR
STARTCHAR 52C3
ENCODING 21187
SWIDTH 1020 0
DWIDTH 17 0
BBX 15 17 0 -2
BITMAP
0810
0810
0810
FF90
0810
09FE
FF92
8192
BE12
0412
0B92
1C12
E822
0822
08C4
0984
1A18
ENDCHAR
STARTCHAR 52C5
ENCODING 21189
SWIDTH 1020 0
DWIDTH 17 0
BBX 15 17 0 -2
BITMAP
0810
0810
0810
FFD0
0810
09FE
7F92
4992
4992
7F92
4992
1C12
2A22
29A2
48C4
88C4
0998
ENDCHAR
STARTCHAR 52C7
ENCODING 21191
SWIDTH 1020 0
DWIDTH 17 0
BBX 14 16 0 -2
BITMAP
1FF8
1FF8
0220
01C0
1FF8
1188
1FF8
1188
1FF8
0180
7FFC
0204
0204
0408
1808
E030
ENDCHAR
STARTCHAR 52C9
ENCODING 21193
SWIDTH 1020 0
DWIDTH 17 0
BBX 16 17 0 -2
BITMAP
2020
2020
2020
7C20
4820
93FC
FE24
9224
9224
FE24
AA24
28C4
28C8
2988
4A31
4801
87FF
ENDCHAR
STARTCHAR 52CD
ENCODING 21197
SWIDTH 1020 0
DWIDTH 17 0
BBX 15 17 0 -2
BITMAP
0810
0810
0810
FFD0
0010
01FE
7E12
4212
4212
7E12
0812
2A22
29A2
49A2
48C4
88C4
1998
ENDCHAR
STARTCHAR 52D2
ENCODING 21202
SWIDTH 1020 0
DWIDTH 17 0
BBX 15 17 0 -2
BITMAP
2810
2810
2810
FF90
2810
39FE
1012
7C12
5412
5412
7C12
5422
1022
FFA2
10C4
10C4
1398
ENDCHAR
STARTCHAR 52D5
ENCODING 21205
SWIDTH 1020 0
DWIDTH 17 0
BBX 15 17 0 -2
BITMAP
0390
7C10
7C10
0810
FFD0
08FE
7F92
4992
7F92
4992
7F92
0822
FFE2
0822
1EC4
E184
0218
ENDCHAR
STARTCHAR 52D7
ENCODING 21207
SWIDTH 1020 0
DWIDTH 17 0
BBX 15 16 0 -2
BITMAP
0FF8
0FF8
0808
0FF8
0808
0FF8
0008
3E00
23FE
3E12
2212
3E12
2222
3FA4
E0C4
0398
ENDCHAR
STARTCHAR 52D8
ENCODING 21208
SWIDTH 1020 0
DWIDTH 17 0
BBX 15 17 0 -2
BITMAP
2210
2210
2210
FFD0
2210
3EFE
2212
3E12
2212
FFD2
5412
5412
5412
63A2
4024
7FC4
4198
ENDCHAR
STARTCHAR 52D9
ENCODING 21209
SWIDTH 1020 0
DWIDTH 17 0
BBX 16 17 0 -2
BITMAP
0020
7E20
7E20
22FF
14C4
19A8
0810
FE28
1AC4
2DA3
2820
2BFC
48C4
88C4
0988
0A08
1C30
ENDCHAR
STARTCHAR 52DD
ENCODING 21213
SWIDTH 1020 0
DWIDTH 17 0
BBX 16 17 0 -2
BITMAP
0224
79A4
79A4
49A8
4BFE
4820
7820
4FFF
48C8
49A4
7E23
4BFC
4824
48C4
48C4
8984
9A18
ENDCHAR
STARTCHAR 52DE
ENCODING 21214
SWIDTH 1020 0
DWIDTH 17 0
BBX 14 17 1 -2
BITMAP
1020
95A4
95A4
55A8
1320
2850
4588
FFFC
8304
8304
7FF0
0410
0410
0810
1020
2020
C1C0
ENDCHAR
STARTCHAR 52DF
ENCODING 21215
SWIDTH 1020 0
DWIDTH 17 0
BBX 16 17 0 -2
BITMAP
0420
FFFF
FFFF
0420
0FF0
0810
0FF0
0810
0FF0
0200
FFFF
0A10
1FF8
E217
0410
0820
31C0
ENDCHAR
STARTCHAR 52E0
ENCODING 21216
SWIDTH 1020 0
DWIDTH 17 0
BBX 15 17 0 -2
BITMAP
0010
F7D0
F7D0
31D0
D6D0
31FE
D6D2
18D2
1412
2A12
C9D2
1412
65A2
09A2
7224
0CC4
F198
ENDCHAR
STARTCHAR 52E2
ENCODING 21218
SWIDTH 1020 0
DWIDTH 17 0
BBX 16 17 0 -2
BITMAP
1020
7C20
7C20
11FC
FE24
29A4
4EE4
9025
7CD2
118B
3D89
C180
3FFC
0204
0404
1808
6030
ENDCHAR
STARTCHAR 52E3
ENCODING 21219
SWIDTH 1020 0
DWIDTH 17 0
BBX 15 17 0 -2
BITMAP
0810
7F90
7F90
0810
3E10
09FE
FF92
0012
7E12
4212
7E12
4222
7E22
4222
7EC4
24C4
C398
ENDCHAR
STARTCHAR 52E4
ENCODING 21220
SWIDTH 1020 0
DWIDTH 17 0
BBX 15 17 0 -2
BITMAP
2410
FF90
FF90
2410
0010
7FFE
5212
5212
7E12
1012
FFA2
1022
FFA2
10C2
1EC4
F184
0218
ENDCHAR
STARTCHAR 52E6
ENCODING 21222
SWIDTH 1020 0
DWIDTH 17 0
BBX 15 17 0 -2
BITMAP
2990
5210
5210
5210
2990
7F90
49FE
7F92
4992
7F92
0812
FFE2
1C22
2BA2
48C4
88C4
0998
ENDCHAR
STARTCHAR 52E7
ENCODING 21223
SWIDTH 1020 0
DWIDTH 17 0
BBX 15 17 0 -2
BITMAP
2010
2010
2010
7F90
5010
91FE
FF92
2412
2812
7F92
C812
7F92
4822
7FA2
48C4
7FC4
4198
ENDCHAR
STARTCHAR 52F2
ENCODING 21234
SWIDTH 1020 0
DWIDTH 17 0
BBX 16 17 0 -2
BITMAP
0610
7810
7810
0810
FF90
08FE
7F92
4992
7F92
4992
7FA2
0822
7FC4
0804
FFD8
28C4
C633
ENDCHAR
STARTCHAR 52F3
ENCODING 21235
SWIDTH 1020 0
DWIDTH 17 0
BBX 15 17 0 -2
BITMAP
0390
7C10
7C10
0810
FF90
08FE
7F92
6B92
5D92
4992
7F92
0822
7FA2
0822
FFC4
54C4
9598
ENDCHAR
STARTCHAR 52F5
ENCODING 21237
SWIDTH 1020 0
DWIDTH 17 0
BBX 15 17 0 -2
BITMAP
0010
7FD0
7FD0
4010
4A10
7FFE
4A12
5F92
5592
5F92
5592
5F92
4412
BFD2
A4D4
AEE4
21D8
ENDCHAR
STARTCHAR 52F8
ENCODING 21240
SWIDTH 1020 0
DWIDTH 17 0
BBX 15 17 0 -2
BITMAP
2210
FFD0
FFD0
2210
7790
55FE
7792
2412
2812
7F92
C812
7E12
4822
7E22
4824
7FC4
4198
ENDCHAR
STARTCHAR 52F9
ENCODING 21241
SWIDTH 1020 0
DWIDTH 17 0
BBX 15 17 0 -2
BITMAP
1000
1000
1000
1000
1FFE
2002
2002
4002
8002
0002
0002
0002
0002
0004
0004
0008
0030
ENDCHAR
STARTCHAR 52FA
ENCODING 21242
SWIDTH 1020 0
DWIDTH 17 0
BBX 15 17 0 -2
BITMAP
0800
0800
0800
0800
1FFE
1002
2002
4802
8402
0402
0202
0204
0004
0004
0008
0008
0030
ENDCHAR
STARTCHAR 52FE
ENCODING 21246
SWIDTH 1020 0
DWIDTH 17 0
BBX 15 17 0 -2
BITMAP
0800
0800
0800
0800
1FFE
1002
2402
4402
8402
0802
0982
10C2
17E2
7822
0004
0004
0018
ENDCHAR
STARTCHAR 52FF
ENCODING 21247
SWIDTH 1020 0
DWIDTH 17 0
BBX 15 17 0 -2
BITMAP
0800
0800
0800
0800
1FFE
1222
2222
4422
8422
08C2
10C2
6182
0202
0C04
3004
0008
0030
ENDCHAR
STARTCHAR 5301
ENCODING 21249
SWIDTH 1020 0
DWIDTH 17 0
BBX 16 17 0 -2
BITMAP
0800
0800
0800
0FFC
10C4
10C4
20C4
4984
8584
0204
0588
08E8
3010
C01C
0013
0020
01C0
ENDCHAR
STARTCHAR 5302
ENCODING 21250
SWIDTH 1020 0
DWIDTH 17 0
BBX 15 17 0 -2
BITMAP
0800
0800
0800
1FFE
1002
2002
5002
90C2
1382
1C02
1002
10C2
10C2
0FC4
0004
0008
0030
ENDCHAR
STARTCHAR 5305
ENCODING 21253
SWIDTH 1020 0
DWIDTH 17 0
BBX 16 17 0 -2
BITMAP
1000
1000
1000
1FFC
2004
2004
7FC4
80C4
00C4
1FC4
10C8
1008
1030
1000
1001
1001
0FFF
ENDCHAR
STARTCHAR 5306
ENCODING 21254
SWIDTH 1020 0
DWIDTH 17 0
BBX 15 17 0 -2
BITMAP
1000
1000
1000
1FFE
2192
2192
4212
9A22
0622
09A2
30C2
01A2
0212
0C14
3004
0008
0030
ENDCHAR
STARTCHAR 5308
ENCODING 21256
SWIDTH 1020 0
DWIDTH 17 0
BBX 15 17 0 -2
BITMAP
1000
1000
1000
1FFE
2002
2182
79A2
A5A2
2222
25A2
29A2
2022
3FE2
2024
0004
0008
0030
ENDCHAR
STARTCHAR 530D
ENCODING 21261
SWIDTH 1020 0
DWIDTH 17 0
BBX 15 17 0 -2
BITMAP
1000
1000
1000
3FFE
24C2
4422
BFF2
0402
3FE2
2422
3FE2
2422
3FE2
2422
2424
24E4
0018
ENDCHAR
STARTCHAR 530F
ENCODING 21263
SWIDTH 1020 0
DWIDTH 17 0
BBX 16 17 0 -2
BITMAP
10C0
10C0
10C0
FDFC
1184
2A04
47F4
B994
0194
FFF4
2194
7D84
4598
0580
0981
0981
30FF
ENDCHAR
STARTCHAR 5310
ENCODING 21264
SWIDTH 1020 0
DWIDTH 17 0
BBX 15 17 0 -2
BITMAP
1000
1000
1000
3FFE
2002
5FE2
8002
0FC2
08C2
0FC2
0002
3FF2
2212
3FF2
2214
3FF4
2018
ENDCHAR
STARTCHAR 5315
ENCODING 21269
SWIDTH 1020 0
DWIDTH 17 0
BBX 13 17 1 -2
BITMAP
2000
2000
2000
2000
2000
2010
2020
21C0
2700
3800
E000
2000
2000
2000
2008
2008
1FF8
ENDCHAR
STARTCHAR 5316
ENCODING 21270
SWIDTH 1020 0
DWIDTH 17 0
BBX 16 17 0 -2
BITMAP
0980
0980
0980
0980
1180
1182
3184
5198
91E0
1180
1180
1180
1180
1180
1181
1181
10FF
ENDCHAR
STARTCHAR 5317
ENCODING 21271
SWIDTH 1020 0
DWIDTH 17 0
BBX 16 17 0 -2
BITMAP
04C0
04C0
04C0
04C0
04C0
04C2
FCCC
04F0
04C0
04C0
04C0
0CC0
34C0
C4C1
04C1
043F
0400
ENDCHAR
STARTCHAR 5319
ENCODING 21273
SWIDTH 1020 0
DWIDTH 17 0
BBX 16 16 0 -2
BITMAP
7E20
7E20
4220
7E20
4222
7E24
0038
FFA0
0820
4820
4FA2
4822
681E
5800
4C00
83FF
ENDCHAR
STARTCHAR 531A
ENCODING 21274
SWIDTH 1020 0
DWIDTH 17 0
BBX 15 16 1 -2
BITMAP
FFFC
FFFC
8000
8000
8000
8000
8000
8000
8000
8000
8000
8000
8000
8000
FFFE
8000
ENDCHAR
STARTCHAR 531D
ENCODING 21277
SWIDTH 1020 0
DWIDTH 17 0
BBX 15 16 1 -2
BITMAP
FFFC
FFFC
8000
8300
8300
9FF0
9310
9310
9310
9310
9370
8300
8300
8000
FFFE
8000
ENDCHAR
STARTCHAR 5320
ENCODING 21280
SWIDTH 1020 0
DWIDTH 17 0
BBX 15 16 1 -2
BITMAP
FFFC
FFFC
8000
8060
8F80
8800
8800
8FFC
8840
8840
8840
9040
A040
8000
FFFE
8000
ENDCHAR
STARTCHAR 5321
ENCODING 21281
SWIDTH 1020 0
DWIDTH 17 0
BBX 15 16 1 -2
BITMAP
FFFC
FFFC
8000
8000
9FF0
8300
8300
8FE0
8300
8300
8300
BFF8
8000
8000
FFFE
8000
ENDCHAR
STARTCHAR 5323
ENCODING 21283
SWIDTH 1020 0
DWIDTH 17 0
BBX 15 16 1 -2
BITMAP
FFFC
FFFC
8000
8000
9FF0
9190
9FF0
9190
9190
9FF0
9190
8180
8180
8180
FFFE
8000
ENDCHAR
STARTCHAR 532A
ENCODING 21290
SWIDTH 1020 0
DWIDTH 17 0
BBX 15 16 1 -2
BITMAP
FFFC
FFFC
8000
8440
BC7C
8440
9C78
8440
8C40
B47C
8440
8840
B040
8000
FFFE
8000
ENDCHAR
STARTCHAR 532F
ENCODING 21295
SWIDTH 1020 0
DWIDTH 17 0
BBX 15 16 1 -2
BITMAP
FFFC
FFFC
8190
91A0
8BF8
AF20
9320
93F8
8B20
8BF8
9320
9320
A3FC
A300
FFFE
8000
ENDCHAR
STARTCHAR 5331
ENCODING 21297
SWIDTH 1020 0
DWIDTH 17 0
BBX 15 16 1 -2
BITMAP
FFFC
FFFC
8180
8FF0
8990
8FF0
8180
FFFE
8810
8FF0
8810
8FF0
8440
8820
FFFE
8000
ENDCHAR
STARTCHAR 5333
ENCODING 21299
SWIDTH 1020 0
DWIDTH 17 0
BBX 15 16 1 -2
BITMAP
FFFC
FFFC
8180
8340
8420
8810
B7EC
8000
9F78
9348
9F78
8820
9430
A348
FFFE
8000
ENDCHAR
STARTCHAR 5338
ENCODING 21304
SWIDTH 1020 0
DWIDTH 17 0
BBX 16 13 0 -1
BITMAP
FFFF
2000
2000
2000
2000
2000
2000
2000
2000
2000
2000
2000
1FFF
ENDCHAR
STARTCHAR 5339
ENCODING 21305
SWIDTH 1020 0
DWIDTH 17 0
BBX 15 14 1 -2
BITMAP
FFFC
8980
8980
8980
8980
8980
9188
9188
A078
C000
8000
8000
FFFE
8000
ENDCHAR
STARTCHAR 533A
ENCODING 21306
SWIDTH 1020 0
DWIDTH 17 0
BBX 15 16 1 -2
BITMAP
FFFC
FFFC
8000
8010
9010
8820
8420
8340
8180
8340
8420
8810
B010
8000
FFFE
8000
ENDCHAR
STARTCHAR 533B
ENCODING 21307
SWIDTH 1020 0
DWIDTH 17 0
BBX 15 16 1 -2
BITMAP
FFFC
FFFC
8400
8400
8FF0
8980
9180
BFF8
8180
8340
8420
8810
B00C
8000
FFFE
8000
ENDCHAR
STARTCHAR 533F
ENCODING 21311
SWIDTH 1020 0
DWIDTH 17 0
BBX 15 16 1 -2
BITMAP
FFFC
FFFC
8440
8440
BFF8
8440
8300
FFFC
8400
9FE0
E820
8820
8FE0
8000
FFFE
8000
ENDCHAR
STARTCHAR 5340
ENCODING 21312
SWIDTH 1020 0
DWIDTH 17 0
BBX 15 16 1 -2
BITMAP
FFFC
FFFC
8000
87E0
8420
8420
87E0
8000
BF7C
A344
A344
BF7C
A344
8000
FFFE
8000
ENDCHAR
STARTCHAR 5341
ENCODING 21313
SWIDTH 1020 0
DWIDTH 17 0
BBX 16 17 0 -2
BITMAP
0180
0180
0180
0180
0180
0180
0180
FFFF
0180
0180
0180
0180
0180
0180
0180
0180
0180
ENDCHAR
STARTCHAR 5343
ENCODING 21315
SWIDTH 1020 0
DWIDTH 17 0
BBX 16 17 0 -2
BITMAP
0018
01E0
01E0
3F80
0180
0180
0180
0180
FFFF
0180
0180
0180
0180
0180
0180
0180
0180
ENDCHAR
STARTCHAR 5345
ENCODING 21317
SWIDTH 1020 0
DWIDTH 17 0
BBX 16 17 0 -2
BITMAP
1188
1188
1188
1188
1188
1188
1188
FFFF
1188
1188
1188
1188
1188
2188
2188
4188
8188
ENDCHAR
STARTCHAR 5346
ENCODING 21318
SWIDTH 1020 0
DWIDTH 17 0
BBX 16 17 0 -2
BITMAP
0200
0200
0200
0200
7FE0
0420
0420
0820
1022
219E
C180
0180
FFFF
0180
0180
0180
0180
ENDCHAR
STARTCHAR 5347
ENCODING 21319
SWIDTH 1020 0
DWIDTH 17 0
BBX 16 17 0 -2
BITMAP
01D0
0610
0610
7C10
0410
0410
0410
FFFF
0410
0410
0410
0410
0810
0810
1010
2010
4010
ENDCHAR
STARTCHAR 5348
ENCODING 21320
SWIDTH 1020 0
DWIDTH 17 0
BBX 16 17 0 -2
BITMAP
0800
0800
0800
0800
1FFC
1180
2180
4180
0180
FFFF
0180
0180
0180
0180
0180
0180
0180
ENDCHAR
STARTCHAR 5349
ENCODING 21321
SWIDTH 1020 0
DWIDTH 17 0
BBX 16 17 0 -2
BITMAP
0180
0180
0180
0180
7FFE
0180
0990
0990
0990
0810
FFFF
0810
0810
1010
1010
2010
C010
ENDCHAR
STARTCHAR 534A
ENCODING 21322
SWIDTH 1020 0
DWIDTH 17 0
BBX 16 17 0 -2
BITMAP
1188
0988
0988
0990
09A0
0180
3FFC
0180
0180
0180
FFFF
0180
0180
0180
0180
0180
0180
ENDCHAR
STARTCHAR 534D
ENCODING 21325
SWIDTH 1020 0
DWIDTH 17 0
BBX 16 17 0 -2
BITMAP
0002
FF82
FF82
0182
0182
0182
0182
0182
7FFE
4182
4180
4180
4180
4180
4180
41FF
4180
ENDCHAR
STARTCHAR 5351
ENCODING 21329
SWIDTH 1020 0
DWIDTH 17 0
BBX 16 17 0 -2
BITMAP
0200
0200
0200
1FF8
1188
1188
1FF8
1188
1188
1FF8
04C8
08C0
FFFF
00C0
00C0
00C0
00C0
ENDCHAR
STARTCHAR 5352
ENCODING 21330
SWIDTH 1020 0
DWIDTH 17 0
BBX 16 17 0 -2
BITMAP
0180
0180
0180
7FFE
0810
0810
1428
1428
22C4
4182
FFFF
0180
0180
0180
0180
0180
0180
ENDCHAR
STARTCHAR 5353
ENCODING 21331
SWIDTH 1020 0
DWIDTH 17 0
BBX 16 17 0 -2
BITMAP
0180
0180
0180
01FE
0180
1FF8
1008
1008
1FF8
1008
1008
1FF8
0180
FFFF
0180
0180
0180
ENDCHAR
STARTCHAR 5354
ENCODING 21332
SWIDTH 1020 0
DWIDTH 17 0
BBX 15 17 0 -2
BITMAP
20C0
20C0
20C0
27F8
20C8
F8C8
2188
21B0
2610
2410
3FFE
24D2
24D2
24D2
29A4
29A4
36D8
ENDCHAR
STARTCHAR 5357
ENCODING 21335
SWIDTH 1020 0
DWIDTH 17 0
BBX 16 17 0 -2
BITMAP
0180
0180
0180
FFFF
0180
0180
3FFC
2424
22C4
2FF4
2184
2184
2FF4
2184
2184
2184
200C
ENDCHAR
STARTCHAR 5358
ENCODING 21336
SWIDTH 1020 0
DWIDTH 17 0
BBX 16 17 0 -2
BITMAP
1210
0990
0990
05A0
1FF8
1188
1188
1FF8
1188
1188
1FF8
0180
FFFF
0180
0180
0180
0180
ENDCHAR
STARTCHAR 535A
ENCODING 21338
SWIDTH 1020 0
DWIDTH 17 0
BBX 16 17 0 -2
BITMAP
2024
2022
2022
27FF
2020
FBFC
2224
23FC
2224
23FC
2008
2FFF
2208
2188
20C8
20C8
2018
ENDCHAR
STARTCHAR 535C
ENCODING 21340
SWIDTH 1020 0
DWIDTH 17 0
BBX 7 17 7 -2
BITMAP
C0
C0
C0
C0
C0
C0
E0
D8
C4
C2
C0
C0
C0
C0
C0
C0
C0
ENDCHAR
STARTCHAR 535E
ENCODING 21342
SWIDTH 1020 0
DWIDTH 17 0
BBX 16 17 0 -2
BITMAP
0180
0180
0180
0180
FFFF
0180
0180
0180
01E0
0198
0184
0180
0180
0180
0180
0180
0180
ENDCHAR
STARTCHAR 5360
ENCODING 21344
SWIDTH 1020 0
DWIDTH 17 0
BBX 12 17 3 -2
BITMAP
0C00
0C00
0C00
0C00
0C00
0FF0
0C00
0C00
0C00
0C00
FFC0
8040
8040
8040
8040
FFC0
8040
ENDCHAR
STARTCHAR 5366
ENCODING 21350
SWIDTH 1020 0
DWIDTH 17 0
BBX 16 17 0 -2
BITMAP
0810
0810
0810
7F90
0810
0810
FFD8
0014
0812
0811
7F90
0810
0810
0BD0
1C10
E010
0010
ENDCHAR
STARTCHAR 5369
ENCODING 21353
SWIDTH 1020 0
DWIDTH 17 0
BBX 7 14 5 -2
BITMAP
FE
82
82
82
82
82
82
82
82
9E
80
80
80
80
ENDCHAR
STARTCHAR 536E
ENCODING 21358
SWIDTH 1020 0
DWIDTH 17 0
BBX 16 17 0 -2
BITMAP
000C
00F0
00F0
3F80
2000
2000
3FFF
2000
2000
27F8
2408
2408
2438
4400
4402
8402
03FE
ENDCHAR
STARTCHAR 536F
ENCODING 21359
SWIDTH 1020 0
DWIDTH 17 0
BBX 15 17 0 -2
BITMAP
0180
0600
0600
383E
2222
2222
2222
2222
2222
2222
2E22
3222
C22E
0420
0420
0820
3020
ENDCHAR
STARTCHAR 5370
ENCODING 21360
SWIDTH 1020 0
DWIDTH 17 0
BBX 14 17 1 -2
BITMAP
0300
0C00
0C00
F1FC
8184
8184
8184
FD84
8184
8184
8184
8184
FD84
819C
8180
0180
0180
ENDCHAR
STARTCHAR 5371
ENCODING 21361
SWIDTH 1020 0
DWIDTH 17 0
BBX 15 17 0 -2
BITMAP
0400
07E0
07E0
08C0
1180
3FFE
E000
2000
27F0
2410
2410
2410
24F0
4400
4402
8402
03FE
ENDCHAR
STARTCHAR 5373
ENCODING 21363
SWIDTH 1020 0
DWIDTH 17 0
BBX 15 16 0 -2
BITMAP
3E3E
3E3E
2222
2222
3E22
2222
2222
3E22
2222
2822
2422
242E
3E20
E220
0220
0020
ENDCHAR
STARTCHAR 5374
ENCODING 21364
SWIDTH 1020 0
DWIDTH 17 0
BBX 15 17 0 -2
BITMAP
0800
083E
083E
0822
7FA2
0822
0822
0822
FFE2
1022
1422
1222
222E
2FA0
F1A0
0020
0020
ENDCHAR
STARTCHAR 5375
ENCODING 21365
SWIDTH 1020 0
DWIDTH 17 0
BBX 15 17 0 -2
BITMAP
00C0
0380
0380
3C3E
2222
3232
2A2A
2A2A
2A2A
2222
2622
3A22
E22E
0420
0420
0820
3020
ENDCHAR
STARTCHAR 5377
ENCODING 21367
SWIDTH 1020 0
DWIDTH 17 0
BBX 16 17 0 -2
BITMAP
0990
0988
0988
1188
3FFC
02C0
0420
FFFF
0810
1008
2FF4
C813
0810
08F0
0804
0804
07FC
ENDCHAR
STARTCHAR 5378
ENCODING 21368
SWIDTH 1020 0
DWIDTH 17 0
BBX 15 17 0 -2
BITMAP
2000
2000
2000
3FBE
4822
4822
FFE2
0822
0822
4FA2
4822
4822
4FA2
782E
C020
0020
0020
ENDCHAR
STARTCHAR 537B
ENCODING 21371
SWIDTH 1020 0
DWIDTH 17 0
BBX 15 17 0 -2
BITMAP
2400
223E
223E
41A2
9822
1422
2222
21A2
41A2
BE22
2222
2222
222E
2220
3E20
2220
0020
ENDCHAR
STARTCHAR 537F
ENCODING 21375
SWIDTH 1020 0
DWIDTH 17 0
BBX 15 17 0 -2
BITMAP
1800
67DE
67DE
44D2
54D2
57D2
54D2
54D2
57D2
54D2
7592
D592
14D6
25D0
26D0
4410
8010
ENDCHAR
STARTCHAR 5382
ENCODING 21378
SWIDTH 1020 0
DWIDTH 17 0
BBX 16 15 0 -1
BITMAP
3FFF
3FFF
2000
2000
2000
2000
2000
2000
2000
2000
2000
2000
4000
4000
8000
ENDCHAR
STARTCHAR 5384
ENCODING 21380
SWIDTH 1020 0
DWIDTH 17 0
BBX 16 16 0 -2
BITMAP
3FFF
3FFF
2000
2000
27F8
2408
2408
2408
2408
2438
2400
2400
4400
4401
8401
03FF
ENDCHAR
STARTCHAR 5396
ENCODING 21398
SWIDTH 1020 0
DWIDTH 17 0
BBX 16 16 0 -2
BITMAP
3FFF
3FFF
22C0
2220
2220
3FE4
2208
2232
23C4
2588
25B1
2582
498C
49B1
9181
20FF
ENDCHAR
STARTCHAR 5398
ENCODING 21400
SWIDTH 1020 0
DWIDTH 17 0
BBX 16 15 0 -1
BITMAP
3FFE
3FFE
2000
27F8
24C8
24C8
27F8
24C8
24C8
27F8
20C0
2FFC
40C0
40C0
9FFF
ENDCHAR
STARTCHAR 539A
ENCODING 21402
SWIDTH 1020 0
DWIDTH 17 0
BBX 16 16 0 -2
BITMAP
3FFE
3FFE
2000
27F0
2410
27F0
2410
27F0
2000
27F8
2010
4020
5FFF
40C0
80C0
01C0
ENDCHAR
STARTCHAR 539F
ENCODING 21407
SWIDTH 1020 0
DWIDTH 17 0
BBX 16 16 0 -2
BITMAP
3FFF
3FFF
20C0
2180
27F8
2408
2408
27F8
2408
2408
27F8
20C0
44C8
44C4
88C2
31C2
ENDCHAR
STARTCHAR 53A0
ENCODING 21408
SWIDTH 1020 0
DWIDTH 17 0
BBX 16 16 0 -2
BITMAP
3FFF
3FFF
2000
2F82
2992
2992
2F92
2992
2992
2F92
2992
2992
4F82
4402
8982
30C6
ENDCHAR
STARTCHAR 53A5
ENCODING 21413
SWIDTH 1020 0
DWIDTH 17 0
BBX 16 16 0 -2
BITMAP
3FFF
3FFF
28C8
24C8
2590
3FFF
222A
2ACC
2AC8
2AC8
2FD4
2AD4
4414
4422
8822
11C1
ENDCHAR
STARTCHAR 53A6
ENCODING 21414
SWIDTH 1020 0
DWIDTH 17 0
BBX 16 16 0 -2
BITMAP
3FFF
3FFF
2000
3FFE
2180
27F8
2408
27F8
2408
27F8
2200
23F8
4590
58E0
8398
3C07
ENDCHAR
STARTCHAR 53A8
ENCODING 21416
SWIDTH 1020 0
DWIDTH 17 0
BBX 16 16 0 -2
BITMAP
3FFF
3FFF
2000
2004
3FC4
2004
20FF
2F84
29A4
2994
2F94
3194
4A04
4BC4
BC04
000C
ENDCHAR
STARTCHAR 53A9
ENCODING 21417
SWIDTH 1020 0
DWIDTH 17 0
BBX 16 16 0 -2
BITMAP
3FFF
3FFF
2000
2000
2FBE
29A8
2FA8
29A8
2FFF
2A08
2A08
2998
4BA8
4DA9
98C9
0387
ENDCHAR
STARTCHAR 53AD
ENCODING 21421
SWIDTH 1020 0
DWIDTH 17 0
BBX 16 16 0 -2
BITMAP
3FFF
3FFF
2000
2FD0
2994
2F92
2012
2FFF
2990
2F90
29A8
2FA8
49A4
49A4
89A2
0BC1
ENDCHAR
STARTCHAR 53AE
ENCODING 21422
SWIDTH 1020 0
DWIDTH 17 0
BBX 16 16 0 -2
BITMAP
3FFF
3FFF
2000
2982
299C
3FF0
2990
2F9F
2994
2F94
2994
3FD4
4214
49A4
91A4
20C4
ENDCHAR
STARTCHAR 53B0
ENCODING 21424
SWIDTH 1020 0
DWIDTH 17 0
BBX 16 16 0 -2
BITMAP
3FFF
3FFF
2200
2B90
2AD0
3210
2FDF
28E4
2ED4
2AD4
2AC8
2EC8
4AD4
48D4
88D2
09E1
ENDCHAR
STARTCHAR 53B3
ENCODING 21427
SWIDTH 1020 0
DWIDTH 17 0
BBX 16 17 0 -2
BITMAP
0984
04C8
04C8
3FFF
2000
2010
2FD0
223F
3FE4
29A4
2F94
2994
2F88
4988
4F94
B9A2
01C1
ENDCHAR
STARTCHAR 53B6
ENCODING 21430
SWIDTH 1020 0
DWIDTH 17 0
BBX 16 17 0 -2
BITMAP
0180
0180
0180
0180
0180
0200
0200
0200
0400
0400
0410
0808
0804
1002
11FE
FE01
0001
ENDCHAR
STARTCHAR 53BB
ENCODING 21435
SWIDTH 1020 0
DWIDTH 17 0
BBX 16 17 0 -2
BITMAP
0180
0180
0180
0180
3FFC
0180
0180
0180
FFFF
0200
0200
0420
0410
0808
09FC
7E02
0002
ENDCHAR
STARTCHAR 53C2
ENCODING 21442
SWIDTH 1020 0
DWIDTH 17 0
BBX 16 17 0 -2
BITMAP
0200
0220
0220
0410
3FFC
0184
0200
FFFF
0420
0990
1228
2CC4
C38B
1C10
00E0
0380
1C00
ENDCHAR
STARTCHAR 53C3
ENCODING 21443
SWIDTH 1020 0
DWIDTH 17 0
BBX 16 17 0 -2
BITMAP
0420
0410
0410
09FC
7E0A
2008
4D93
F5BD
02C0
05A0
1998
E627
18C8
0390
1C20
01C0
0E00
ENDCHAR
STARTCHAR 53C8
ENCODING 21448
SWIDTH 1020 0
DWIDTH 17 0
BBX 16 14 0 -2
BITMAP
3FFC
0808
0808
0810
0410
0420
0220
02C0
0180
02C0
0420
0810
300C
C003
ENDCHAR
STARTCHAR 53C9
ENCODING 21449
SWIDTH 1020 0
DWIDTH 17 0
BBX 16 14 0 -2
BITMAP
7FF8
1008
1208
0990
0990
05A0
0420
02C0
0180
02C0
0420
0810
300C
C003
ENDCHAR
STARTCHAR 53CA
ENCODING 21450
SWIDTH 1020 0
DWIDTH 17 0
BBX 16 16 0 -2
BITMAP
7FF0
7FF0
0410
0420
0420
04C0
04F8
0A08
0988
0990
08D0
1020
10D0
2188
4604
9803
ENDCHAR
STARTCHAR 53CB
ENCODING 21451
SWIDTH 1020 0
DWIDTH 17 0
BBX 16 17 0 -2
BITMAP
0200
0200
0200
0200
FFFF
0200
0200
03F8
0410
0410
0A20
09A0
10C0
21A0
C210
0C0C
3003
ENDCHAR
STARTCHAR 53CC
ENCODING 21452
SWIDTH 1020 0
DWIDTH 17 0
BBX 16 16 0 -2
BITMAP
FDFC
FDFC
0584
0584
44C8
24C8
18C8
08D0
0C30
0A20
1230
12C8
20C8
2184
4202
8C01
ENDCHAR
STARTCHAR 53CD
ENCODING 21453
SWIDTH 1020 0
DWIDTH 17 0
BBX 16 16 0 -2
BITMAP
3FFF
3FFF
2000
2000
2000
3FF8
2408
2410
2210
2220
21A0
20C0
41A0
4210
8C0C
3003
ENDCHAR
STARTCHAR 53CE
ENCODING 21454
SWIDTH 1020 0
DWIDTH 17 0
BBX 16 17 0 -2
BITMAP
0800
4800
4800
4BFC
4984
4988
4988
48C8
48D0
48D0
5820
6820
C8D0
08C8
0988
0A04
0C03
ENDCHAR
STARTCHAR 53D4
ENCODING 21460
SWIDTH 1020 0
DWIDTH 17 0
BBX 16 17 0 -2
BITMAP
1000
1000
1000
11FC
1EC4
10C4
10C4
FFA8
1028
5428
5410
5210
5228
9028
10C4
1182
3601
ENDCHAR
STARTCHAR 53D6
ENCODING 21462
SWIDTH 1020 0
DWIDTH 17 0
BBX 16 16 0 -2
BITMAP
FFC0
FFC0
2400
25FE
3CC4
24C4
2424
3C28
2428
2410
2C10
3428
2428
C4C4
0584
0603
ENDCHAR
STARTCHAR 53D7
ENCODING 21463
SWIDTH 1020 0
DWIDTH 17 0
BBX 16 17 0 -2
BITMAP
001E
7FE4
7FE4
1208
0988
0990
7FFE
4002
4002
1FF8
0810
0420
02C0
0180
06E0
1818
E007
ENDCHAR
STARTCHAR 53D9
ENCODING 21465
SWIDTH 1020 0
DWIDTH 17 0
BBX 16 17 0 -2
BITMAP
1000
1800
1800
25FE
22C4
7EC4
90C4
1028
FFA8
1028
5810
5410
5228
5228
90C4
1182
3601
ENDCHAR
STARTCHAR 53DB
ENCODING 21467
SWIDTH 1020 0
DWIDTH 17 0
BBX 16 17 0 -2
BITMAP
1000
95FF
95FF
5580
5980
1180
FFFE
11A4
11A4
17A8
39A8
D190
1210
2228
24C4
4982
8601
ENDCHAR
STARTCHAR 53DF
ENCODING 21471
SWIDTH 1020 0
DWIDTH 17 0
BBX 16 17 0 -2
BITMAP
0780
39BC
39BC
2184
2184
3DBC
2184
2184
3FFC
0180
7FFC
0810
0420
02C0
03C0
1C38
E007
ENDCHAR
STARTCHAR 53E1
ENCODING 21473
SWIDTH 1020 0
DWIDTH 17 0
BBX 16 17 0 -2
BITMAP
0800
0800
0800
7FFE
41A2
3E22
4A22
4994
94D4
3E14
6388
BEC8
2214
3E14
2222
3EC2
2381
ENDCHAR
STARTCHAR 53E2
ENCODING 21474
SWIDTH 1020 0
DWIDTH 17 0
BBX 16 17 0 -2
BITMAP
12C8
0AD0
0AD0
FFFF
0420
02C0
3FFC
0180
1FF8
0180
FFFF
2200
3EFE
2214
3E08
E234
03C3
ENDCHAR
STARTCHAR 53E3
ENCODING 21475
SWIDTH 1020 0
DWIDTH 17 0
BBX 12 13 2 -1
BITMAP
FFF0
8010
8010
8010
8010
8010
8010
8010
8010
8010
8010
FFF0
8010
ENDCHAR
STARTCHAR 53E4
ENCODING 21476
SWIDTH 1020 0
DWIDTH 17 0
BBX 16 17 0 -2
BITMAP
0180
0180
0180
0180
0180
FFFF
0180
0180
0180
0180
1FF8
1008
1008
1008
1008
1FF8
1008
ENDCHAR
STARTCHAR 53E5
ENCODING 21477
SWIDTH 1020 0
DWIDTH 17 0
BBX 15 17 0 -2
BITMAP
0800
0800
0800
0800
1FFE
1002
2002
5F82
9182
1182
1182
1F82
1182
0004
0004
0008
0030
ENDCHAR
STARTCHAR 53E8
ENCODING 21480
SWIDTH 1020 0
DWIDTH 17 0
BBX 14 14 1 -2
BITMAP
FFFC
9044
9044
9044
9044
9044
9184
F184
9184
0304
0308
0408
0810
1060
ENDCHAR
STARTCHAR 53E9
ENCODING 21481
SWIDTH 1020 0
DWIDTH 17 0
BBX 14 14 1 -2
BITMAP
F9FC
8984
8984
8984
8984
8984
8984
8984
F984
899C
0180
0180
0180
0180
ENDCHAR
STARTCHAR 53EA
ENCODING 21482
SWIDTH 1020 0
DWIDTH 17 0
BBX 16 16 0 -2
BITMAP
1FF8
1FF8
1008
1008
1008
1008
1008
1008
1FF8
1008
0000
0420
0810
1008
2004
C003
ENDCHAR
STARTCHAR 53EB
ENCODING 21483
SWIDTH 1020 0
DWIDTH 17 0
BBX 15 17 1 -2
BITMAP
0010
0190
0190
F190
9190
9190
9190
9190
9190
9190
919E
F1F0
9790
0010
0010
0010
0010
ENDCHAR
STARTCHAR 53EC
ENCODING 21484
SWIDTH 1020 0
DWIDTH 17 0
BBX 15 16 0 -2
BITMAP
FFFE
FFFE
0202
0202
0402
0404
0804
3018
C000
1FF8
1008
1008
1008
1008
1FF8
1008
ENDCHAR
STARTCHAR 53ED
ENCODING 21485
SWIDTH 1020 0
DWIDTH 17 0
BBX 15 17 1 -2
BITMAP
0320
0320
0320
0320
F320
9320
9320
9320
9320
9410
F410
9410
0810
0808
1008
2004
4002
ENDCHAR
STARTCHAR 53EE
ENCODING 21486
SWIDTH 1020 0
DWIDTH 17 0
BBX 15 16 1 -2
BITMAP
0FFE
0FFE
F020
9020
9020
9020
9020
9020
9020
F020
9020
0020
0020
0020
0020
0060
ENDCHAR
STARTCHAR 53EF
ENCODING 21487
SWIDTH 1020 0
DWIDTH 17 0
BBX 16 14 0 -2
BITMAP
FFFF
0008
0008
1E08
1208
1208
1208
1E08
1208
0008
0008
0008
0008
0018
ENDCHAR
STARTCHAR 53F0
ENCODING 21488
SWIDTH 1020 0
DWIDTH 17 0
BBX 16 17 0 -2
BITMAP
0200
0200
0200
0410
0408
0804
11FE
FE01
0001
0000
1FF8
1008
1008
1008
1008
1FF8
1008
ENDCHAR
STARTCHAR 53F1
ENCODING 21489
SWIDTH 1020 0
DWIDTH 17 0
BBX 15 17 1 -2
BITMAP
0300
0300
0300
0300
F300
9300
9306
9338
93C0
9F00
9300
F300
9300
0300
0304
0304
01FC
ENDCHAR
STARTCHAR 53F2
ENCODING 21490
SWIDTH 1020 0
DWIDTH 17 0
BBX 16 17 0 -2
BITMAP
0180
0180
0180
0180
3FFC
2184
2184
2184
3FFC
2184
0980
0600
0200
0580
08E0
3018
C007
ENDCHAR
STARTCHAR 53F3
ENCODING 21491
SWIDTH 1020 0
DWIDTH 17 0
BBX 16 17 0 -2
BITMAP
0200
0200
0200
0200
FFFF
0400
0400
0800
1800
2FF8
C808
0808
0808
0808
0808
0FF8
0808
ENDCHAR
STARTCHAR 53F6
ENCODING 21494
SWIDTH 1020 0
DWIDTH 17 0
BBX 15 17 1 -2
BITMAP
0040
0040
0040
0040
F040
9040
9040
9FFE
9040
9040
9040
F040
9040
0040
0040
0040
0040
ENDCHAR
STARTCHAR 53F7
ENCODING 21495
SWIDTH 1020 0
DWIDTH 17 0
BBX 16 16 0 -2
BITMAP
0FF0
0FF0
0810
0810
0FF0
0000
FFFF
0400
0400
0FF0
0810
0010
0010
0020
0020
01C0
ENDCHAR
STARTCHAR 53F8
ENCODING 21496
SWIDTH 1020 0
DWIDTH 17 0
BBX 15 16 0 -2
BITMAP
FFFE
FFFE
0002
0002
3FE2
0002
0002
1F82
1182
1182
1F82
1182
0002
0002
0002
0006
ENDCHAR
STARTCHAR 53FA
ENCODING 21498
SWIDTH 1020 0
DWIDTH 17 0
BBX 15 16 1 -2
BITMAP
0F80
0F80
0180
F180
9180
9180
9180
9340
9340
F340
9320
0420
0410
0810
1008
6006
ENDCHAR
STARTCHAR 5401
ENCODING 21505
SWIDTH 1020 0
DWIDTH 17 0
BBX 15 16 1 -2
BITMAP
07FC
07FC
F040
9040
9040
9040
9FFE
9040
9040
9040
F040
9040
0040
0040
0040
01C0
ENDCHAR
STARTCHAR 5403
ENCODING 21507
SWIDTH 1020 0
DWIDTH 17 0
BBX 15 17 0 -2
BITMAP
0200
0200
0200
0200
F7FE
9400
9800
97F8
9010
9020
F0C0
9180
0200
0200
0402
0402
03FE
ENDCHAR
STARTCHAR 5404
ENCODING 21508
SWIDTH 1020 0
DWIDTH 17 0
BBX 16 17 0 -2
BITMAP
0200
0200
0200
07F8
0410
0C20
12C0
6180
02C0
0420
1818
EFF7
0810
0810
0810
0FF0
0810
ENDCHAR
STARTCHAR 5408
ENCODING 21512
SWIDTH 1020 0
DWIDTH 17 0
BBX 16 17 0 -2
BITMAP
0180
0180
0180
02C0
0420
0810
1008
2FF4
C003
0000
1FF8
1008
1008
1008
1008
1FF8
1008
ENDCHAR
STARTCHAR 5409
ENCODING 21513
SWIDTH 1020 0
DWIDTH 17 0
BBX 16 17 0 -2
BITMAP
0180
0180
0180
0180
FFFF
0180
0180
0180
7FFE
0000
0000
1FF8
1008
1008
1008
1FF8
1008
ENDCHAR
STARTCHAR 540A
ENCODING 21514
SWIDTH 1020 0
DWIDTH 17 0
BBX 12 16 2 -2
BITMAP
3FC0
3FC0
2040
2040
2040
3FC0
2640
0600
FFF0
8610
8610
8610
8610
8670
0600
0600
ENDCHAR
STARTCHAR 540B
ENCODING 21515
SWIDTH 1020 0
DWIDTH 17 0
BBX 15 17 1 -2
BITMAP
0010
0010
0010
0010
F010
9FFE
9010
9410
9310
9310
9310
F010
9010
0010
0010
0010
0030
ENDCHAR
STARTCHAR 540C
ENCODING 21516
SWIDTH 1020 0
DWIDTH 17 0
BBX 14 16 1 -2
BITMAP
FFFC
FFFC
8004
8004
9FE4
8004
8004
8FC4
8844
8844
8FC4
8844
8004
8004
8004
800C
ENDCHAR
STARTCHAR 540D
ENCODING 21517
SWIDTH 1020 0
DWIDTH 17 0
BBX 14 17 0 -2
BITMAP
0200
0200
0200
07FC
0808
1810
6620
01C0
0180
0200
0FFC
3404
C404
0404
0404
07FC
0404
ENDCHAR
STARTCHAR 540E
ENCODING 21518
SWIDTH 1020 0
DWIDTH 17 0
BBX 16 17 0 -2
BITMAP
000C
00F0
00F0
3F80
2000
2000
3FFF
2000
2000
27F8
2408
2408
4408
4408
8408
07F8
0408
ENDCHAR
STARTCHAR 540F
ENCODING 21519
SWIDTH 1020 0
DWIDTH 17 0
BBX 16 17 0 -2
BITMAP
0180
0180
0180
FFFF
0180
0180
1FF8
1188
1188
1FF8
1188
0980
0600
0380
04C0
1830
E00F
ENDCHAR
STARTCHAR 5410
ENCODING 21520
SWIDTH 1020 0
DWIDTH 17 0
BBX 15 16 1 -1
BITMAP
0040
0040
0040
0040
F040
9040
9040
9FFC
9040
9040
9040
F040
9040
0040
0040
1FFE
ENDCHAR
STARTCHAR 5411
ENCODING 21521
SWIDTH 1020 0
DWIDTH 17 0
BBX 14 17 1 -2
BITMAP
0400
0400
0400
0800
FFFC
8004
8004
8FC4
8844
8844
8844
8FC4
8844
8004
8004
8004
800C
ENDCHAR
STARTCHAR 541B
ENCODING 21531
SWIDTH 1020 0
DWIDTH 17 0
BBX 16 16 0 -2
BITMAP
3FF0
3FF0
0210
0210
FFFF
0210
0210
3FF0
0410
0800
1FF8
2808
C808
0808
0FF8
0808
ENDCHAR
STARTCHAR 541D
ENCODING 21533
SWIDTH 1020 0
DWIDTH 17 0
BBX 16 17 0 -2
BITMAP
0180
0180
0180
FFFF
0810
0420
02C0
0180
06E0
1818
E007
1FF8
1008
1008
1008
1FF8
1008
ENDCHAR
STARTCHAR 541F
ENCODING 21535
SWIDTH 1020 0
DWIDTH 17 0
BBX 15 17 1 -2
BITMAP
0040
0040
0040
01A0
F1A0
9310
95E8
9806
9000
97F8
F008
9010
0010
0020
0020
0040
0040
ENDCHAR
STARTCHAR 5420
ENCODING 21536
SWIDTH 1020 0
DWIDTH 17 0
BBX 15 17 1 -2
BITMAP
0040
0050
0050
0048
F048
9040
9FFE
9040
9040
91A0
91A0
F1A0
9310
0310
0408
0808
3006
ENDCHAR
STARTCHAR 5426
ENCODING 21542
SWIDTH 1020 0
DWIDTH 17 0
BBX 16 16 0 -2
BITMAP
FFFF
FFFF
00C0
0180
03B0
0D8C
3182
C181
0180
1FF8
1008
1008
1008
1008
1FF8
1008
ENDCHAR
STARTCHAR 5429
ENCODING 21545
SWIDTH 1020 0
DWIDTH 17 0
BBX 15 17 1 -2
BITMAP
0320
0320
0320
F320
9310
9410
9408
9804
97FA
9188
F188
9188
0308
0308
0410
0810
3060
ENDCHAR
STARTCHAR 542B
ENCODING 21547
SWIDTH 1020 0
DWIDTH 17 0
BBX 16 17 0 -2
BITMAP
0180
0180
0180
02C0
0420
0810
17E8
2004
CFF3
0020
00C0
0180
1FF8
1008
1008
1FF8
1008
ENDCHAR
STARTCHAR 542C
ENCODING 21548
SWIDTH 1020 0
DWIDTH 17 0
BBX 15 17 1 -2
BITMAP
0004
0018
0018
F3E0
9300
9300
93FE
9310
9310
9310
F310
9310
0410
0410
0810
1010
0010
ENDCHAR
STARTCHAR 542D
ENCODING 21549
SWIDTH 1020 0
DWIDTH 17 0
BBX 15 17 1 -2
BITMAP
0040
0040
0040
F040
9FFC
9000
9000
93E0
9320
9320
F320
9320
0420
0420
0822
1022
601E
ENDCHAR
STARTCHAR 542E
ENCODING 21550
SWIDTH 1020 0
DWIDTH 17 0
BBX 15 17 1 -2
BITMAP
0180
0180
0180
F1A0
9310
9308
947C
9FA4
9320
9320
F320
9320
0420
0420
0822
1022
601E
ENDCHAR
STARTCHAR 5436
ENCODING 21558
SWIDTH 1020 0
DWIDTH 17 0
BBX 14 17 1 -2
BITMAP
03C0
0040
0040
F040
9040
97FC
9444
9444
9444
95A4
F594
958C
0704
0404
0404
0404
040C
ENDCHAR
STARTCHAR 5438
ENCODING 21560
SWIDTH 1020 0
DWIDTH 17 0
BBX 15 16 1 -2
BITMAP
0FF0
0FF0
0310
F310
9320
9320
9378
9588
9588
F450
9450
0820
0850
1190
6708
1806
ENDCHAR
STARTCHAR 5439
ENCODING 21561
SWIDTH 1020 0
DWIDTH 17 0
BBX 15 17 1 -2
BITMAP
0180
0180
0180
0180
F3FC
9348
9450
9860
9040
9040
91A0
F1A0
9190
0310
0308
0408
1806
ENDCHAR
STARTCHAR 543B
ENCODING 21563
SWIDTH 1020 0
DWIDTH 17 0
BBX 15 17 0 -2
BITMAP
0180
0180
0180
0180
F3FE
92D2
94D2
9992
9192
9222
9422
F8C4
9184
0204
0C08
0008
0030
ENDCHAR
STARTCHAR 543C
ENCODING 21564
SWIDTH 1020 0
DWIDTH 17 0
BBX 16 17 0 -2
BITMAP
0010
0FD0
0FD0
F0D0
9390
9210
9210
9230
93D0
9E10
F210
9210
0210
0210
0211
0211
060F
ENDCHAR
STARTCHAR 543D
ENCODING 21565
SWIDTH 1020 0
DWIDTH 17 0
BBX 15 17 1 -2
BITMAP
0020
0320
0320
0320
F3FC
9420
9420
9820
9020
9FFE
9020
F020
9020
0020
0020
0020
0020
ENDCHAR
STARTCHAR 543E
ENCODING 21566
SWIDTH 1020 0
DWIDTH 17 0
BBX 16 16 0 -2
BITMAP
7FFE
7FFE
0200
0200
3FF0
0410
0810
0810
FFFF
0000
1FF8
1008
1008
1008
1FF8
1008
ENDCHAR
STARTCHAR 5440
ENCODING 21568
SWIDTH 1020 0
DWIDTH 17 0
BBX 15 16 1 -2
BITMAP
07FC
07FC
0010
F310
9310
9310
97FE
9450
9050
F190
9190
0310
0410
0810
3010
0030
ENDCHAR
STARTCHAR 5442
ENCODING 21570
SWIDTH 1020 0
DWIDTH 17 0
BBX 12 16 2 -2
BITMAP
7FE0
7FE0
4020
4020
4020
7FE0
4620
0800
0800
FFF0
8010
8010
8010
8010
FFF0
8010
ENDCHAR
STARTCHAR 5446
ENCODING 21574
SWIDTH 1020 0
DWIDTH 17 0
BBX 16 16 0 -2
BITMAP
0FF0
0FF0
0810
0810
0810
0FF0
0990
0180
FFFF
03C0
05A0
0990
1188
2184
C183
0180
ENDCHAR
STARTCHAR 5448
ENCODING 21576
SWIDTH 1020 0
DWIDTH 17 0
BBX 16 15 0 -1
BITMAP
0FF0
0FF0
0810
0810
0810
0FF0
0810
0000
7FFE
0180
0180
3FFC
0180
0180
FFFF
ENDCHAR
STARTCHAR 5449
ENCODING 21577
SWIDTH 1020 0
DWIDTH 17 0
BBX 16 16 0 -2
BITMAP
07F0
07F0
1410
1410
17F0
1410
1000
1FF8
1008
0008
FFFF
0000
0420
0810
300C
C003
ENDCHAR
STARTCHAR 544A
ENCODING 21578
SWIDTH 1020 0
DWIDTH 17 0
BBX 16 17 0 -2
BITMAP
0180
1180
1180
1180
1FFC
2180
2180
4180
FFFF
0000
0000
1FF8
1008
1008
1008
1FF8
1008
ENDCHAR
STARTCHAR 544E
ENCODING 21582
SWIDTH 1020 0
DWIDTH 17 0
BBX 15 16 1 -2
BITMAP
07F8
07F8
F408
9408
9408
9408
97F8
9448
F440
9420
0420
0410
0810
0808
1008
2006
ENDCHAR
STARTCHAR 5451
ENCODING 21585
SWIDTH 1020 0
DWIDTH 17 0
BBX 16 17 0 -2
BITMAP
000C
00F0
00F0
3F80
0180
0180
FFFF
0420
0810
1008
2FF4
C813
0810
0810
0810
0FF0
0810
ENDCHAR
STARTCHAR 545F
ENCODING 21599
SWIDTH 1020 0
DWIDTH 17 0
BBX 15 17 1 -2
BITMAP
0040
0040
0040
F040
9FFE
9040
9190
9990
9720
9320
F1C0
9040
0190
0188
0378
1F84
0004
ENDCHAR
STARTCHAR 5468
ENCODING 21608
SWIDTH 1020 0
DWIDTH 17 0
BBX 14 16 0 -2
BITMAP
3FFC
3FFC
2184
2184
27E4
2184
2184
2FF4
2004
27E4
2424
2424
27E4
4424
4004
800C
ENDCHAR
STARTCHAR 546A
ENCODING 21610
SWIDTH 1020 0
DWIDTH 17 0
BBX 15 16 1 -2
BITMAP
07F8
07F8
F408
9408
9408
9408
9408
97F8
F5A8
91A0
01A0
0320
0320
0422
0822
301E
ENDCHAR
STARTCHAR 5470
ENCODING 21616
SWIDTH 1020 0
DWIDTH 17 0
BBX 15 17 0 -2
BITMAP
0820
2822
2822
2824
2FB8
2820
2822
2FA2
381E
E000
0FF0
0810
0810
0810
0810
0FF0
0810
ENDCHAR
STARTCHAR 5471
ENCODING 21617
SWIDTH 1020 0
DWIDTH 17 0
BBX 15 17 1 -2
BITMAP
000C
0038
0038
F7C8
9408
9448
9448
9448
9448
9448
F448
9448
0864
0854
1074
1792
2012
ENDCHAR
STARTCHAR 5473
ENCODING 21619
SWIDTH 1020 0
DWIDTH 17 0
BBX 15 17 1 -2
BITMAP
0040
0040
0040
0040
F7FC
9040
9040
9040
9FFE
9060
F1D0
9350
0348
0448
1846
0040
0040
ENDCHAR
STARTCHAR 5475
ENCODING 21621
SWIDTH 1020 0
DWIDTH 17 0
BBX 15 16 1 -2
BITMAP
0FFE
0FFE
F008
9008
9008
97C8
9448
9448
9448
97C8
F448
9008
0008
0008
0008
0018
ENDCHAR
STARTCHAR 5476
ENCODING 21622
SWIDTH 1020 0
DWIDTH 17 0
BBX 16 17 0 -2
BITMAP
0200
0200
0200
F23E
9FD2
92D2
92D2
92D4
94D4
94D4
FD88
9388
0188
02D4
02D4
0422
08C1
ENDCHAR
STARTCHAR 5477
ENCODING 21623
SWIDTH 1020 0
DWIDTH 17 0
BBX 14 16 1 -2
BITMAP
07FC
07FC
F444
9444
9444
97FC
9444
9444
9444
F7FC
9444
0040
0040
0040
0040
0040
ENDCHAR
STARTCHAR 547B
ENCODING 21627
SWIDTH 1020 0
DWIDTH 17 0
BBX 14 17 1 -2
BITMAP
0040
0040
0040
0040
F7FC
9444
9444
97FC
9444
9444
F444
97FC
0444
0040
0040
0040
0040
ENDCHAR
STARTCHAR 547C
ENCODING 21628
SWIDTH 1020 0
DWIDTH 17 0
BBX 16 17 0 -2
BITMAP
0006
0018
0018
07E2
F422
9224
9224
91A8
91A8
9FFF
9020
F020
9020
0020
0020
0020
00E0
ENDCHAR
STARTCHAR 547D
ENCODING 21629
SWIDTH 1020 0
DWIDTH 17 0
BBX 16 17 0 -2
BITMAP
0180
02C0
02C0
0420
0810
17E8
2004
C003
3CFC
24C4
24C4
24C4
24C4
3CC4
24DC
00C0
00C0
ENDCHAR
STARTCHAR 5480
ENCODING 21632
SWIDTH 1020 0
DWIDTH 17 0
BBX 15 15 1 -1
BITMAP
03F0
03F0
F310
9310
9310
93F0
9310
9310
9310
F3F0
9310
0310
0310
0310
1FFE
ENDCHAR
STARTCHAR 5484
ENCODING 21636
SWIDTH 1020 0
DWIDTH 17 0
BBX 15 17 0 -2
BITMAP
0020
0020
0020
F224
9224
9224
9224
93FC
9224
9422
F422
9422
0422
0422
0422
07FE
0402
ENDCHAR
STARTCHAR 5486
ENCODING 21638
SWIDTH 1020 0
DWIDTH 17 0
BBX 16 17 0 -2
BITMAP
0200
0200
0200
F3FC
9204
9404
9FE4
9424
9424
97E4
F428
9408
0430
0400
0401
0401
03FF
ENDCHAR
STARTCHAR 548B
ENCODING 21643
SWIDTH 1020 0
DWIDTH 17 0
BBX 15 17 1 -2
BITMAP
0180
0180
0180
0180
F3FE
9340
9440
9878
9040
9040
9040
F07C
9040
0040
0040
0040
0040
ENDCHAR
STARTCHAR 548C
ENCODING 21644
SWIDTH 1020 0
DWIDTH 17 0
BBX 15 17 0 -2
BITMAP
0200
0C00
0C00
F000
10FE
10C2
FFC2
10C2
38C2
34C2
52C2
52C2
90C2
10FE
10C2
1000
1000
ENDCHAR
STARTCHAR 548E
ENCODING 21646
SWIDTH 1020 0
DWIDTH 17 0
BBX 16 17 0 -2
BITMAP
1010
1010
1010
1F90
2210
3228
4C24
84C3
0B80
30FF
C000
1FF8
1008
1008
1008
1FF8
1008
ENDCHAR
STARTCHAR 548F
ENCODING 21647
SWIDTH 1020 0
DWIDTH 17 0
BBX 15 17 1 -2
BITMAP
0380
0040
0040
F020
97C0
9044
9044
9FD8
9060
91D0
F350
9348
0448
1846
0040
0040
01C0
ENDCHAR
STARTCHAR 5490
ENCODING 21648
SWIDTH 1020 0
DWIDTH 17 0
BBX 15 17 1 -2
BITMAP
0188
0188
0188
F188
9308
9308
95FE
9D88
9448
9448
F448
9408
0408
0408
0408
0408
0418
ENDCHAR
STARTCHAR 5492
ENCODING 21650
SWIDTH 1020 0
DWIDTH 17 0
BBX 16 16 0 -2
BITMAP
7C3E
7C3E
4422
4422
4422
7C3E
4422
0000
0FE0
0820
0820
0820
0820
1021
2021
C01F
ENDCHAR
STARTCHAR 54A2
ENCODING 21666
SWIDTH 1020 0
DWIDTH 17 0
BBX 16 16 0 -2
BITMAP
3EFC
3EFC
22C4
22C4
3EFC
2004
1FF8
0000
FFFF
0400
0FF8
1808
0010
0010
0020
01C0
ENDCHAR
STARTCHAR 54A4
ENCODING 21668
SWIDTH 1020 0
DWIDTH 17 0
BBX 15 17 0 -2
BITMAP
0020
0020
0020
07FE
F402
941A
93E0
90C0
90C0
97FE
90C0
F0C0
90C0
00C0
00C2
00C2
003E
ENDCHAR
STARTCHAR 54A5
ENCODING 21669
SWIDTH 1020 0
DWIDTH 17 0
BBX 15 15 1 -1
BITMAP
0FFE
0FFE
F040
9190
9188
9338
9FC4
9044
9040
F040
97FC
0040
0040
0040
1FFE
ENDCHAR
STARTCHAR 54A8
ENCODING 21672
SWIDTH 1020 0
DWIDTH 17 0
BBX 16 17 0 -2
BITMAP
0180
0180
0180
7BFE
04C4
08C8
31A0
C1A0
0210
1C0C
0003
1FF8
1008
1008
1008
1FF8
1008
ENDCHAR
STARTCHAR 54AB
ENCODING 21675
SWIDTH 1020 0
DWIDTH 17 0
BBX 16 16 0 -2
BITMAP
3EFE
3EFE
22C2
22C2
22C2
22C2
3EFE
28C2
2828
2824
24C2
2581
2201
4180
40E0
801F
ENDCHAR
STARTCHAR 54AC
ENCODING 21676
SWIDTH 1020 0
DWIDTH 17 0
BBX 15 17 1 -2
BITMAP
0020
0020
0020
F020
97FE
9050
9188
9306
9D88
9188
F050
9050
0020
0050
0190
0308
0C06
ENDCHAR
STARTCHAR 54AF
ENCODING 21679
SWIDTH 1020 0
DWIDTH 17 0
BBX 16 17 0 -2
BITMAP
00C0
00C0
00C0
01F8
F188
92D0
9CD0
9020
90D0
938C
FC03
93FC
0204
0204
0204
03FC
0204
ENDCHAR
STARTCHAR 54B2
ENCODING 21682
SWIDTH 1020 0
DWIDTH 17 0
BBX 15 17 1 -2
BITMAP
0310
0190
0190
01A0
F000
97FC
9040
9040
9040
9FFE
F040
91A0
01A0
0310
0410
0808
3006
ENDCHAR
STARTCHAR 54B3
ENCODING 21683
SWIDTH 1020 0
DWIDTH 17 0
BBX 16 17 0 -2
BITMAP
0020
0020
0020
F020
97FF
90C0
94D0
9390
9194
90E4
F0C8
9188
0610
0028
00C4
0182
0602
ENDCHAR
STARTCHAR 54B8
ENCODING 21688
SWIDTH 1020 0
DWIDTH 17 0
BBX 16 17 0 -2
BITMAP
0028
0024
0024
0024
3FFF
2020
2024
3FE4
2024
2FA8
29A8
2990
2F90
49A8
40C8
8385
1C03
ENDCHAR
STARTCHAR 54BC
ENCODING 21692
SWIDTH 1020 0
DWIDTH 17 0
BBX 14 16 1 -2
BITMAP
1FE0
1FE0
1020
1020
13E0
1320
1320
FFFC
8004
9FE4
9024
9024
9FE4
9024
8004
800C
ENDCHAR
STARTCHAR 54BD
ENCODING 21693
SWIDTH 1020 0
DWIDTH 17 0
BBX 15 16 0 -2
BITMAP
07FE
07FE
0402
F422
9422
97FE
9422
9422
94D2
F4D2
958A
060A
0402
0402
07FE
0402
ENDCHAR
STARTCHAR 54BE
ENCODING 21694
SWIDTH 1020 0
DWIDTH 17 0
BBX 16 17 0 -2
BITMAP
00C0
00C0
00C0
00C4
F7FC
90C8
90D0
9FFF
9020
90C0
F384
9598
09E0
3180
0184
0184
00FC
ENDCHAR
STARTCHAR 54C0
ENCODING 21696
SWIDTH 1020 0
DWIDTH 17 0
BBX 16 17 0 -2
BITMAP
0180
0180
0180
FFFF
0000
0000
0FF0
0810
0810
0FF0
04C4
08C4
3828
C810
09C8
0E04
3003
ENDCHAR
STARTCHAR 54C1
ENCODING 21697
SWIDTH 1020 0
DWIDTH 17 0
BBX 14 16 1 -2
BITMAP
1FE0
1FE0
1020
1020
1020
1020
1FE0
1020
0000
F9FC
8984
8984
8984
8984
F9FC
8984
ENDCHAR
STARTCHAR 54C2
ENCODING 21698
SWIDTH 1020 0
DWIDTH 17 0
BBX 16 16 0 -2
BITMAP
0FFF
0FFF
00D0
F0D0
90D0
97FE
94D2
94D2
94D2
F592
958E
0602
0402
0402
07FE
0402
ENDCHAR
STARTCHAR 54C4
ENCODING 21700
SWIDTH 1020 0
DWIDTH 17 0
BBX 15 17 1 -2
BITMAP
0190
0190
0190
F190
9190
97FC
9190
9190
9190
9190
FFFE
9000
0310
0310
0408
0804
1002
ENDCHAR
STARTCHAR 54C7
ENCODING 21703
SWIDTH 1020 0
DWIDTH 17 0
BBX 15 16 1 -1
BITMAP
0040
0040
0040
0040
F7F8
9040
9040
9FFC
9000
9040
9040
F7FC
9040
0040
0040
1FFE
ENDCHAR
ENDFONT
